<?xml version="1.0" encoding="utf-8"?>
<!-- Generator: Adobe Illustrator 16.0.0, SVG Export Plug-In . SVG Version: 6.00 Build 0)  -->
<!DOCTYPE svg PUBLIC "-//W3C//DTD SVG 1.1//EN" "http://www.w3.org/Graphics/SVG/1.1/DTD/svg11.dtd">
<svg version="1.1" id="Layer_1" xmlns="http://www.w3.org/2000/svg" xmlns:xlink="http://www.w3.org/1999/xlink" x="0px" y="0px"
	 width="100px" height="100px" viewBox="0 0 100 100" enable-background="new 0 0 100 100" xml:space="preserve">
<g>
	
		<path fill="none" stroke="#1B75BB" stroke-width="2" stroke-linecap="round" stroke-linejoin="round" stroke-miterlimit="2.414" d="
		M35.474,67.573c5.262,1.599,11.558,2.067,17.196-0.284c5.639-2.348,14.755-8.456,15.037-16.819 M54.361,53.665l-0.188-3.195H50.51
		c2.066-2.254,1.879-10.899-6.955-12.029c-9.584,0.564-8.928,8.833-7.893,11.841h-3.384v3.854 M43.321,43.232
		c-1.895,0-3.431,1.536-3.431,3.432c0,1.893,1.536,3.432,3.431,3.432c1.894,0,3.43-1.539,3.43-3.432
		C46.75,44.769,45.214,43.232,43.321,43.232z M46.656,18.802V11h39.469l-0.471,39.659c-0.188,17.103-14.002,31.104-30.916,33.924
		c-19.359,3.196-37.025-9.116-40.221-28.476C11.135,35.435,21,13.821,46.656,18.802z M67.693,50.841l-3.952-0.135l4.308-10.408
		l3.602,10.677L67.693,50.841z"/>
	
		<path fill="none" stroke="#1B75BB" stroke-width="2" stroke-linecap="round" stroke-linejoin="round" stroke-miterlimit="2.414" d="
		M66.393,89H18.37l9.304-34.96h29.602L66.393,89z"/>
</g>
</svg>
