<?xml version="1.0" encoding="utf-8"?>
<!-- Generator: Adobe Illustrator 16.0.0, SVG Export Plug-In . SVG Version: 6.00 Build 0)  -->
<!DOCTYPE svg PUBLIC "-//W3C//DTD SVG 1.1//EN" "http://www.w3.org/Graphics/SVG/1.1/DTD/svg11.dtd">
<svg version="1.1" id="Layer_1" xmlns="http://www.w3.org/2000/svg" xmlns:xlink="http://www.w3.org/1999/xlink" x="0px" y="0px"
	 width="100px" height="100px" viewBox="0 0 100 100" enable-background="new 0 0 100 100" xml:space="preserve">
<g>
	
		<path fill="none" stroke="#1C75BC" stroke-width="2" stroke-linecap="round" stroke-linejoin="round" stroke-miterlimit="2.414" d="
		M31.368,31.578c-1.554,5.031-2.036,11.053,0.184,16.464c2.221,5.41,8.022,14.166,16.025,14.476 M77.998,42.527l7.465,0.041
		l-0.195,37.778L47.31,79.699c-16.372-0.267-29.707-13.56-32.321-29.767c-2.961-18.547,8.914-35.396,27.46-38.356
		C62.255,8.441,82.894,17.996,77.998,42.527z M47.223,62.504l0.146-3.785l9.943,4.175l-10.237,3.396L47.223,62.504z"/>
	
		<path fill="none" stroke="#1C75BC" stroke-width="2" stroke-linecap="round" stroke-linejoin="round" stroke-miterlimit="2.414" d="
		M73.515,89H27.547l8.906-33.468h28.334L73.515,89z M62.001,55.175l-0.182-3.058h-3.508c1.978-2.159,1.798-10.436-6.657-11.514
		c-9.175,0.538-8.545,8.454-7.555,11.333h-3.237v3.689 M51.43,45.188c-1.813,0-3.282,1.473-3.282,3.285
		c0,1.816,1.469,3.284,3.282,3.284c1.813,0,3.284-1.468,3.284-3.284C54.714,46.661,53.243,45.188,51.43,45.188z"/>
</g>
</svg>
