<?xml version="1.0" encoding="utf-8"?>
<!-- Generator: Adobe Illustrator 16.0.0, SVG Export Plug-In . SVG Version: 6.00 Build 0)  -->
<!DOCTYPE svg PUBLIC "-//W3C//DTD SVG 1.1//EN" "http://www.w3.org/Graphics/SVG/1.1/DTD/svg11.dtd">
<svg version="1.1" id="Layer_1" xmlns="http://www.w3.org/2000/svg" xmlns:xlink="http://www.w3.org/1999/xlink" x="0px" y="0px"
	 width="100px" height="100px" viewBox="0 0 100 100" enable-background="new 0 0 100 100" xml:space="preserve">
<g>
	
		<polygon fill="none" stroke="#1B75BB" stroke-width="2" stroke-linecap="round" stroke-linejoin="round" stroke-miterlimit="2.414" points="
		28.101,89 74.092,89 65.182,55.521 36.831,55.521 	"/>
	
		<path fill="none" stroke="#1B75BB" stroke-width="2" stroke-linecap="round" stroke-linejoin="round" stroke-miterlimit="2.414" d="
		M30.457,58.591c-1.389-5.081-1.668-11.12,0.732-16.455c2.398-5.334,8.491-13.896,16.503-13.944"/>
	
		<path fill="none" stroke="#1B75BB" stroke-width="2" stroke-linecap="round" stroke-linejoin="round" stroke-miterlimit="2.414" d="
		M77.447,49.19l7.466,0.209l1.055-37.785l-37.974-0.61c-16.378-0.276-30.152,12.574-33.303,28.69
		c-3.577,18.447,7.736,35.688,26.182,39.263C60.574,82.75,81.527,73.882,77.447,49.19z"/>
	
		<path fill="none" stroke="#1B75BB" stroke-width="2" stroke-linecap="round" stroke-linejoin="round" stroke-miterlimit="2.414" d="
		M39.623,55.161l0.18-3.062h3.508c-1.98-2.158-1.8-10.438,6.66-11.518c9.179,0.538,8.548,8.456,7.56,11.339h3.24v3.688"/>
	
		<circle fill="none" stroke="#1B75BB" stroke-width="2" stroke-linecap="round" stroke-linejoin="round" stroke-miterlimit="2.414" cx="50.286" cy="48.188" r="3.284"/>
	
		<polygon fill="none" stroke="#1B75BB" stroke-width="2" stroke-linecap="round" stroke-linejoin="round" stroke-miterlimit="2.414" points="
		47.337,28.193 47.315,24.406 57.439,28.137 47.358,31.983 	"/>
</g>
</svg>
