<?xml version="1.0" encoding="utf-8"?>
<!-- Generator: Adobe Illustrator 16.0.0, SVG Export Plug-In . SVG Version: 6.00 Build 0)  -->
<!DOCTYPE svg PUBLIC "-//W3C//DTD SVG 1.1//EN" "http://www.w3.org/Graphics/SVG/1.1/DTD/svg11.dtd">
<svg version="1.1" id="Layer_1" xmlns="http://www.w3.org/2000/svg" xmlns:xlink="http://www.w3.org/1999/xlink" x="0px" y="0px"
	 width="100px" height="100px" viewBox="0 0 100 100" enable-background="new 0 0 100 100" xml:space="preserve">
<g>
	
		<path fill="none" stroke="#1B75BB" stroke-width="2" stroke-linecap="round" stroke-linejoin="round" stroke-miterlimit="2.414" d="
		M64.527,67.573c-5.264,1.599-11.561,2.067-17.197-0.284c-5.638-2.348-14.753-8.455-15.037-16.817 M32.306,50.842l-3.954,0.133
		L31.95,40.3l4.312,10.408L32.306,50.842z M45.638,53.665l0.188-3.193h3.665c-2.067-2.256-1.879-10.902,6.954-12.028
		c9.584,0.562,8.929,8.83,7.895,11.838h3.385v3.853 M56.682,43.233c1.895,0,3.43,1.538,3.43,3.43c0,1.894-1.535,3.431-3.43,3.431
		c-1.896,0-3.433-1.537-3.433-3.431C53.249,44.771,54.786,43.233,56.682,43.233z M53.344,18.801V11H13.875l0.469,39.658
		c0.189,17.105,14.004,31.105,30.918,33.926c19.36,3.195,37.026-9.117,40.22-28.477C88.867,35.435,79,13.821,53.344,18.801z"/>
	
		<path fill="none" stroke="#1B75BB" stroke-width="2" stroke-linecap="round" stroke-linejoin="round" stroke-miterlimit="2.414" d="
		M33.609,89H81.63l-9.304-34.96H42.725L33.609,89z"/>
</g>
</svg>
