<?xml version="1.0" encoding="utf-8"?>
<!-- Generator: Adobe Illustrator 16.0.0, SVG Export Plug-In . SVG Version: 6.00 Build 0)  -->
<!DOCTYPE svg PUBLIC "-//W3C//DTD SVG 1.1//EN" "http://www.w3.org/Graphics/SVG/1.1/DTD/svg11.dtd">
<svg version="1.1" id="Layer_1" xmlns="http://www.w3.org/2000/svg" xmlns:xlink="http://www.w3.org/1999/xlink" x="0px" y="0px"
	 width="143.262px" height="113.25px" viewBox="0 0 143.262 113.25" enable-background="new 0 0 143.262 113.25"
	 xml:space="preserve">
<g>
	<g>
		
			<path fill="none" stroke="#1B75BB" stroke-width="2" stroke-linecap="round" stroke-linejoin="round" stroke-miterlimit="2.414" d="
			M67.491,18.677c-21.676,4.2-34.971,24.461-30.766,46.139c3.703,18.937,19.889,34.037,39.133,33.713l44.623-0.717l-1.238-44.402
			l-8.772,0.245C115.266,24.642,90.643,14.22,67.491,18.677z"/>
		
			<path fill="none" stroke="#1B75BB" stroke-width="2" stroke-linecap="round" stroke-linejoin="round" stroke-miterlimit="2.414" d="
			M69.572,27.336c1.381,0,2.545-0.077,3.693,0.015c4.454,0.354,7.779,2.463,9.757,6.521c1.533,3.145,1.809,6.48,1.051,9.852
			c-0.438,1.959-1.203,3.847-1.817,5.758c6.313-4.047,9.734-9.869,10.174-17.702c1.166,1.264,2.215,2.241,3.078,3.364
			c2.691,3.498,3.225,7.377,1.549,11.44c-1.994,4.843-5.826,7.731-10.633,9.47c-0.293,0.105-0.591,0.2-1.154,0.391
			c7.715,1.713,14.262-0.006,20.104-5.221c0,1.073,0.015,1.85-0.002,2.623c-0.143,7.125-5.204,12.152-12.313,12.228
			c-3.449,0.036-6.728-0.702-9.84-2.266c1.86,3.068,4.267,5.572,7.358,7.401c3.096,1.831,6.496,2.633,10.033,2.893
			c-0.832,0.885-1.557,1.791-2.414,2.543c-3.801,3.341-8.586,3.961-13.09,1.658c-4.215-2.156-6.846-5.687-8.432-10.068
			c-0.115-0.319-0.233-0.637-0.351-0.954c-1.744,7.433-0.091,13.971,5.155,19.774c-1.15,0-1.992,0.016-2.834-0.004
			c-6.235-0.133-10.667-3.904-11.8-10.046c-0.709-3.848-0.064-7.504,1.586-11.015c0.158-0.34,0.309-0.686,0.465-1.028
			c-0.111-0.091-0.223-0.181-0.334-0.272c-1.729,1.615-3.592,3.107-5.152,4.873c-3.172,3.59-4.529,7.965-4.811,12.617
			c-0.916-0.828-1.891-1.537-2.652-2.428c-3.695-4.32-3.857-10.729-0.365-15.052c2.354-2.913,5.283-5.078,8.844-6.339
			c0.314-0.113,0.623-0.238,0.936-0.359c-7.439-1.743-13.973-0.07-19.709,5.125c0-1.337-0.045-2.422,0.008-3.503
			c0.264-5.5,4.377-10.238,9.814-11.107c3.914-0.623,7.723-0.066,11.33,1.653c0.316,0.152,0.643,0.285,1.178,0.521
			c-4.23-6.578-10.043-10.01-17.914-10.434c1.348-1.226,2.383-2.311,3.563-3.211c2.516-1.921,5.367-2.719,8.535-2.197
			c3.756,0.614,6.639,2.654,8.996,5.53c1.639,1.994,2.736,4.285,3.592,7.048C76.49,39.7,74.755,33.126,69.572,27.336z"/>
		<g>
			
				<circle fill="#FFFFFF" stroke="#1B75BB" stroke-width="2" stroke-linecap="round" stroke-linejoin="round" stroke-miterlimit="2.414" cx="75.507" cy="57.186" r="13.652"/>
			
				<circle fill="none" stroke="#1B75BB" stroke-width="3" stroke-linecap="round" stroke-linejoin="round" stroke-miterlimit="2.414" cx="75.507" cy="57.186" r="3.859"/>
			<circle fill="#FFFFFF" cx="75.709" cy="62.382" r="1.356"/>
			<circle fill="#FFFFFF" cx="70.847" cy="54.534" r="1.357"/>
			<circle fill="#FFFFFF" cx="80.069" cy="54.534" r="1.357"/>
		</g>
	</g>
	<circle fill="#FFFFFF" cx="47.789" cy="74.96" r="15.62"/>
	<rect x="22.877" y="90.654" fill="#1B75BB" width="50.676" height="6.757"/>
	<rect x="38.336" y="55.006" fill="#FFFFFF" width="18.833" height="7.334"/>
	<g>
		
			<circle fill="none" stroke="#1B75BB" stroke-width="2" stroke-linecap="round" stroke-linejoin="round" stroke-miterlimit="2.414" cx="47.928" cy="75.109" r="13.651"/>
		<g>
			
				<circle fill="none" stroke="#1B75BB" stroke-width="2" stroke-linecap="round" stroke-linejoin="round" stroke-miterlimit="2.414" cx="47.928" cy="75.109" r="5.621"/>
		</g>
		<g>
			
				<circle fill="none" stroke="#1B75BB" stroke-width="1.5" stroke-linecap="round" stroke-linejoin="round" stroke-miterlimit="2.414" cx="47.928" cy="75.109" r="1.803"/>
		</g>
		<circle fill="#FFFFFF" cx="49.947" cy="76.701" r="0.759"/>
		<circle fill="#FFFFFF" cx="45.768" cy="76.655" r="0.759"/>
		<circle fill="#FFFFFF" cx="47.922" cy="72.542" r="0.759"/>
		<path fill="#1B75BB" d="M56.514,56.87c0,0.323-0.389,0.587-0.87,0.587H40.199c-0.481,0-0.871-0.264-0.871-0.587l0,0
			c0-0.325,0.389-0.588,0.871-0.588h15.444C56.126,56.282,56.514,56.545,56.514,56.87L56.514,56.87z"/>
		<rect x="41.091" y="57.311" fill="none" stroke="#1B75BB" stroke-miterlimit="10" width="13.661" height="4.961"/>
		
			<polyline fill="none" stroke="#1B75BB" stroke-width="2" stroke-linecap="round" stroke-linejoin="round" stroke-miterlimit="2.414" points="
			58.426,84.107 63.409,84.107 63.409,90.218 66.81,90.218 		"/>
		
			<polyline fill="none" stroke="#1B75BB" stroke-width="2" stroke-linecap="round" stroke-linejoin="round" stroke-miterlimit="2.414" points="
			37.433,84.107 32.452,84.107 32.452,90.218 29.05,90.218 		"/>
	</g>
	<rect x="42.169" y="50.173" fill="#FFFFFF" width="11.333" height="5.667"/>
	<path fill="none" stroke="#068E46" stroke-width="2.5" stroke-linejoin="round" d="M51.086,82.173l28.823-9.854l-0.074,0.062
		c6.582-1.914,11.393-7.991,11.393-15.192c0-8.735-7.084-15.816-15.817-15.816c-4.202,0-8.022,1.64-10.855,4.313L42.643,69.365
		l0.062-0.034c-1.575,1.426-2.565,3.485-2.565,5.778c0,4.3,3.488,7.787,7.789,7.787c1.293,0,2.513-0.314,3.586-0.873"/>
</g>
</svg>
