<?xml version="1.0" encoding="utf-8"?>
<!-- Generator: Adobe Illustrator 16.0.0, SVG Export Plug-In . SVG Version: 6.00 Build 0)  -->
<!DOCTYPE svg PUBLIC "-//W3C//DTD SVG 1.1//EN" "http://www.w3.org/Graphics/SVG/1.1/DTD/svg11.dtd">
<svg version="1.1" id="Layer_1" xmlns="http://www.w3.org/2000/svg" xmlns:xlink="http://www.w3.org/1999/xlink" x="0px" y="0px"
	 width="143.262px" height="113.25px" viewBox="0 0 143.262 113.25" enable-background="new 0 0 143.262 113.25"
	 xml:space="preserve">
<g>
	<g>
		
			<path fill="none" stroke="#1B75BB" stroke-width="2" stroke-linecap="round" stroke-linejoin="round" stroke-miterlimit="2.414" d="
			M78.881,22.202l0.245-8.772l-44.401-1.238l-0.717,44.623c-0.324,19.245,14.776,35.43,33.713,39.133
			c21.677,4.205,41.938-9.09,46.138-30.766C118.317,42.03,107.895,17.407,78.881,22.202z"/>
		
			<path fill="none" stroke="#1B75BB" stroke-width="2" stroke-linecap="round" stroke-linejoin="round" stroke-miterlimit="2.414" d="
			M85.108,57.92c2.763,0.855,5.054,1.953,7.048,3.592c2.876,2.357,4.916,5.24,5.53,8.996c0.521,3.168-0.276,6.02-2.197,8.535
			c-0.9,1.18-1.985,2.215-3.211,3.563c-0.424-7.871-3.855-13.684-10.434-17.914c0.235,0.535,0.368,0.861,0.521,1.178
			c1.72,3.607,2.276,7.416,1.653,11.33c-0.869,5.438-5.607,9.551-11.106,9.814c-1.081,0.053-2.166,0.008-3.503,0.008
			c5.195-5.736,6.867-12.27,5.124-19.709c-0.12,0.313-0.246,0.621-0.359,0.936c-1.26,3.561-3.425,6.49-6.338,8.844
			c-4.324,3.492-10.731,3.33-15.052-0.365c-0.891-0.762-1.6-1.736-2.427-2.652c4.652-0.281,9.027-1.639,12.617-4.811
			c1.765-1.561,3.257-3.424,4.872-5.152c-0.091-0.111-0.181-0.223-0.272-0.334c-0.343,0.156-0.688,0.307-1.028,0.465
			c-3.511,1.65-7.167,2.295-11.015,1.586c-6.142-1.133-9.913-5.564-10.046-11.8c-0.019-0.842-0.003-1.684-0.003-2.834
			c5.803,5.247,12.341,6.9,19.774,5.156c-0.318-0.117-0.635-0.235-0.954-0.351c-4.382-1.586-7.912-4.217-10.069-8.432
			c-2.302-4.504-1.682-9.289,1.659-13.09c0.752-0.857,1.658-1.582,2.542-2.414c0.26,3.537,1.062,6.938,2.893,10.033
			c1.829,3.092,4.333,5.498,7.401,7.358c-1.563-3.112-2.301-6.391-2.266-9.84c0.076-7.108,5.104-12.17,12.228-12.313
			c0.773-0.017,1.55-0.002,2.623-0.002c-5.215,5.842-6.934,12.389-5.221,20.104c0.19-0.563,0.285-0.861,0.391-1.154
			c1.738-4.807,4.627-8.639,9.47-10.633c4.063-1.676,7.942-1.143,11.44,1.549c1.123,0.863,2.101,1.912,3.364,3.078
			c-7.833,0.439-13.655,3.861-17.702,10.174c1.911-0.614,3.799-1.379,5.758-1.817c3.371-0.758,6.707-0.482,9.852,1.051
			c4.059,1.978,6.167,5.303,6.521,9.757c0.092,1.148,0.015,2.313,0.015,3.693C99.41,57.918,92.837,56.184,85.108,57.92z"/>
		<g>
			
				<circle fill="#FFFFFF" stroke="#1B75BB" stroke-width="2" stroke-linecap="round" stroke-linejoin="round" stroke-miterlimit="2.414" cx="75.352" cy="57.166" r="13.652"/>
			
				<circle fill="none" stroke="#1B75BB" stroke-width="3" stroke-linecap="round" stroke-linejoin="round" stroke-miterlimit="2.414" cx="75.352" cy="57.166" r="3.859"/>
			<circle fill="#FFFFFF" cx="70.155" cy="56.964" r="1.356"/>
			<circle fill="#FFFFFF" cx="78.003" cy="61.826" r="1.356"/>
			<circle fill="#FFFFFF" cx="78.003" cy="52.604" r="1.356"/>
		</g>
	</g>
	<circle fill="#FFFFFF" cx="47.789" cy="74.96" r="15.62"/>
	<rect x="22.877" y="90.654" fill="#1B75BB" width="50.676" height="6.757"/>
	<rect x="38.336" y="55.006" fill="#FFFFFF" width="18.833" height="7.334"/>
	<g>
		
			<circle fill="none" stroke="#1B75BB" stroke-width="2" stroke-linecap="round" stroke-linejoin="round" stroke-miterlimit="2.414" cx="47.928" cy="75.109" r="13.651"/>
		<g>
			
				<circle fill="none" stroke="#1B75BB" stroke-width="2" stroke-linecap="round" stroke-linejoin="round" stroke-miterlimit="2.414" cx="47.928" cy="75.109" r="5.621"/>
		</g>
		<g>
			
				<circle fill="none" stroke="#1B75BB" stroke-width="1.5" stroke-linecap="round" stroke-linejoin="round" stroke-miterlimit="2.414" cx="47.928" cy="75.109" r="1.803"/>
		</g>
		<circle fill="#FFFFFF" cx="49.947" cy="76.701" r="0.759"/>
		<circle fill="#FFFFFF" cx="45.768" cy="76.655" r="0.759"/>
		<circle fill="#FFFFFF" cx="47.922" cy="72.542" r="0.759"/>
		<path fill="#1B75BB" d="M56.514,56.87c0,0.323-0.389,0.587-0.87,0.587H40.199c-0.481,0-0.871-0.264-0.871-0.587l0,0
			c0-0.325,0.389-0.588,0.871-0.588h15.444C56.126,56.282,56.514,56.545,56.514,56.87L56.514,56.87z"/>
		<rect x="41.091" y="57.311" fill="none" stroke="#1B75BB" stroke-miterlimit="10" width="13.661" height="4.961"/>
		
			<polyline fill="none" stroke="#1B75BB" stroke-width="2" stroke-linecap="round" stroke-linejoin="round" stroke-miterlimit="2.414" points="
			58.426,84.107 63.409,84.107 63.409,90.218 66.81,90.218 		"/>
		
			<polyline fill="none" stroke="#1B75BB" stroke-width="2" stroke-linecap="round" stroke-linejoin="round" stroke-miterlimit="2.414" points="
			37.433,84.107 32.452,84.107 32.452,90.218 29.05,90.218 		"/>
	</g>
	<rect x="42.169" y="50.173" fill="#FFFFFF" width="11.333" height="5.667"/>
	<path fill="none" stroke="#068E46" stroke-width="2.5" stroke-linejoin="round" d="M51.086,82.173l28.823-9.854l-0.074,0.062
		c6.582-1.914,11.393-7.991,11.393-15.192c0-8.735-7.084-15.816-15.817-15.816c-4.202,0-8.022,1.64-10.855,4.313L42.643,69.365
		l0.062-0.034c-1.575,1.426-2.565,3.485-2.565,5.778c0,4.3,3.488,7.787,7.789,7.787c1.293,0,2.513-0.314,3.586-0.873"/>
</g>
</svg>
