<?xml version="1.0" encoding="utf-8"?>
<!-- Generator: Adobe Illustrator 16.0.0, SVG Export Plug-In . SVG Version: 6.00 Build 0)  -->
<!DOCTYPE svg PUBLIC "-//W3C//DTD SVG 1.1//EN" "http://www.w3.org/Graphics/SVG/1.1/DTD/svg11.dtd">
<svg version="1.1" id="Layer_1" xmlns="http://www.w3.org/2000/svg" xmlns:xlink="http://www.w3.org/1999/xlink" x="0px" y="0px"
	 width="143.262px" height="113.25px" viewBox="-26.5 0 143.262 113.25" enable-background="new -26.5 0 143.262 113.25"
	 xml:space="preserve">
<g>
	<g>
		
			<path fill="none" stroke="#1B75BB" stroke-width="2" stroke-linecap="round" stroke-linejoin="round" stroke-miterlimit="2.414" d="
			M29.741,18.607C8.066,22.808-5.229,43.068-1.025,64.745c3.702,18.938,19.889,34.037,39.134,33.713l44.624-0.717L81.494,53.34
			l-8.773,0.246C77.516,24.571,52.893,14.15,29.741,18.607z"/>
		
			<path fill-rule="evenodd" clip-rule="evenodd" fill="none" stroke="#1B75BB" stroke-width="2" stroke-linecap="round" stroke-linejoin="round" stroke-miterlimit="2.414" d="
			M31.821,27.267c1.381,0,2.544-0.077,3.692,0.015c4.455,0.354,7.781,2.462,9.758,6.521c1.533,3.144,1.809,6.48,1.051,9.852
			c-0.439,1.96-1.203,3.846-1.818,5.757c6.313-4.045,9.735-9.869,10.174-17.702c1.166,1.265,2.215,2.242,3.078,3.365
			c2.691,3.497,3.225,7.376,1.549,11.441c-1.994,4.843-5.826,7.729-10.633,9.468c-0.293,0.105-0.59,0.2-1.154,0.391
			c7.715,1.713,14.262-0.006,20.104-5.221c0,1.074,0.014,1.85-0.002,2.623c-0.143,7.123-5.203,12.151-12.313,12.228
			c-3.449,0.037-6.727-0.701-9.84-2.266c1.861,3.069,4.268,5.573,7.36,7.402c3.096,1.83,6.496,2.633,10.033,2.893
			c-0.832,0.885-1.557,1.79-2.414,2.543c-3.801,3.34-8.586,3.961-13.09,1.658c-4.215-2.156-6.846-5.686-8.433-10.068
			c-0.114-0.318-0.232-0.636-0.35-0.953c-1.744,7.432-0.091,13.971,5.155,19.773c-1.15,0-1.992,0.016-2.834-0.003
			c-6.235-0.133-10.668-3.903-11.8-10.046c-0.709-3.848-0.065-7.504,1.585-11.015c0.159-0.341,0.31-0.686,0.465-1.028
			c-0.111-0.092-0.223-0.182-0.333-0.272c-1.729,1.615-3.594,3.107-5.153,4.872c-3.172,3.59-4.529,7.965-4.811,12.617
			c-0.916-0.828-1.89-1.537-2.652-2.428c-3.694-4.32-3.857-10.729-0.363-15.052c2.354-2.913,5.283-5.078,8.842-6.338
			c0.314-0.113,0.624-0.239,0.937-0.359c-7.44-1.743-13.974-0.072-19.71,5.124c0-1.337-0.044-2.422,0.008-3.503
			c0.264-5.499,4.378-10.238,9.814-11.105c3.914-0.624,7.724-0.066,11.33,1.652c0.316,0.152,0.643,0.285,1.179,0.521
			C26,44.045,20.188,40.612,12.316,40.189c1.349-1.226,2.385-2.311,3.563-3.211c2.517-1.921,5.367-2.72,8.535-2.198
			c3.756,0.615,6.638,2.655,8.996,5.531c1.639,1.994,2.736,4.286,3.592,7.048C38.739,39.629,37.004,33.056,31.821,27.267z"/>
		<g>
			
				<circle fill="#FFFFFF" stroke="#1B75BB" stroke-width="2" stroke-linecap="round" stroke-linejoin="round" stroke-miterlimit="2.414" cx="37.756" cy="57.115" r="13.651"/>
			
				<circle fill="none" stroke="#1B75BB" stroke-width="3" stroke-linecap="round" stroke-linejoin="round" stroke-miterlimit="2.414" cx="37.755" cy="57.114" r="3.859"/>
			<circle fill="#FFFFFF" cx="37.958" cy="62.31" r="1.357"/>
			<circle fill="#FFFFFF" cx="33.096" cy="54.462" r="1.357"/>
			<circle fill="#FFFFFF" cx="42.318" cy="54.462" r="1.357"/>
		</g>
	</g>
	<circle fill="#FFFFFF" cx="65.716" cy="74.96" r="15.62"/>
	<rect x="40.805" y="90.654" fill="#1B75BB" width="50.676" height="6.757"/>
	<rect x="56.263" y="55.006" fill="#FFFFFF" width="18.833" height="7.334"/>
	<g>
		
			<circle fill="none" stroke="#1B75BB" stroke-width="2" stroke-linecap="round" stroke-linejoin="round" stroke-miterlimit="2.414" cx="65.855" cy="75.109" r="13.651"/>
		<g>
			
				<circle fill="none" stroke="#1B75BB" stroke-width="2" stroke-linecap="round" stroke-linejoin="round" stroke-miterlimit="2.414" cx="65.854" cy="75.109" r="5.621"/>
		</g>
		<g>
			
				<circle fill="none" stroke="#1B75BB" stroke-width="1.5" stroke-linecap="round" stroke-linejoin="round" stroke-miterlimit="2.414" cx="65.854" cy="75.109" r="1.803"/>
		</g>
		<circle fill="#FFFFFF" cx="67.874" cy="76.701" r="0.759"/>
		<circle fill="#FFFFFF" cx="63.694" cy="76.655" r="0.759"/>
		<circle fill="#FFFFFF" cx="65.849" cy="72.542" r="0.759"/>
		<path fill="#1B75BB" d="M74.441,56.87c0,0.324-0.389,0.587-0.871,0.587H58.126c-0.481,0-0.87-0.263-0.87-0.587l0,0
			c0-0.325,0.389-0.588,0.87-0.588H73.57C74.053,56.282,74.441,56.545,74.441,56.87L74.441,56.87z"/>
		<rect x="59.018" y="57.311" fill="none" stroke="#1B75BB" stroke-miterlimit="10" width="13.662" height="4.96"/>
		
			<polyline fill="none" stroke="#1B75BB" stroke-width="2" stroke-linecap="round" stroke-linejoin="round" stroke-miterlimit="2.414" points="
			76.354,84.108 81.336,84.108 81.336,90.218 84.736,90.218 		"/>
		
			<polyline fill="none" stroke="#1B75BB" stroke-width="2" stroke-linecap="round" stroke-linejoin="round" stroke-miterlimit="2.414" points="
			55.359,84.108 50.379,84.108 50.379,90.218 46.977,90.218 		"/>
	</g>
	<rect x="60.096" y="50.173" fill="#FFFFFF" width="11.334" height="5.667"/>
	<path fill="none" stroke="#068E46" stroke-width="2.5" stroke-linejoin="round" d="M62.583,82.173L33.76,72.318l0.074,0.061
		c-6.582-1.914-11.393-7.992-11.393-15.192c0-8.736,7.084-15.817,15.818-15.817c4.202,0,8.022,1.64,10.856,4.313l21.91,23.683
		l-0.061-0.034c1.575,1.426,2.564,3.485,2.564,5.778c0,4.3-3.487,7.788-7.788,7.788c-1.294,0-2.513-0.315-3.587-0.874"/>
</g>
</svg>
