<?xml version="1.0" encoding="utf-8"?>
<!-- Generator: Adobe Illustrator 16.0.0, SVG Export Plug-In . SVG Version: 6.00 Build 0)  -->
<!DOCTYPE svg PUBLIC "-//W3C//DTD SVG 1.1//EN" "http://www.w3.org/Graphics/SVG/1.1/DTD/svg11.dtd">
<svg version="1.1" id="Layer_1" xmlns="http://www.w3.org/2000/svg" xmlns:xlink="http://www.w3.org/1999/xlink" x="0px" y="0px"
	 width="143.262px" height="113.25px" viewBox="0 0 143.262 113.25" enable-background="new 0 0 143.262 113.25"
	 xml:space="preserve">
<g>
	<g>
		
			<path fill="none" stroke="#1B75BB" stroke-width="2" stroke-linecap="round" stroke-linejoin="round" stroke-miterlimit="2.414" d="
			M51.936,65.321c4.2,21.675,24.461,34.97,46.139,30.766c18.937-3.702,34.036-19.888,33.713-39.134l-0.717-44.623l-44.401,1.239
			l0.245,8.772C57.899,17.546,47.479,42.168,51.936,65.321z"/>
		
			<path fill="none" stroke="#1B75BB" stroke-width="2" stroke-linecap="round" stroke-linejoin="round" stroke-miterlimit="2.414" d="
			M60.594,63.238c0-1.38-0.076-2.544,0.016-3.692c0.354-4.456,2.461-7.78,6.521-9.757c3.144-1.533,6.481-1.809,9.851-1.052
			c1.961,0.439,3.848,1.203,5.759,1.817c-4.046-6.313-9.869-9.734-17.702-10.173c1.264-1.167,2.242-2.216,3.365-3.079
			c3.496-2.691,7.375-3.224,11.439-1.549c4.844,1.995,7.731,5.827,9.469,10.634c0.106,0.293,0.201,0.59,0.392,1.154
			c1.713-7.714-0.007-14.262-5.222-20.104c1.074,0,1.851-0.015,2.623,0.002c7.124,0.143,12.152,5.204,12.229,12.313
			c0.036,3.45-0.702,6.728-2.267,9.841c3.069-1.861,5.573-4.267,7.402-7.359c1.831-3.096,2.633-6.495,2.893-10.033
			c0.885,0.832,1.79,1.557,2.542,2.414c3.342,3.802,3.962,8.587,1.659,13.09c-2.157,4.215-5.687,6.847-10.068,8.433
			c-0.319,0.115-0.637,0.233-0.954,0.351c7.433,1.745,13.971,0.091,19.773-5.154c0,1.149,0.017,1.991-0.003,2.833
			c-0.133,6.237-3.903,10.668-10.046,11.8c-3.848,0.709-7.504,0.065-11.015-1.585c-0.34-0.159-0.686-0.31-1.028-0.465
			c-0.091,0.111-0.181,0.223-0.271,0.333c1.614,1.729,3.106,3.593,4.871,5.153c3.591,3.172,7.966,4.53,12.617,4.811
			c-0.827,0.916-1.536,1.891-2.427,2.652c-4.321,3.695-10.728,3.858-15.052,0.364c-2.913-2.354-5.078-5.283-6.338-8.843
			c-0.113-0.314-0.239-0.624-0.359-0.937c-1.742,7.441-0.072,13.974,5.124,19.71c-1.337,0-2.422,0.044-3.503-0.008
			c-5.499-0.264-10.238-4.377-11.105-9.814c-0.625-3.914-0.067-7.723,1.652-11.33c0.152-0.316,0.285-0.643,0.521-1.179
			c-6.579,4.23-10.012,10.043-10.434,17.915c-1.227-1.348-2.312-2.384-3.211-3.563c-1.922-2.517-2.72-5.367-2.199-8.535
			c0.615-3.756,2.656-6.639,5.531-8.996c1.994-1.64,4.285-2.737,7.049-3.592C72.958,56.322,66.385,58.058,60.594,63.238z"/>
		<g>
			
				<circle fill="#FFFFFF" stroke="#1B75BB" stroke-width="2" stroke-linecap="round" stroke-linejoin="round" stroke-miterlimit="2.414" cx="90.444" cy="57.306" r="13.652"/>
			
				<circle fill="none" stroke="#1B75BB" stroke-width="3" stroke-linecap="round" stroke-linejoin="round" stroke-miterlimit="2.414" cx="90.444" cy="57.306" r="3.859"/>
			<circle fill="#FFFFFF" cx="95.64" cy="57.103" r="1.356"/>
			<circle fill="#FFFFFF" cx="87.792" cy="61.965" r="1.357"/>
			<circle fill="#FFFFFF" cx="87.792" cy="52.744" r="1.357"/>
		</g>
	</g>
	<g>
		
			<circle fill="none" stroke="#1B75BB" stroke-width="2" stroke-linecap="round" stroke-linejoin="round" stroke-miterlimit="2.414" cx="32.928" cy="75.11" r="13.651"/>
		<g>
			
				<circle fill="none" stroke="#1B75BB" stroke-width="2" stroke-linecap="round" stroke-linejoin="round" stroke-miterlimit="2.414" cx="32.927" cy="75.109" r="5.621"/>
		</g>
		<g>
			
				<circle fill="none" stroke="#1B75BB" stroke-width="1.5" stroke-linecap="round" stroke-linejoin="round" stroke-miterlimit="2.414" cx="32.927" cy="75.11" r="1.803"/>
		</g>
		<circle fill="#FFFFFF" cx="34.946" cy="76.701" r="0.759"/>
		<circle fill="#FFFFFF" cx="30.767" cy="76.655" r="0.759"/>
		<circle fill="#FFFFFF" cx="32.922" cy="72.542" r="0.759"/>
		<path fill="#1B75BB" d="M41.514,56.87c0,0.323-0.389,0.587-0.871,0.587H25.198c-0.48,0-0.87-0.264-0.87-0.587l0,0
			c0-0.325,0.389-0.589,0.87-0.589h15.445C41.125,56.281,41.514,56.545,41.514,56.87L41.514,56.87z"/>
		<rect x="26.091" y="57.311" fill="none" stroke="#1B75BB" stroke-miterlimit="10" width="13.661" height="4.961"/>
		
			<polyline fill="none" stroke="#1B75BB" stroke-width="2" stroke-linecap="round" stroke-linejoin="round" stroke-miterlimit="2.414" points="
			43.426,84.109 48.407,84.109 48.407,90.218 51.81,90.218 		"/>
		
			<polyline fill="none" stroke="#1B75BB" stroke-width="2" stroke-linecap="round" stroke-linejoin="round" stroke-miterlimit="2.414" points="
			22.433,84.109 17.451,84.109 17.451,90.218 14.049,90.218 		"/>
	</g>
	<path fill="none" stroke="#068E46" stroke-width="2.5" stroke-linejoin="round" d="M93.425,73.107l-60.078,9.832l0.05,0.006
		c-1.209,0.035-2.444-0.213-3.608-0.78c-3.846-1.872-5.444-6.511-3.57-10.354c0.855-1.757,2.288-3.044,3.958-3.746l-0.045-0.017
		l54.241-25.822l-0.229,0.094c4.037-1.56,8.688-1.5,12.884,0.545c8.008,3.9,11.336,13.554,7.435,21.563
		c-2.289,4.698-6.557,7.786-11.311,8.749"/>
	<rect x="7.877" y="90.654" fill="#1B75BB" width="50.676" height="6.757"/>
</g>
</svg>
