<?xml version="1.0" encoding="utf-8"?>
<!-- Generator: Adobe Illustrator 16.0.0, SVG Export Plug-In . SVG Version: 6.00 Build 0)  -->
<!DOCTYPE svg PUBLIC "-//W3C//DTD SVG 1.1//EN" "http://www.w3.org/Graphics/SVG/1.1/DTD/svg11.dtd">
<svg version="1.1" id="Layer_1" xmlns="http://www.w3.org/2000/svg" xmlns:xlink="http://www.w3.org/1999/xlink" x="0px" y="0px"
	 width="143.262px" height="113.25px" viewBox="0 0 143.262 113.25" enable-background="new 0 0 143.262 113.25"
	 xml:space="preserve">
<g>
	<g>
		
			<path fill="none" stroke="#1B75BB" stroke-width="2" stroke-linecap="round" stroke-linejoin="round" stroke-miterlimit="2.414" d="
			M125.373,60.717l8.772,0.245l1.239-44.401l-44.623-0.717C71.516,15.52,55.33,30.62,51.628,49.557
			c-4.204,21.678,9.091,41.938,30.766,46.139C105.546,100.152,130.168,89.732,125.373,60.717z"/>
		
			<path fill="none" stroke="#1B75BB" stroke-width="2" stroke-linecap="round" stroke-linejoin="round" stroke-miterlimit="2.414" d="
			M89.656,66.943c-0.854,2.764-1.952,5.055-3.592,7.049c-2.357,2.875-5.24,4.916-8.996,5.531c-3.168,0.521-6.019-0.277-8.535-2.199
			c-1.179-0.899-2.215-1.984-3.563-3.211c7.872-0.422,13.685-3.854,17.915-10.434c-0.536,0.236-0.862,0.369-1.179,0.521
			c-3.607,1.72-7.416,2.277-11.33,1.652c-5.438-0.867-9.551-5.606-9.814-11.105c-0.052-1.081-0.008-2.166-0.008-3.503
			c5.736,5.196,12.269,6.866,19.71,5.124c-0.313-0.12-0.622-0.246-0.937-0.359c-3.56-1.26-6.489-3.425-8.843-6.338
			c-3.494-4.324-3.331-10.731,0.364-15.052c0.762-0.891,1.736-1.6,2.652-2.427c0.28,4.652,1.639,9.027,4.811,12.617
			c1.561,1.765,3.425,3.257,5.153,4.872c0.11-0.091,0.222-0.181,0.333-0.272c-0.155-0.343-0.306-0.688-0.465-1.028
			c-1.65-3.511-2.294-7.167-1.585-11.015c1.132-6.142,5.563-9.913,11.8-10.046c0.842-0.019,1.684-0.003,2.833-0.003
			c-5.245,5.803-6.898,12.341-5.154,19.774c0.117-0.318,0.235-0.635,0.351-0.954c1.586-4.382,4.218-7.912,8.433-10.069
			c4.503-2.302,9.288-1.682,13.09,1.659c0.857,0.752,1.582,1.658,2.414,2.542c-3.538,0.26-6.938,1.062-10.033,2.893
			c-3.093,1.829-5.498,4.333-7.359,7.402c3.113-1.564,6.391-2.302,9.841-2.266c7.108,0.076,12.17,5.104,12.313,12.229
			c0.017,0.772,0.002,1.549,0.002,2.623c-5.842-5.215-12.39-6.935-20.104-5.222c0.564,0.19,0.861,0.285,1.154,0.392
			c4.807,1.737,8.639,4.625,10.634,9.469c1.675,4.064,1.143,7.943-1.549,11.439c-0.863,1.123-1.912,2.102-3.079,3.365
			c-0.438-7.833-3.86-13.656-10.173-17.702c0.614,1.911,1.378,3.798,1.817,5.759c0.757,3.369,0.481,6.707-1.052,9.851
			c-1.978,4.06-5.302,6.167-9.757,6.521c-1.148,0.092-2.313,0.016-3.692,0.016C89.657,81.246,91.393,74.673,89.656,66.943z"/>
		<g>
			
				<circle fill="#FFFFFF" stroke="#1B75BB" stroke-width="2" stroke-linecap="round" stroke-linejoin="round" stroke-miterlimit="2.414" cx="90.409" cy="57.188" r="13.652"/>
			
				<circle fill="none" stroke="#1B75BB" stroke-width="3" stroke-linecap="round" stroke-linejoin="round" stroke-miterlimit="2.414" cx="90.409" cy="57.188" r="3.859"/>
			<circle fill="#FFFFFF" cx="90.612" cy="51.991" r="1.356"/>
			<circle fill="#FFFFFF" cx="85.75" cy="59.839" r="1.356"/>
			<circle fill="#FFFFFF" cx="94.971" cy="59.839" r="1.356"/>
		</g>
	</g>
	<g>
		
			<circle fill="none" stroke="#1B75BB" stroke-width="2" stroke-linecap="round" stroke-linejoin="round" stroke-miterlimit="2.414" cx="32.928" cy="75.11" r="13.651"/>
		<g>
			
				<circle fill="none" stroke="#1B75BB" stroke-width="2" stroke-linecap="round" stroke-linejoin="round" stroke-miterlimit="2.414" cx="32.927" cy="75.109" r="5.621"/>
		</g>
		<g>
			
				<circle fill="none" stroke="#1B75BB" stroke-width="1.5" stroke-linecap="round" stroke-linejoin="round" stroke-miterlimit="2.414" cx="32.927" cy="75.11" r="1.803"/>
		</g>
		<circle fill="#FFFFFF" cx="34.946" cy="76.701" r="0.759"/>
		<circle fill="#FFFFFF" cx="30.767" cy="76.655" r="0.759"/>
		<circle fill="#FFFFFF" cx="32.922" cy="72.542" r="0.759"/>
		<path fill="#1B75BB" d="M41.514,56.87c0,0.323-0.389,0.587-0.871,0.587H25.198c-0.48,0-0.87-0.264-0.87-0.587l0,0
			c0-0.325,0.389-0.589,0.87-0.589h15.445C41.125,56.281,41.514,56.545,41.514,56.87L41.514,56.87z"/>
		<rect x="26.091" y="57.311" fill="none" stroke="#1B75BB" stroke-miterlimit="10" width="13.661" height="4.961"/>
		
			<polyline fill="none" stroke="#1B75BB" stroke-width="2" stroke-linecap="round" stroke-linejoin="round" stroke-miterlimit="2.414" points="
			43.426,84.109 48.407,84.109 48.407,90.218 51.81,90.218 		"/>
		
			<polyline fill="none" stroke="#1B75BB" stroke-width="2" stroke-linecap="round" stroke-linejoin="round" stroke-miterlimit="2.414" points="
			22.433,84.109 17.451,84.109 17.451,90.218 14.049,90.218 		"/>
	</g>
	<path fill="none" stroke="#068E46" stroke-width="2.5" stroke-linejoin="round" d="M93.425,73.107l-60.078,9.832l0.05,0.006
		c-1.209,0.035-2.444-0.213-3.608-0.78c-3.846-1.872-5.444-6.511-3.57-10.354c0.855-1.757,2.288-3.044,3.958-3.746l-0.045-0.017
		l54.241-25.822l-0.229,0.094c4.037-1.56,8.688-1.5,12.884,0.545c8.008,3.9,11.336,13.554,7.435,21.563
		c-2.289,4.698-6.557,7.786-11.311,8.749"/>
	<rect x="7.877" y="90.654" fill="#1B75BB" width="50.676" height="6.757"/>
</g>
</svg>
