<?xml version="1.0" encoding="utf-8"?>
<!-- Generator: Adobe Illustrator 16.0.0, SVG Export Plug-In . SVG Version: 6.00 Build 0)  -->
<!DOCTYPE svg PUBLIC "-//W3C//DTD SVG 1.1//EN" "http://www.w3.org/Graphics/SVG/1.1/DTD/svg11.dtd">
<svg version="1.1" id="Layer_1" xmlns="http://www.w3.org/2000/svg" xmlns:xlink="http://www.w3.org/1999/xlink" x="0px" y="0px"
	 width="143.262px" height="113.25px" viewBox="0 0 143.262 113.25" enable-background="new 0 0 143.262 113.25"
	 xml:space="preserve">
<g>
	<g>
		
			<path fill="none" stroke="#1B75BB" stroke-width="2" stroke-linecap="round" stroke-linejoin="round" stroke-miterlimit="2.414" d="
			M93.574,22.341l0.245-8.772L49.419,12.33l-0.717,44.623c-0.323,19.247,14.776,35.432,33.713,39.134
			c21.678,4.204,41.938-9.091,46.139-30.766C133.01,42.168,122.59,17.546,93.574,22.341z"/>
		
			<path fill="none" stroke="#1B75BB" stroke-width="2" stroke-linecap="round" stroke-linejoin="round" stroke-miterlimit="2.414" d="
			M99.801,58.06c2.764,0.854,5.055,1.952,7.049,3.592c2.875,2.357,4.916,5.24,5.531,8.996c0.521,3.168-0.277,6.019-2.199,8.535
			c-0.899,1.179-1.984,2.215-3.211,3.563c-0.422-7.872-3.854-13.685-10.434-17.915c0.236,0.536,0.369,0.862,0.521,1.179
			c1.72,3.607,2.277,7.416,1.652,11.33c-0.867,5.438-5.606,9.551-11.105,9.814c-1.081,0.052-2.166,0.008-3.503,0.008
			c5.196-5.736,6.866-12.269,5.124-19.71c-0.12,0.313-0.246,0.622-0.359,0.937c-1.26,3.56-3.425,6.489-6.338,8.843
			c-4.324,3.494-10.73,3.331-15.052-0.364c-0.891-0.762-1.6-1.736-2.427-2.652c4.651-0.28,9.026-1.639,12.617-4.811
			c1.765-1.561,3.257-3.425,4.871-5.153c-0.091-0.11-0.181-0.222-0.271-0.333c-0.343,0.155-0.688,0.306-1.028,0.465
			c-3.511,1.65-7.167,2.294-11.015,1.585c-6.143-1.132-9.913-5.563-10.046-11.8c-0.02-0.842-0.003-1.684-0.003-2.833
			c5.803,5.245,12.341,6.899,19.773,5.154c-0.317-0.117-0.635-0.235-0.954-0.351c-4.382-1.586-7.911-4.218-10.068-8.433
			c-2.303-4.503-1.683-9.288,1.659-13.09c0.752-0.857,1.657-1.582,2.542-2.414c0.26,3.538,1.062,6.938,2.893,10.033
			c1.829,3.093,4.333,5.498,7.402,7.359c-1.564-3.113-2.303-6.391-2.267-9.841c0.076-7.108,5.104-12.17,12.229-12.313
			c0.772-0.017,1.549-0.002,2.623-0.002c-5.215,5.842-6.935,12.39-5.222,20.104c0.19-0.564,0.285-0.861,0.392-1.154
			c1.737-4.807,4.625-8.639,9.469-10.634c4.064-1.675,7.943-1.143,11.439,1.549c1.123,0.863,2.102,1.912,3.365,3.079
			c-7.833,0.438-13.656,3.86-17.702,10.173c1.911-0.614,3.798-1.378,5.759-1.817c3.369-0.757,6.707-0.481,9.851,1.052
			c4.06,1.978,6.167,5.302,6.521,9.757c0.092,1.148,0.016,2.313,0.016,3.692C114.104,58.058,107.531,56.322,99.801,58.06z"/>
		<g>
			
				<circle fill="#FFFFFF" stroke="#1B75BB" stroke-width="2" stroke-linecap="round" stroke-linejoin="round" stroke-miterlimit="2.414" cx="90.046" cy="57.306" r="13.652"/>
			
				<circle fill="none" stroke="#1B75BB" stroke-width="3" stroke-linecap="round" stroke-linejoin="round" stroke-miterlimit="2.414" cx="90.046" cy="57.306" r="3.859"/>
			<circle fill="#FFFFFF" cx="84.848" cy="57.103" r="1.356"/>
			<circle fill="#FFFFFF" cx="92.697" cy="61.965" r="1.356"/>
			<circle fill="#FFFFFF" cx="92.697" cy="52.744" r="1.356"/>
		</g>
	</g>
	<g>
		
			<circle fill="none" stroke="#1B75BB" stroke-width="2" stroke-linecap="round" stroke-linejoin="round" stroke-miterlimit="2.414" cx="32.928" cy="75.11" r="13.651"/>
		<g>
			
				<circle fill="none" stroke="#1B75BB" stroke-width="2" stroke-linecap="round" stroke-linejoin="round" stroke-miterlimit="2.414" cx="32.927" cy="75.109" r="5.621"/>
		</g>
		<g>
			
				<circle fill="none" stroke="#1B75BB" stroke-width="1.5" stroke-linecap="round" stroke-linejoin="round" stroke-miterlimit="2.414" cx="32.927" cy="75.11" r="1.803"/>
		</g>
		<circle fill="#FFFFFF" cx="34.946" cy="76.701" r="0.759"/>
		<circle fill="#FFFFFF" cx="30.767" cy="76.655" r="0.759"/>
		<circle fill="#FFFFFF" cx="32.922" cy="72.542" r="0.759"/>
		<path fill="#1B75BB" d="M41.514,56.87c0,0.323-0.389,0.587-0.871,0.587H25.198c-0.48,0-0.87-0.264-0.87-0.587l0,0
			c0-0.325,0.389-0.589,0.87-0.589h15.445C41.125,56.281,41.514,56.545,41.514,56.87L41.514,56.87z"/>
		<rect x="26.091" y="57.311" fill="none" stroke="#1B75BB" stroke-miterlimit="10" width="13.661" height="4.961"/>
		
			<polyline fill="none" stroke="#1B75BB" stroke-width="2" stroke-linecap="round" stroke-linejoin="round" stroke-miterlimit="2.414" points="
			43.426,84.109 48.407,84.109 48.407,90.218 51.81,90.218 		"/>
		
			<polyline fill="none" stroke="#1B75BB" stroke-width="2" stroke-linecap="round" stroke-linejoin="round" stroke-miterlimit="2.414" points="
			22.433,84.109 17.451,84.109 17.451,90.218 14.049,90.218 		"/>
	</g>
	<path fill="none" stroke="#068E46" stroke-width="2.5" stroke-linejoin="round" d="M93.425,73.107l-60.078,9.832l0.05,0.006
		c-1.209,0.035-2.444-0.213-3.608-0.78c-3.846-1.872-5.444-6.511-3.57-10.354c0.855-1.757,2.288-3.044,3.958-3.746l-0.045-0.017
		l54.241-25.822l-0.229,0.094c4.037-1.56,8.688-1.5,12.884,0.545c8.008,3.9,11.336,13.554,7.435,21.563
		c-2.289,4.698-6.557,7.786-11.311,8.749"/>
	<rect x="7.877" y="90.654" fill="#1B75BB" width="50.676" height="6.757"/>
</g>
</svg>
