<?xml version="1.0" encoding="utf-8"?>
<!-- Generator: Adobe Illustrator 16.0.0, SVG Export Plug-In . SVG Version: 6.00 Build 0)  -->
<!DOCTYPE svg PUBLIC "-//W3C//DTD SVG 1.1//EN" "http://www.w3.org/Graphics/SVG/1.1/DTD/svg11.dtd">
<svg version="1.1" id="Layer_1" xmlns="http://www.w3.org/2000/svg" xmlns:xlink="http://www.w3.org/1999/xlink" x="0px" y="0px"
	 width="143.262px" height="113.25px" viewBox="-26.5 0 143.262 113.25" enable-background="new -26.5 0 143.262 113.25"
	 xml:space="preserve">
<g>
	<g>
		
			<path fill="none" stroke="#1B75BB" stroke-width="2" stroke-linecap="round" stroke-linejoin="round" stroke-miterlimit="2.414" d="
			M41.67,22.285l0.245-8.773l-44.401-1.238l-0.717,44.623C-3.527,76.142,11.573,92.328,30.51,96.03
			c21.678,4.204,41.938-9.091,46.139-30.766C81.105,42.113,70.685,17.49,41.67,22.285z"/>
		
			<path fill-rule="evenodd" clip-rule="evenodd" fill="none" stroke="#1B75BB" stroke-width="2" stroke-linecap="round" stroke-linejoin="round" stroke-miterlimit="2.414" d="
			M47.896,58.003c2.762,0.855,5.054,1.953,7.048,3.592c2.876,2.358,4.916,5.24,5.531,8.996c0.521,3.168-0.277,6.019-2.198,8.535
			c-0.9,1.179-1.985,2.215-3.211,3.563c-0.423-7.872-3.856-13.685-10.434-17.915c0.236,0.536,0.369,0.862,0.521,1.179
			c1.719,3.606,2.277,7.416,1.653,11.33c-0.868,5.437-5.607,9.551-11.106,9.814c-1.081,0.052-2.166,0.008-3.503,0.008
			c5.196-5.736,6.867-12.27,5.124-19.71c-0.12,0.313-0.246,0.622-0.359,0.937c-1.26,3.559-3.425,6.488-6.338,8.842
			c-4.324,3.494-10.731,3.331-15.052-0.363c-0.891-0.763-1.6-1.736-2.427-2.652c4.652-0.281,9.027-1.639,12.617-4.811
			c1.765-1.56,3.257-3.425,4.872-5.153c-0.091-0.11-0.181-0.222-0.272-0.333c-0.343,0.155-0.688,0.306-1.028,0.465
			c-3.511,1.65-7.167,2.294-11.015,1.585c-6.142-1.132-9.913-5.564-10.046-11.8C8.254,53.27,8.27,52.428,8.27,51.277
			c5.803,5.246,12.341,6.899,19.774,5.155c-0.318-0.117-0.635-0.235-0.954-0.35c-4.382-1.587-7.912-4.218-10.069-8.433
			c-2.302-4.504-1.682-9.289,1.659-13.09c0.752-0.857,1.658-1.582,2.542-2.414c0.26,3.537,1.062,6.938,2.893,10.033
			c1.829,3.092,4.333,5.498,7.402,7.359c-1.564-3.113-2.302-6.391-2.266-9.84c0.076-7.109,5.104-12.17,12.228-12.313
			c0.773-0.016,1.549-0.002,2.623-0.002c-5.215,5.842-6.934,12.389-5.221,20.104c0.19-0.564,0.285-0.861,0.391-1.154
			c1.738-4.807,4.626-8.639,9.468-10.633c4.065-1.676,7.944-1.143,11.441,1.549c1.123,0.863,2.101,1.912,3.365,3.078
			c-7.833,0.439-13.657,3.861-17.702,10.174c1.911-0.615,3.797-1.379,5.757-1.818c3.371-0.758,6.708-0.482,9.852,1.051
			c4.059,1.977,6.167,5.303,6.521,9.758c0.092,1.148,0.015,2.312,0.015,3.692C62.199,58.001,55.626,56.267,47.896,58.003z"/>
		<g>
			
				<circle fill="#FFFFFF" stroke="#1B75BB" stroke-width="2" stroke-linecap="round" stroke-linejoin="round" stroke-miterlimit="2.414" cx="38.141" cy="57.25" r="13.651"/>
			
				<circle fill="none" stroke="#1B75BB" stroke-width="3" stroke-linecap="round" stroke-linejoin="round" stroke-miterlimit="2.414" cx="38.141" cy="57.25" r="3.859"/>
			<circle fill="#FFFFFF" cx="32.944" cy="57.047" r="1.356"/>
			<circle fill="#FFFFFF" cx="40.792" cy="61.909" r="1.357"/>
			<circle fill="#FFFFFF" cx="40.792" cy="52.688" r="1.357"/>
		</g>
	</g>
	<circle fill="#FFFFFF" cx="65.716" cy="74.96" r="15.62"/>
	<rect x="40.805" y="90.654" fill="#1B75BB" width="50.676" height="6.757"/>
	<rect x="56.263" y="55.006" fill="#FFFFFF" width="18.833" height="7.334"/>
	<g>
		
			<circle fill="none" stroke="#1B75BB" stroke-width="2" stroke-linecap="round" stroke-linejoin="round" stroke-miterlimit="2.414" cx="65.855" cy="75.109" r="13.651"/>
		<g>
			
				<circle fill="none" stroke="#1B75BB" stroke-width="2" stroke-linecap="round" stroke-linejoin="round" stroke-miterlimit="2.414" cx="65.854" cy="75.109" r="5.621"/>
		</g>
		<g>
			
				<circle fill="none" stroke="#1B75BB" stroke-width="1.5" stroke-linecap="round" stroke-linejoin="round" stroke-miterlimit="2.414" cx="65.854" cy="75.109" r="1.803"/>
		</g>
		<circle fill="#FFFFFF" cx="67.874" cy="76.701" r="0.759"/>
		<circle fill="#FFFFFF" cx="63.694" cy="76.655" r="0.759"/>
		<circle fill="#FFFFFF" cx="65.849" cy="72.542" r="0.759"/>
		<path fill="#1B75BB" d="M74.441,56.87c0,0.324-0.389,0.587-0.871,0.587H58.126c-0.481,0-0.87-0.263-0.87-0.587l0,0
			c0-0.325,0.389-0.588,0.87-0.588H73.57C74.053,56.282,74.441,56.545,74.441,56.87L74.441,56.87z"/>
		<rect x="59.018" y="57.311" fill="none" stroke="#1B75BB" stroke-miterlimit="10" width="13.662" height="4.96"/>
		
			<polyline fill="none" stroke="#1B75BB" stroke-width="2" stroke-linecap="round" stroke-linejoin="round" stroke-miterlimit="2.414" points="
			76.354,84.108 81.336,84.108 81.336,90.218 84.736,90.218 		"/>
		
			<polyline fill="none" stroke="#1B75BB" stroke-width="2" stroke-linecap="round" stroke-linejoin="round" stroke-miterlimit="2.414" points="
			55.359,84.108 50.379,84.108 50.379,90.218 46.977,90.218 		"/>
	</g>
	<rect x="60.096" y="50.173" fill="#FFFFFF" width="11.334" height="5.667"/>
	<path fill="none" stroke="#068E46" stroke-width="2.5" stroke-linejoin="round" d="M62.583,82.173L33.76,72.318l0.074,0.061
		c-6.582-1.914-11.393-7.992-11.393-15.192c0-8.736,7.084-15.817,15.818-15.817c4.202,0,8.022,1.64,10.856,4.313l21.91,23.683
		l-0.061-0.034c1.575,1.426,2.564,3.485,2.564,5.778c0,4.3-3.487,7.788-7.788,7.788c-1.294,0-2.513-0.315-3.587-0.874"/>
</g>
</svg>
