<?xml version="1.0" encoding="utf-8"?>
<!-- Generator: Adobe Illustrator 16.0.0, SVG Export Plug-In . SVG Version: 6.00 Build 0)  -->
<!DOCTYPE svg PUBLIC "-//W3C//DTD SVG 1.1//EN" "http://www.w3.org/Graphics/SVG/1.1/DTD/svg11.dtd">
<svg version="1.1" id="Layer_1" xmlns="http://www.w3.org/2000/svg" xmlns:xlink="http://www.w3.org/1999/xlink" x="0px" y="0px"
	 width="143.262px" height="113.25px" viewBox="-26.5 0 143.262 113.25" enable-background="new -26.5 0 143.262 113.25"
	 xml:space="preserve">
<g>
	<g>
		
			<path fill="none" stroke="#1B75BB" stroke-width="2" stroke-linecap="round" stroke-linejoin="round" stroke-miterlimit="2.414" d="
			M-0.219,65.265c4.201,21.675,24.461,34.97,46.139,30.766c18.938-3.702,34.037-19.889,33.713-39.134l-0.717-44.623l-44.401,1.238
			l0.245,8.773C5.745,17.49-4.676,42.113-0.219,65.265z"/>
		
			<path fill-rule="evenodd" clip-rule="evenodd" fill="none" stroke="#1B75BB" stroke-width="2" stroke-linecap="round" stroke-linejoin="round" stroke-miterlimit="2.414" d="
			M8.441,63.185c0-1.381-0.077-2.544,0.015-3.692c0.354-4.455,2.462-7.781,6.521-9.758c3.144-1.533,6.48-1.809,9.852-1.051
			c1.96,0.439,3.846,1.203,5.757,1.818c-4.045-6.313-9.869-9.734-17.702-10.174c1.265-1.166,2.242-2.215,3.365-3.078
			c3.497-2.691,7.376-3.225,11.441-1.549c4.842,1.994,7.73,5.826,9.468,10.633c0.105,0.293,0.2,0.59,0.391,1.154
			c1.713-7.715-0.006-14.262-5.221-20.104c1.074,0,1.85-0.014,2.623,0.002c7.123,0.143,12.151,5.203,12.228,12.313
			c0.037,3.449-0.701,6.727-2.266,9.84c3.069-1.861,5.573-4.268,7.402-7.359c1.83-3.096,2.633-6.496,2.893-10.033
			c0.885,0.832,1.79,1.557,2.543,2.414c3.34,3.801,3.961,8.586,1.658,13.09c-2.156,4.215-5.686,6.846-10.068,8.433
			c-0.318,0.114-0.636,0.232-0.954,0.35c7.432,1.744,13.971,0.091,19.774-5.155c0,1.15,0.016,1.992-0.003,2.834
			c-0.133,6.235-3.903,10.668-10.046,11.8c-3.848,0.709-7.504,0.065-11.015-1.585c-0.341-0.159-0.686-0.31-1.028-0.465
			c-0.092,0.111-0.182,0.223-0.272,0.333c1.615,1.729,3.107,3.594,4.872,5.153c3.59,3.172,7.965,4.529,12.617,4.811
			c-0.828,0.916-1.537,1.89-2.428,2.652c-4.32,3.694-10.729,3.857-15.052,0.363c-2.913-2.354-5.078-5.283-6.338-8.842
			c-0.113-0.314-0.239-0.624-0.359-0.937c-1.743,7.44-0.072,13.974,5.124,19.71c-1.337,0-2.422,0.044-3.503-0.008
			c-5.499-0.264-10.238-4.378-11.106-9.814c-0.624-3.914-0.066-7.724,1.653-11.33c0.151-0.316,0.284-0.643,0.521-1.179
			c-6.577,4.23-10.011,10.043-10.434,17.915c-1.226-1.349-2.311-2.385-3.211-3.563c-1.921-2.517-2.72-5.367-2.198-8.535
			c0.615-3.756,2.655-6.638,5.531-8.996c1.994-1.639,4.286-2.736,7.048-3.592C20.804,56.267,14.23,58.001,8.441,63.185z"/>
		<g>
			
				<circle fill="#FFFFFF" stroke="#1B75BB" stroke-width="2" stroke-linecap="round" stroke-linejoin="round" stroke-miterlimit="2.414" cx="38.29" cy="57.25" r="13.65"/>
			
				<circle fill="none" stroke="#1B75BB" stroke-width="3" stroke-linecap="round" stroke-linejoin="round" stroke-miterlimit="2.414" cx="38.289" cy="57.25" r="3.859"/>
			<circle fill="#FFFFFF" cx="43.484" cy="57.047" r="1.357"/>
			<circle fill="#FFFFFF" cx="35.637" cy="61.909" r="1.357"/>
			<circle fill="#FFFFFF" cx="35.637" cy="52.688" r="1.357"/>
		</g>
	</g>
	<circle fill="#FFFFFF" cx="65.716" cy="74.96" r="15.62"/>
	<rect x="40.805" y="90.654" fill="#1B75BB" width="50.676" height="6.757"/>
	<rect x="56.263" y="55.006" fill="#FFFFFF" width="18.833" height="7.334"/>
	<g>
		
			<circle fill="none" stroke="#1B75BB" stroke-width="2" stroke-linecap="round" stroke-linejoin="round" stroke-miterlimit="2.414" cx="65.855" cy="75.109" r="13.651"/>
		<g>
			
				<circle fill="none" stroke="#1B75BB" stroke-width="2" stroke-linecap="round" stroke-linejoin="round" stroke-miterlimit="2.414" cx="65.854" cy="75.109" r="5.621"/>
		</g>
		<g>
			
				<circle fill="none" stroke="#1B75BB" stroke-width="1.5" stroke-linecap="round" stroke-linejoin="round" stroke-miterlimit="2.414" cx="65.854" cy="75.109" r="1.803"/>
		</g>
		<circle fill="#FFFFFF" cx="67.874" cy="76.701" r="0.759"/>
		<circle fill="#FFFFFF" cx="63.694" cy="76.655" r="0.759"/>
		<circle fill="#FFFFFF" cx="65.849" cy="72.542" r="0.759"/>
		<path fill="#1B75BB" d="M74.441,56.87c0,0.324-0.389,0.587-0.871,0.587H58.126c-0.481,0-0.87-0.263-0.87-0.587l0,0
			c0-0.325,0.389-0.588,0.87-0.588H73.57C74.053,56.282,74.441,56.545,74.441,56.87L74.441,56.87z"/>
		<rect x="59.018" y="57.311" fill="none" stroke="#1B75BB" stroke-miterlimit="10" width="13.662" height="4.96"/>
		
			<polyline fill="none" stroke="#1B75BB" stroke-width="2" stroke-linecap="round" stroke-linejoin="round" stroke-miterlimit="2.414" points="
			76.354,84.108 81.336,84.108 81.336,90.218 84.736,90.218 		"/>
		
			<polyline fill="none" stroke="#1B75BB" stroke-width="2" stroke-linecap="round" stroke-linejoin="round" stroke-miterlimit="2.414" points="
			55.359,84.108 50.379,84.108 50.379,90.218 46.977,90.218 		"/>
	</g>
	<rect x="60.096" y="50.173" fill="#FFFFFF" width="11.334" height="5.667"/>
	<path fill="none" stroke="#068E46" stroke-width="2.5" stroke-linejoin="round" d="M62.583,82.173L33.76,72.318l0.074,0.061
		c-6.582-1.914-11.393-7.992-11.393-15.192c0-8.736,7.084-15.817,15.818-15.817c4.202,0,8.022,1.64,10.856,4.313l21.91,23.683
		l-0.061-0.034c1.575,1.426,2.564,3.485,2.564,5.778c0,4.3-3.487,7.788-7.788,7.788c-1.294,0-2.513-0.315-3.587-0.874"/>
</g>
</svg>
