<?xml version="1.0" encoding="utf-8"?>
<!-- Generator: Adobe Illustrator 16.0.0, SVG Export Plug-In . SVG Version: 6.00 Build 0)  -->
<!DOCTYPE svg PUBLIC "-//W3C//DTD SVG 1.1//EN" "http://www.w3.org/Graphics/SVG/1.1/DTD/svg11.dtd">
<svg version="1.1" id="Layer_1" xmlns="http://www.w3.org/2000/svg" xmlns:xlink="http://www.w3.org/1999/xlink" x="0px" y="0px"
	 width="143.262px" height="113.25px" viewBox="0 0 143.262 113.25" enable-background="new 0 0 143.262 113.25"
	 xml:space="preserve">
<g>
	<g>
		
			<path fill="none" stroke="#1B75BB" stroke-width="2" stroke-linecap="round" stroke-linejoin="round" stroke-miterlimit="2.414" d="
			M36.887,65.317c4.2,21.676,24.461,34.971,46.139,30.766c18.937-3.703,34.037-19.889,33.713-39.133l-0.717-44.624L71.62,13.565
			l0.245,8.772C42.852,17.542,32.43,42.166,36.887,65.317z"/>
		
			<path fill="none" stroke="#1B75BB" stroke-width="2" stroke-linecap="round" stroke-linejoin="round" stroke-miterlimit="2.414" d="
			M45.546,63.237c0-1.381-0.077-2.545,0.015-3.693c0.354-4.455,2.463-7.78,6.521-9.757c3.145-1.533,6.48-1.809,9.852-1.051
			c1.959,0.438,3.847,1.203,5.758,1.817c-4.047-6.313-9.869-9.734-17.702-10.174c1.264-1.166,2.241-2.215,3.364-3.078
			c3.498-2.691,7.377-3.225,11.44-1.549c4.843,1.994,7.731,5.826,9.47,10.633c0.105,0.293,0.2,0.591,0.391,1.154
			c1.713-7.715-0.006-14.262-5.221-20.104c1.073,0,1.85-0.015,2.623,0.002c7.124,0.143,12.151,5.204,12.228,12.313
			c0.036,3.449-0.702,6.728-2.266,9.84c3.068-1.86,5.572-4.267,7.401-7.358c1.831-3.096,2.633-6.496,2.893-10.033
			c0.885,0.832,1.791,1.557,2.543,2.414c3.341,3.801,3.961,8.586,1.658,13.09c-2.156,4.215-5.687,6.846-10.068,8.432
			c-0.319,0.115-0.637,0.233-0.954,0.351c7.433,1.744,13.971,0.091,19.774-5.156c0,1.15,0.016,1.992-0.004,2.834
			c-0.133,6.236-3.904,10.667-10.046,11.8c-3.848,0.709-7.504,0.064-11.015-1.586c-0.34-0.158-0.686-0.309-1.028-0.465
			c-0.091,0.111-0.181,0.223-0.272,0.334c1.615,1.729,3.107,3.592,4.873,5.152c3.59,3.172,7.965,4.529,12.617,4.811
			c-0.828,0.916-1.537,1.891-2.428,2.652c-4.32,3.695-10.729,3.857-15.052,0.365c-2.913-2.354-5.078-5.283-6.338-8.844
			c-0.113-0.314-0.239-0.623-0.359-0.936c-1.743,7.439-0.071,13.973,5.124,19.709c-1.337,0-2.422,0.045-3.503-0.008
			c-5.499-0.264-10.237-4.377-11.106-9.814c-0.623-3.914-0.066-7.723,1.653-11.33c0.152-0.316,0.285-0.643,0.521-1.178
			c-6.578,4.23-10.01,10.043-10.434,17.914c-1.226-1.348-2.311-2.383-3.211-3.563c-1.921-2.516-2.719-5.367-2.197-8.535
			c0.614-3.756,2.654-6.639,5.53-8.996c1.994-1.639,4.285-2.736,7.048-3.592C57.909,56.319,51.336,58.054,45.546,63.237z"/>
		<g>
			
				<circle fill="#FFFFFF" stroke="#1B75BB" stroke-width="2" stroke-linecap="round" stroke-linejoin="round" stroke-miterlimit="2.414" cx="75.395" cy="57.302" r="13.652"/>
			
				<circle fill="none" stroke="#1B75BB" stroke-width="3" stroke-linecap="round" stroke-linejoin="round" stroke-miterlimit="2.414" cx="75.395" cy="57.302" r="3.859"/>
			<circle fill="#FFFFFF" cx="80.591" cy="57.1" r="1.356"/>
			<circle fill="#FFFFFF" cx="72.743" cy="61.962" r="1.357"/>
			<circle fill="#FFFFFF" cx="72.743" cy="52.74" r="1.357"/>
		</g>
	</g>
	<circle fill="#FFFFFF" cx="47.789" cy="74.96" r="15.62"/>
	<rect x="22.877" y="90.654" fill="#1B75BB" width="50.676" height="6.757"/>
	<rect x="38.336" y="55.006" fill="#FFFFFF" width="18.833" height="7.334"/>
	<g>
		
			<circle fill="none" stroke="#1B75BB" stroke-width="2" stroke-linecap="round" stroke-linejoin="round" stroke-miterlimit="2.414" cx="47.928" cy="75.109" r="13.651"/>
		<g>
			
				<circle fill="none" stroke="#1B75BB" stroke-width="2" stroke-linecap="round" stroke-linejoin="round" stroke-miterlimit="2.414" cx="47.928" cy="75.109" r="5.621"/>
		</g>
		<g>
			
				<circle fill="none" stroke="#1B75BB" stroke-width="1.5" stroke-linecap="round" stroke-linejoin="round" stroke-miterlimit="2.414" cx="47.928" cy="75.109" r="1.803"/>
		</g>
		<circle fill="#FFFFFF" cx="49.947" cy="76.701" r="0.759"/>
		<circle fill="#FFFFFF" cx="45.768" cy="76.655" r="0.759"/>
		<circle fill="#FFFFFF" cx="47.922" cy="72.542" r="0.759"/>
		<path fill="#1B75BB" d="M56.514,56.87c0,0.323-0.389,0.587-0.87,0.587H40.199c-0.481,0-0.871-0.264-0.871-0.587l0,0
			c0-0.325,0.389-0.588,0.871-0.588h15.444C56.126,56.282,56.514,56.545,56.514,56.87L56.514,56.87z"/>
		<rect x="41.091" y="57.311" fill="none" stroke="#1B75BB" stroke-miterlimit="10" width="13.661" height="4.961"/>
		
			<polyline fill="none" stroke="#1B75BB" stroke-width="2" stroke-linecap="round" stroke-linejoin="round" stroke-miterlimit="2.414" points="
			58.426,84.107 63.409,84.107 63.409,90.218 66.81,90.218 		"/>
		
			<polyline fill="none" stroke="#1B75BB" stroke-width="2" stroke-linecap="round" stroke-linejoin="round" stroke-miterlimit="2.414" points="
			37.433,84.107 32.452,84.107 32.452,90.218 29.05,90.218 		"/>
	</g>
	<rect x="42.169" y="50.173" fill="#FFFFFF" width="11.333" height="5.667"/>
	<path fill="none" stroke="#068E46" stroke-width="2.5" stroke-linejoin="round" d="M51.086,82.173l28.823-9.854l-0.074,0.062
		c6.582-1.914,11.393-7.991,11.393-15.192c0-8.735-7.084-15.816-15.817-15.816c-4.202,0-8.022,1.64-10.855,4.313L42.643,69.365
		l0.062-0.034c-1.575,1.426-2.565,3.485-2.565,5.778c0,4.3,3.488,7.787,7.789,7.787c1.293,0,2.513-0.314,3.586-0.873"/>
</g>
</svg>
