<?xml version="1.0" encoding="utf-8"?>
<!-- Generator: Adobe Illustrator 16.0.0, SVG Export Plug-In . SVG Version: 6.00 Build 0)  -->
<!DOCTYPE svg PUBLIC "-//W3C//DTD SVG 1.1//EN" "http://www.w3.org/Graphics/SVG/1.1/DTD/svg11.dtd">
<svg version="1.1" id="Layer_1" xmlns="http://www.w3.org/2000/svg" xmlns:xlink="http://www.w3.org/1999/xlink" x="0px" y="0px"
	 width="143.262px" height="113.25px" viewBox="-26.5 0 143.262 113.25" enable-background="new -26.5 0 143.262 113.25"
	 xml:space="preserve">
<g>
	<g>
		
			<path fill="none" stroke="#1B75BB" stroke-width="2" stroke-linecap="round" stroke-linejoin="round" stroke-miterlimit="2.414" d="
			M83.873,60.717l8.773,0.245l1.238-44.401l-44.623-0.717C30.017,15.52,13.831,30.62,10.128,49.557
			c-4.204,21.678,9.091,41.938,30.766,46.139C64.045,100.152,88.668,89.731,83.873,60.717z"/>
		
			<path fill-rule="evenodd" clip-rule="evenodd" fill="none" stroke="#1B75BB" stroke-width="2" stroke-linecap="round" stroke-linejoin="round" stroke-miterlimit="2.414" d="
			M48.156,66.943c-0.855,2.763-1.953,5.054-3.592,7.048c-2.358,2.876-5.24,4.916-8.996,5.531c-3.168,0.521-6.019-0.277-8.535-2.198
			c-1.179-0.9-2.215-1.985-3.563-3.211c7.872-0.423,13.685-3.855,17.915-10.434c-0.536,0.236-0.862,0.369-1.179,0.521
			c-3.607,1.72-7.416,2.277-11.33,1.653c-5.437-0.868-9.551-5.607-9.814-11.106c-0.052-1.081-0.008-2.166-0.008-3.503
			c5.736,5.196,12.269,6.867,19.71,5.124c-0.313-0.12-0.622-0.246-0.937-0.359c-3.559-1.26-6.489-3.425-8.842-6.338
			c-3.494-4.324-3.331-10.731,0.364-15.052c0.762-0.891,1.736-1.6,2.652-2.427c0.281,4.652,1.639,9.027,4.811,12.617
			c1.56,1.765,3.425,3.257,5.153,4.872c0.11-0.091,0.222-0.181,0.333-0.272c-0.155-0.343-0.306-0.688-0.465-1.028
			c-1.65-3.511-2.294-7.167-1.585-11.015c1.132-6.142,5.564-9.913,11.799-10.046c0.842-0.019,1.684-0.003,2.834-0.003
			c-5.246,5.803-6.899,12.341-5.155,19.774c0.117-0.318,0.235-0.635,0.35-0.954c1.586-4.382,4.217-7.912,8.432-10.069
			c4.504-2.302,9.289-1.682,13.09,1.659c0.857,0.752,1.582,1.658,2.414,2.542c-3.537,0.26-6.938,1.062-10.033,2.893
			c-3.092,1.829-5.498,4.333-7.359,7.402c3.113-1.564,6.391-2.302,9.84-2.266c7.109,0.076,12.17,5.104,12.313,12.228
			c0.016,0.773,0.002,1.549,0.002,2.623c-5.842-5.215-12.389-6.934-20.104-5.221c0.564,0.19,0.861,0.285,1.154,0.391
			c4.807,1.738,8.639,4.626,10.633,9.469c1.676,4.064,1.143,7.943-1.549,11.44c-0.863,1.123-1.912,2.101-3.078,3.365
			c-0.439-7.833-3.861-13.656-10.174-17.702c0.615,1.911,1.379,3.798,1.818,5.758c0.758,3.37,0.482,6.707-1.051,9.851
			c-1.977,4.059-5.303,6.167-9.757,6.521c-1.148,0.092-2.312,0.015-3.692,0.015C48.158,81.246,49.892,74.673,48.156,66.943z"/>
		<g>
			
				<circle fill="#FFFFFF" stroke="#1B75BB" stroke-width="2" stroke-linecap="round" stroke-linejoin="round" stroke-miterlimit="2.414" cx="48.909" cy="57.188" r="13.652"/>
			
				<circle fill="none" stroke="#1B75BB" stroke-width="3" stroke-linecap="round" stroke-linejoin="round" stroke-miterlimit="2.414" cx="48.909" cy="57.188" r="3.859"/>
			<circle fill="#FFFFFF" cx="49.112" cy="51.991" r="1.356"/>
			<circle fill="#FFFFFF" cx="44.25" cy="59.839" r="1.357"/>
			<circle fill="#FFFFFF" cx="53.471" cy="59.839" r="1.357"/>
		</g>
	</g>
	<circle fill="#FFFFFF" cx="21.288" cy="74.96" r="15.62"/>
	<rect x="-3.624" y="90.654" fill="#1B75BB" width="50.676" height="6.757"/>
	<rect x="11.835" y="55.006" fill="#FFFFFF" width="18.833" height="7.334"/>
	<g>
		
			<circle fill="none" stroke="#1B75BB" stroke-width="2" stroke-linecap="round" stroke-linejoin="round" stroke-miterlimit="2.414" cx="21.427" cy="75.109" r="13.651"/>
		<g>
			
				<circle fill="none" stroke="#1B75BB" stroke-width="2" stroke-linecap="round" stroke-linejoin="round" stroke-miterlimit="2.414" cx="21.427" cy="75.109" r="5.621"/>
		</g>
		<g>
			
				<circle fill="none" stroke="#1B75BB" stroke-width="1.5" stroke-linecap="round" stroke-linejoin="round" stroke-miterlimit="2.414" cx="21.427" cy="75.109" r="1.803"/>
		</g>
		<circle fill="#FFFFFF" cx="23.446" cy="76.701" r="0.759"/>
		<circle fill="#FFFFFF" cx="19.267" cy="76.655" r="0.759"/>
		<circle fill="#FFFFFF" cx="21.421" cy="72.542" r="0.759"/>
		<path fill="#1B75BB" d="M30.013,56.87c0,0.324-0.389,0.587-0.87,0.587H13.698c-0.481,0-0.871-0.263-0.871-0.587l0,0
			c0-0.325,0.389-0.588,0.871-0.588h15.445C29.625,56.282,30.013,56.545,30.013,56.87L30.013,56.87z"/>
		<rect x="14.59" y="57.311" fill="none" stroke="#1B75BB" stroke-miterlimit="10" width="13.661" height="4.96"/>
		
			<polyline fill="none" stroke="#1B75BB" stroke-width="2" stroke-linecap="round" stroke-linejoin="round" stroke-miterlimit="2.414" points="
			31.925,84.108 36.908,84.108 36.908,90.218 40.309,90.218 		"/>
		
			<polyline fill="none" stroke="#1B75BB" stroke-width="2" stroke-linecap="round" stroke-linejoin="round" stroke-miterlimit="2.414" points="
			10.932,84.108 5.951,84.108 5.951,90.218 2.549,90.218 		"/>
	</g>
	<rect x="15.668" y="50.173" fill="#FFFFFF" width="11.333" height="5.667"/>
	<path fill="none" stroke="#068E46" stroke-width="2.5" stroke-linejoin="round" d="M24.585,82.173l28.823-9.854l-0.074,0.061
		c6.582-1.914,11.393-7.992,11.393-15.192c0-8.736-7.084-15.817-15.818-15.817c-4.202,0-8.022,1.64-10.855,4.313L16.142,69.365
		l0.061-0.034c-1.575,1.426-2.565,3.485-2.565,5.778c0,4.3,3.488,7.788,7.789,7.788c1.293,0,2.513-0.315,3.586-0.874"/>
</g>
</svg>
