<?xml version="1.0" encoding="utf-8"?>
<!-- Generator: Adobe Illustrator 16.0.0, SVG Export Plug-In . SVG Version: 6.00 Build 0)  -->
<!DOCTYPE svg PUBLIC "-//W3C//DTD SVG 1.1//EN" "http://www.w3.org/Graphics/SVG/1.1/DTD/svg11.dtd">
<svg version="1.1" id="Layer_1" xmlns="http://www.w3.org/2000/svg" xmlns:xlink="http://www.w3.org/1999/xlink" x="0px" y="0px"
	 width="143.262px" height="113.25px" viewBox="0 0 143.262 113.25" enable-background="new 0 0 143.262 113.25"
	 xml:space="preserve">
<g>
	<g>
		
			<path fill="none" stroke="#1B75BB" stroke-width="2" stroke-linecap="round" stroke-linejoin="round" stroke-miterlimit="2.414" d="
			M82.145,18.913c-21.675,4.2-34.97,24.461-30.766,46.139c3.702,18.937,19.888,34.036,39.135,33.713l44.623-0.717l-1.239-44.401
			l-8.772,0.245C129.92,24.876,105.298,14.456,82.145,18.913z"/>
		
			<path fill="none" stroke="#1B75BB" stroke-width="2" stroke-linecap="round" stroke-linejoin="round" stroke-miterlimit="2.414" d="
			M84.228,27.571c1.38,0,2.544-0.076,3.692,0.016c4.456,0.354,7.78,2.461,9.758,6.521c1.533,3.144,1.809,6.481,1.052,9.851
			c-0.439,1.961-1.203,3.848-1.817,5.759c6.313-4.046,9.734-9.869,10.173-17.702c1.167,1.264,2.216,2.242,3.079,3.365
			c2.691,3.496,3.224,7.375,1.549,11.439c-1.995,4.844-5.827,7.731-10.634,9.469c-0.293,0.106-0.59,0.201-1.154,0.392
			c7.714,1.713,14.262-0.007,20.104-5.222c0,1.074,0.015,1.851-0.002,2.623c-0.143,7.124-5.204,12.152-12.313,12.229
			c-3.45,0.036-6.728-0.702-9.841-2.267c1.861,3.069,4.267,5.573,7.359,7.402c3.096,1.831,6.495,2.633,10.033,2.893
			c-0.832,0.885-1.557,1.79-2.414,2.542c-3.802,3.342-8.587,3.962-13.09,1.659c-4.215-2.157-6.847-5.687-8.433-10.068
			c-0.115-0.319-0.233-0.637-0.351-0.954c-1.745,7.433-0.091,13.971,5.154,19.773c-1.149,0-1.991,0.017-2.833-0.003
			c-6.237-0.133-10.669-3.903-11.801-10.046c-0.709-3.848-0.065-7.504,1.585-11.015c0.159-0.34,0.31-0.686,0.465-1.028
			c-0.111-0.091-0.223-0.181-0.333-0.271c-1.729,1.614-3.593,3.106-5.153,4.871c-3.172,3.591-4.53,7.966-4.811,12.617
			c-0.916-0.827-1.891-1.536-2.652-2.427c-3.695-4.321-3.858-10.728-0.364-15.052c2.354-2.913,5.283-5.078,8.843-6.338
			c0.314-0.113,0.624-0.239,0.937-0.359c-7.441-1.742-13.974-0.072-19.71,5.124c0-1.337-0.044-2.422,0.008-3.503
			c0.264-5.499,4.377-10.238,9.814-11.105c3.914-0.625,7.723-0.067,11.33,1.652c0.316,0.152,0.643,0.285,1.179,0.521
			c-4.23-6.579-10.043-10.012-17.915-10.434c1.348-1.227,2.384-2.312,3.563-3.211c2.517-1.922,5.367-2.72,8.535-2.199
			c3.756,0.615,6.639,2.656,8.996,5.531c1.64,1.994,2.737,4.285,3.592,7.049C91.145,39.936,89.408,33.362,84.228,27.571z"/>
		<g>
			
				<circle fill="#FFFFFF" stroke="#1B75BB" stroke-width="2" stroke-linecap="round" stroke-linejoin="round" stroke-miterlimit="2.414" cx="90.16" cy="57.421" r="13.652"/>
			
				<circle fill="none" stroke="#1B75BB" stroke-width="3" stroke-linecap="round" stroke-linejoin="round" stroke-miterlimit="2.414" cx="90.16" cy="57.421" r="3.859"/>
			<circle fill="#FFFFFF" cx="90.364" cy="62.617" r="1.356"/>
			<circle fill="#FFFFFF" cx="85.501" cy="54.77" r="1.357"/>
			<circle fill="#FFFFFF" cx="94.723" cy="54.77" r="1.357"/>
		</g>
	</g>
	<g>
		
			<circle fill="none" stroke="#1B75BB" stroke-width="2" stroke-linecap="round" stroke-linejoin="round" stroke-miterlimit="2.414" cx="32.928" cy="75.11" r="13.651"/>
		<g>
			
				<circle fill="none" stroke="#1B75BB" stroke-width="2" stroke-linecap="round" stroke-linejoin="round" stroke-miterlimit="2.414" cx="32.927" cy="75.109" r="5.621"/>
		</g>
		<g>
			
				<circle fill="none" stroke="#1B75BB" stroke-width="1.5" stroke-linecap="round" stroke-linejoin="round" stroke-miterlimit="2.414" cx="32.927" cy="75.11" r="1.803"/>
		</g>
		<circle fill="#FFFFFF" cx="34.946" cy="76.701" r="0.759"/>
		<circle fill="#FFFFFF" cx="30.767" cy="76.655" r="0.759"/>
		<circle fill="#FFFFFF" cx="32.922" cy="72.542" r="0.759"/>
		<path fill="#1B75BB" d="M41.514,56.87c0,0.323-0.389,0.587-0.871,0.587H25.198c-0.48,0-0.87-0.264-0.87-0.587l0,0
			c0-0.325,0.389-0.589,0.87-0.589h15.445C41.125,56.281,41.514,56.545,41.514,56.87L41.514,56.87z"/>
		<rect x="26.091" y="57.311" fill="none" stroke="#1B75BB" stroke-miterlimit="10" width="13.661" height="4.961"/>
		
			<polyline fill="none" stroke="#1B75BB" stroke-width="2" stroke-linecap="round" stroke-linejoin="round" stroke-miterlimit="2.414" points="
			43.426,84.109 48.407,84.109 48.407,90.218 51.81,90.218 		"/>
		
			<polyline fill="none" stroke="#1B75BB" stroke-width="2" stroke-linecap="round" stroke-linejoin="round" stroke-miterlimit="2.414" points="
			22.433,84.109 17.451,84.109 17.451,90.218 14.049,90.218 		"/>
	</g>
	<path fill="none" stroke="#068E46" stroke-width="2.5" stroke-linejoin="round" d="M93.425,73.107l-60.078,9.832l0.05,0.006
		c-1.209,0.035-2.444-0.213-3.608-0.78c-3.846-1.872-5.444-6.511-3.57-10.354c0.855-1.757,2.288-3.044,3.958-3.746l-0.045-0.017
		l54.241-25.822l-0.229,0.094c4.037-1.56,8.688-1.5,12.884,0.545c8.008,3.9,11.336,13.554,7.435,21.563
		c-2.289,4.698-6.557,7.786-11.311,8.749"/>
	<rect x="7.877" y="90.654" fill="#1B75BB" width="50.676" height="6.757"/>
</g>
</svg>
