<?xml version="1.0" encoding="utf-8"?>
<!-- Generator: Adobe Illustrator 16.0.0, SVG Export Plug-In . SVG Version: 6.00 Build 0)  -->
<!DOCTYPE svg PUBLIC "-//W3C//DTD SVG 1.1//EN" "http://www.w3.org/Graphics/SVG/1.1/DTD/svg11.dtd">
<svg version="1.1" id="Layer_1" xmlns="http://www.w3.org/2000/svg" xmlns:xlink="http://www.w3.org/1999/xlink" x="0px" y="0px"
	 width="100px" height="100px" viewBox="0 0 100 100" enable-background="new 0 0 100 100" xml:space="preserve">
<g>
	<g>
		<path fill="none" stroke="#2175BB" stroke-width="1.755" d="M66.027,15.758l0.773,0.51h1.348l0.58,0.546v33.23l-2.689,0.639v13.41
			L28.07,64.261l-0.615,1.533h-2.891l3.378-0.012L27.92,50.925c0,0-0.581,0.012-0.813,0.012c-1.032-0.068-1.624-0.43-1.624-0.592
			s0.015-32.417,0.015-32.417s0.109-1.272,0.752-1.272c0.644,0,1.229-0.017,1.229-0.017V7.98l38.549-0.015V15.758z"/>
		<rect x="68.643" y="29.616" fill="#2175BB" width="5.971" height="8.531"/>
		<rect x="19.779" y="29.887" fill="#2175BB" width="5.653" height="8.499"/>
		
			<rect x="16.605" y="32.373" fill="none" stroke="#2175BB" stroke-width="1.17" stroke-linecap="round" stroke-linejoin="round" width="3.93" height="3.554"/>
		
			<rect x="69.922" y="31.967" fill="none" stroke="#2175BB" stroke-width="1.462" stroke-linecap="round" stroke-linejoin="round" width="13.473" height="3.631"/>
		<path fill="none" stroke="#2175BB" stroke-width="1.17" d="M66.217,36.032H28.076 M66.393,16.372v34.414 M27.767,16.831v33.955"/>
		
			<rect x="31.05" y="38.851" fill="none" stroke="#2175BB" stroke-width="1.755" stroke-linecap="round" stroke-linejoin="round" width="31.392" height="22.779"/>
		
			<rect x="34.745" y="40.88" fill="none" stroke="#2175BB" stroke-width="1.17" stroke-linecap="round" stroke-linejoin="round" width="23.54" height="10.625"/>
		<path fill="none" stroke="#2175BB" stroke-width="0.877" stroke-linecap="round" stroke-linejoin="round" d="M58.182,50.228
			H34.737 M58.182,48.511H34.737 M58.182,45.782H34.737 M58.182,43.358H34.737"/>
		<path fill="none" stroke="#2175BB" stroke-width="1.17" stroke-linecap="round" stroke-linejoin="round" d="M32.67,49.06
			l2.115-1.598 M58.285,41.56v-1.051 M34.745,41.56v-0.928"/>
		<line fill="none" stroke="#2175BB" stroke-width="1.17" x1="26.878" y1="50.845" x2="27.847" y2="51.884"/>
		<polyline fill="none" stroke="#2175BB" stroke-width="1.755" points="66.365,56.919 66.398,65.388 69.578,65.399 		"/>
		
			<line fill="none" stroke="#2175BB" stroke-width="1.17" stroke-linecap="round" stroke-linejoin="round" x1="60.898" y1="48.659" x2="58.467" y2="46.657"/>
		
			<line fill="none" stroke="#2175BB" stroke-width="0.877" stroke-linecap="round" stroke-linejoin="round" x1="46.35" y1="51.44" x2="46.35" y2="40.626"/>
	</g>
	<g>
		<rect x="78.49" y="73.513" fill="#068E46" width="0.24" height="0.24"/>
		<rect x="78.49" y="74.241" fill="#068E46" width="0.24" height="0.242"/>
		<rect x="79.441" y="73.513" fill="#068E46" width="0.24" height="0.24"/>
		<rect x="79.441" y="74.241" fill="#068E46" width="0.24" height="0.242"/>
		<rect x="79.924" y="73.876" fill="#068E46" width="0.242" height="0.244"/>
		<rect x="78.967" y="74.718" fill="#068E46" width="0.242" height="0.242"/>
		<rect x="78.49" y="75.081" fill="#068E46" width="0.24" height="0.244"/>
		<rect x="79.441" y="75.081" fill="#068E46" width="0.24" height="0.244"/>
		<rect x="79.924" y="74.718" fill="#068E46" width="0.242" height="0.242"/>
		<rect x="78.967" y="72.183" fill="#068E46" width="0.242" height="0.244"/>
		<rect x="78.49" y="71.819" fill="#068E46" width="0.24" height="0.242"/>
		<rect x="78.49" y="72.548" fill="#068E46" width="0.24" height="0.244"/>
		<rect x="79.441" y="71.819" fill="#068E46" width="0.24" height="0.242"/>
		<rect x="79.441" y="72.548" fill="#068E46" width="0.24" height="0.244"/>
		<rect x="78.967" y="73.876" fill="#068E46" width="0.242" height="0.244"/>
		<rect x="79.924" y="72.183" fill="#068E46" width="0.242" height="0.244"/>
		<rect x="78.967" y="73.024" fill="#068E46" width="0.242" height="0.242"/>
		<rect x="79.924" y="73.024" fill="#068E46" width="0.242" height="0.242"/>
		<rect x="78.967" y="77.155" fill="#068E46" width="0.242" height="0.242"/>
		<rect x="78.49" y="76.79" fill="#068E46" width="0.24" height="0.242"/>
		<rect x="78.49" y="77.519" fill="#068E46" width="0.24" height="0.244"/>
		<rect x="79.441" y="76.79" fill="#068E46" width="0.24" height="0.242"/>
		<rect x="79.441" y="77.519" fill="#068E46" width="0.24" height="0.244"/>
		<rect x="79.924" y="77.155" fill="#068E46" width="0.242" height="0.242"/>
		<rect x="78.967" y="77.997" fill="#068E46" width="0.242" height="0.24"/>
		<rect x="78.49" y="78.36" fill="#068E46" width="0.24" height="0.242"/>
		<rect x="79.441" y="78.36" fill="#068E46" width="0.24" height="0.242"/>
		<rect x="79.924" y="77.997" fill="#068E46" width="0.242" height="0.24"/>
		<rect x="78.967" y="75.462" fill="#068E46" width="0.242" height="0.242"/>
		<rect x="78.49" y="75.825" fill="#068E46" width="0.24" height="0.242"/>
		<rect x="79.441" y="75.825" fill="#068E46" width="0.24" height="0.242"/>
		<rect x="79.924" y="75.462" fill="#068E46" width="0.242" height="0.242"/>
		<rect x="78.967" y="76.302" fill="#068E46" width="0.242" height="0.242"/>
		<rect x="79.924" y="76.302" fill="#068E46" width="0.242" height="0.242"/>
		<rect x="77.027" y="73.876" fill="#068E46" width="0.242" height="0.244"/>
		<rect x="77.502" y="73.513" fill="#068E46" width="0.24" height="0.24"/>
		<rect x="77.502" y="74.241" fill="#068E46" width="0.24" height="0.242"/>
		<rect x="77.984" y="73.876" fill="#068E46" width="0.242" height="0.244"/>
		<rect x="77.027" y="74.718" fill="#068E46" width="0.242" height="0.242"/>
		<rect x="77.502" y="75.081" fill="#068E46" width="0.24" height="0.244"/>
		<rect x="77.984" y="74.718" fill="#068E46" width="0.242" height="0.242"/>
		<rect x="77.027" y="72.183" fill="#068E46" width="0.242" height="0.244"/>
		<rect x="77.502" y="71.819" fill="#068E46" width="0.24" height="0.242"/>
		<rect x="77.502" y="72.548" fill="#068E46" width="0.24" height="0.244"/>
		<rect x="77.984" y="72.183" fill="#068E46" width="0.242" height="0.244"/>
		<rect x="77.027" y="73.024" fill="#068E46" width="0.242" height="0.242"/>
		<rect x="77.984" y="73.024" fill="#068E46" width="0.242" height="0.242"/>
		<rect x="77.027" y="77.155" fill="#068E46" width="0.242" height="0.242"/>
		<rect x="77.502" y="76.79" fill="#068E46" width="0.24" height="0.242"/>
		<rect x="77.502" y="77.519" fill="#068E46" width="0.24" height="0.244"/>
		<rect x="77.984" y="77.155" fill="#068E46" width="0.242" height="0.242"/>
		<rect x="74.627" y="78.36" fill="#068E46" width="0.242" height="0.242"/>
		<rect x="77.027" y="77.997" fill="#068E46" width="0.242" height="0.24"/>
		<rect x="77.502" y="78.36" fill="#068E46" width="0.24" height="0.242"/>
		<rect x="77.984" y="77.997" fill="#068E46" width="0.242" height="0.24"/>
		<rect x="77.027" y="75.462" fill="#068E46" width="0.242" height="0.242"/>
		<rect x="77.502" y="75.825" fill="#068E46" width="0.24" height="0.242"/>
		<rect x="77.984" y="75.462" fill="#068E46" width="0.242" height="0.242"/>
		<rect x="77.027" y="76.302" fill="#068E46" width="0.242" height="0.242"/>
		<rect x="77.984" y="76.302" fill="#068E46" width="0.242" height="0.242"/>
		<rect x="78.967" y="80.526" fill="#068E46" width="0.242" height="0.242"/>
		<rect x="78.49" y="80.161" fill="#068E46" width="0.24" height="0.242"/>
		<rect x="78.49" y="80.892" fill="#068E46" width="0.24" height="0.242"/>
		<rect x="79.441" y="80.161" fill="#068E46" width="0.24" height="0.242"/>
		<rect x="79.441" y="80.892" fill="#068E46" width="0.24" height="0.242"/>
		<rect x="79.924" y="80.526" fill="#068E46" width="0.242" height="0.242"/>
		<rect x="78.967" y="81.368" fill="#068E46" width="0.242" height="0.242"/>
		<rect x="78.49" y="81.731" fill="#068E46" width="0.24" height="0.244"/>
		<rect x="79.441" y="81.731" fill="#068E46" width="0.24" height="0.244"/>
		<rect x="79.924" y="81.368" fill="#068E46" width="0.242" height="0.242"/>
		<rect x="78.967" y="78.833" fill="#068E46" width="0.242" height="0.244"/>
		<rect x="78.49" y="79.198" fill="#068E46" width="0.24" height="0.244"/>
		<rect x="79.441" y="79.198" fill="#068E46" width="0.24" height="0.244"/>
		<rect x="79.924" y="78.833" fill="#068E46" width="0.242" height="0.244"/>
		<rect x="78.967" y="79.675" fill="#068E46" width="0.242" height="0.24"/>
		<rect x="79.924" y="79.675" fill="#068E46" width="0.242" height="0.24"/>
		<rect x="78.967" y="83.804" fill="#068E46" width="0.242" height="0.242"/>
		<rect x="78.49" y="83.44" fill="#068E46" width="0.24" height="0.24"/>
		<rect x="78.49" y="84.169" fill="#068E46" width="0.24" height="0.244"/>
		<rect x="79.441" y="83.44" fill="#068E46" width="0.24" height="0.24"/>
		<rect x="79.441" y="84.169" fill="#068E46" width="0.24" height="0.244"/>
		<rect x="79.924" y="83.804" fill="#068E46" width="0.242" height="0.242"/>
		<rect x="78.967" y="84.646" fill="#068E46" width="0.242" height="0.242"/>
		<rect x="79.924" y="84.646" fill="#068E46" width="0.242" height="0.242"/>
		<rect x="78.967" y="82.112" fill="#068E46" width="0.242" height="0.24"/>
		<rect x="78.49" y="82.476" fill="#068E46" width="0.24" height="0.242"/>
		<rect x="79.441" y="82.476" fill="#068E46" width="0.24" height="0.242"/>
		<rect x="79.924" y="82.112" fill="#068E46" width="0.242" height="0.24"/>
		<rect x="78.967" y="82.952" fill="#068E46" width="0.242" height="0.242"/>
		<rect x="79.924" y="82.952" fill="#068E46" width="0.242" height="0.242"/>
		<rect x="75.105" y="80.526" fill="#068E46" width="0.242" height="0.242"/>
		<rect x="74.627" y="80.161" fill="#068E46" width="0.242" height="0.242"/>
		<rect x="74.627" y="80.892" fill="#068E46" width="0.242" height="0.242"/>
		<rect x="75.578" y="80.161" fill="#068E46" width="0.242" height="0.242"/>
		<rect x="75.578" y="80.892" fill="#068E46" width="0.242" height="0.242"/>
		<rect x="76.061" y="80.526" fill="#068E46" width="0.242" height="0.242"/>
		<rect x="76.533" y="80.161" fill="#068E46" width="0.242" height="0.242"/>
		<rect x="76.533" y="80.892" fill="#068E46" width="0.242" height="0.242"/>
		<rect x="77.027" y="80.526" fill="#068E46" width="0.242" height="0.242"/>
		<rect x="77.502" y="80.161" fill="#068E46" width="0.24" height="0.242"/>
		<rect x="77.502" y="80.892" fill="#068E46" width="0.24" height="0.242"/>
		<rect x="77.984" y="80.526" fill="#068E46" width="0.242" height="0.242"/>
		<rect x="75.105" y="81.368" fill="#068E46" width="0.242" height="0.242"/>
		<rect x="74.627" y="81.731" fill="#068E46" width="0.242" height="0.244"/>
		<rect x="75.578" y="81.731" fill="#068E46" width="0.242" height="0.244"/>
		<rect x="76.061" y="81.368" fill="#068E46" width="0.242" height="0.242"/>
		<rect x="76.533" y="81.731" fill="#068E46" width="0.242" height="0.244"/>
		<rect x="77.027" y="81.368" fill="#068E46" width="0.242" height="0.242"/>
		<rect x="77.502" y="81.731" fill="#068E46" width="0.24" height="0.244"/>
		<rect x="77.984" y="81.368" fill="#068E46" width="0.242" height="0.242"/>
		<rect x="74.627" y="79.198" fill="#068E46" width="0.242" height="0.244"/>
		<rect x="75.578" y="79.198" fill="#068E46" width="0.242" height="0.244"/>
		<rect x="76.533" y="79.198" fill="#068E46" width="0.242" height="0.244"/>
		<rect x="77.027" y="78.833" fill="#068E46" width="0.242" height="0.244"/>
		<rect x="77.502" y="79.198" fill="#068E46" width="0.24" height="0.244"/>
		<rect x="77.984" y="78.833" fill="#068E46" width="0.242" height="0.244"/>
		<rect x="75.105" y="79.675" fill="#068E46" width="0.242" height="0.24"/>
		<rect x="76.061" y="79.675" fill="#068E46" width="0.242" height="0.24"/>
		<rect x="77.027" y="79.675" fill="#068E46" width="0.242" height="0.24"/>
		<rect x="77.984" y="79.675" fill="#068E46" width="0.242" height="0.24"/>
		<rect x="74.627" y="83.44" fill="#068E46" width="0.242" height="0.24"/>
		<rect x="74.627" y="84.169" fill="#068E46" width="0.242" height="0.244"/>
		<rect x="77.027" y="83.804" fill="#068E46" width="0.242" height="0.242"/>
		<rect x="77.502" y="83.44" fill="#068E46" width="0.24" height="0.24"/>
		<rect x="77.502" y="84.169" fill="#068E46" width="0.24" height="0.244"/>
		<rect x="77.984" y="83.804" fill="#068E46" width="0.242" height="0.242"/>
		<rect x="75.105" y="82.112" fill="#068E46" width="0.242" height="0.24"/>
		<rect x="74.627" y="82.476" fill="#068E46" width="0.242" height="0.242"/>
		<rect x="76.061" y="82.112" fill="#068E46" width="0.242" height="0.24"/>
		<rect x="77.027" y="82.112" fill="#068E46" width="0.242" height="0.24"/>
		<rect x="77.502" y="82.476" fill="#068E46" width="0.24" height="0.242"/>
		<rect x="77.984" y="82.112" fill="#068E46" width="0.242" height="0.24"/>
		<rect x="77.027" y="82.952" fill="#068E46" width="0.242" height="0.242"/>
		<rect x="77.984" y="82.952" fill="#068E46" width="0.242" height="0.242"/>
		<rect x="78.967" y="60.577" fill="#068E46" width="0.242" height="0.242"/>
		<rect x="78.49" y="60.213" fill="#068E46" width="0.24" height="0.241"/>
		<rect x="78.49" y="60.942" fill="#068E46" width="0.24" height="0.242"/>
		<rect x="79.441" y="60.213" fill="#068E46" width="0.24" height="0.241"/>
		<rect x="79.441" y="60.942" fill="#068E46" width="0.24" height="0.242"/>
		<rect x="79.924" y="60.577" fill="#068E46" width="0.242" height="0.242"/>
		<rect x="78.967" y="61.418" fill="#068E46" width="0.242" height="0.241"/>
		<rect x="78.49" y="61.782" fill="#068E46" width="0.24" height="0.242"/>
		<rect x="79.441" y="61.782" fill="#068E46" width="0.24" height="0.242"/>
		<rect x="79.924" y="61.418" fill="#068E46" width="0.242" height="0.241"/>
		<rect x="78.967" y="58.883" fill="#068E46" width="0.242" height="0.243"/>
		<rect x="78.49" y="58.52" fill="#068E46" width="0.24" height="0.241"/>
		<rect x="78.49" y="59.248" fill="#068E46" width="0.24" height="0.243"/>
		<rect x="79.441" y="58.52" fill="#068E46" width="0.24" height="0.241"/>
		<rect x="79.441" y="59.248" fill="#068E46" width="0.24" height="0.243"/>
		<rect x="79.924" y="58.883" fill="#068E46" width="0.242" height="0.243"/>
		<rect x="78.967" y="59.725" fill="#068E46" width="0.242" height="0.242"/>
		<rect x="79.924" y="59.725" fill="#068E46" width="0.242" height="0.242"/>
		<rect x="78.967" y="63.854" fill="#068E46" width="0.242" height="0.242"/>
		<rect x="78.49" y="63.489" fill="#068E46" width="0.24" height="0.242"/>
		<rect x="78.49" y="64.22" fill="#068E46" width="0.24" height="0.242"/>
		<rect x="79.441" y="63.489" fill="#068E46" width="0.24" height="0.242"/>
		<rect x="79.441" y="64.22" fill="#068E46" width="0.24" height="0.242"/>
		<rect x="79.924" y="63.854" fill="#068E46" width="0.242" height="0.242"/>
		<rect x="80.396" y="64.22" fill="#068E46" width="0.242" height="0.242"/>
		<rect x="78.967" y="64.696" fill="#068E46" width="0.242" height="0.242"/>
		<rect x="78.49" y="65.062" fill="#068E46" width="0.24" height="0.24"/>
		<rect x="79.441" y="65.062" fill="#068E46" width="0.24" height="0.24"/>
		<rect x="79.924" y="64.696" fill="#068E46" width="0.242" height="0.242"/>
		<rect x="78.967" y="62.163" fill="#068E46" width="0.242" height="0.24"/>
		<rect x="78.49" y="62.526" fill="#068E46" width="0.24" height="0.242"/>
		<rect x="79.441" y="62.526" fill="#068E46" width="0.24" height="0.242"/>
		<rect x="79.924" y="62.163" fill="#068E46" width="0.242" height="0.24"/>
		<rect x="78.967" y="63.003" fill="#068E46" width="0.242" height="0.242"/>
		<rect x="79.924" y="63.003" fill="#068E46" width="0.242" height="0.242"/>
		<rect x="77.027" y="60.577" fill="#068E46" width="0.242" height="0.242"/>
		<rect x="77.502" y="60.213" fill="#068E46" width="0.24" height="0.241"/>
		<rect x="77.502" y="60.942" fill="#068E46" width="0.24" height="0.242"/>
		<rect x="77.984" y="60.577" fill="#068E46" width="0.242" height="0.242"/>
		<rect x="77.027" y="61.418" fill="#068E46" width="0.242" height="0.241"/>
		<rect x="77.502" y="61.782" fill="#068E46" width="0.24" height="0.242"/>
		<rect x="77.984" y="61.418" fill="#068E46" width="0.242" height="0.241"/>
		<rect x="77.027" y="58.883" fill="#068E46" width="0.242" height="0.243"/>
		<rect x="77.502" y="58.52" fill="#068E46" width="0.24" height="0.241"/>
		<rect x="77.502" y="59.248" fill="#068E46" width="0.24" height="0.243"/>
		<rect x="77.984" y="58.883" fill="#068E46" width="0.242" height="0.243"/>
		<rect x="77.027" y="59.725" fill="#068E46" width="0.242" height="0.242"/>
		<rect x="77.984" y="59.725" fill="#068E46" width="0.242" height="0.242"/>
		<rect x="77.027" y="63.854" fill="#068E46" width="0.242" height="0.242"/>
		<rect x="77.502" y="63.489" fill="#068E46" width="0.24" height="0.242"/>
		<rect x="77.502" y="64.22" fill="#068E46" width="0.24" height="0.242"/>
		<rect x="77.984" y="63.854" fill="#068E46" width="0.242" height="0.242"/>
		<rect x="77.027" y="64.696" fill="#068E46" width="0.242" height="0.242"/>
		<rect x="77.502" y="65.062" fill="#068E46" width="0.24" height="0.24"/>
		<rect x="77.984" y="64.696" fill="#068E46" width="0.242" height="0.242"/>
		<rect x="77.027" y="62.163" fill="#068E46" width="0.242" height="0.24"/>
		<rect x="77.502" y="62.526" fill="#068E46" width="0.24" height="0.242"/>
		<rect x="77.984" y="62.163" fill="#068E46" width="0.242" height="0.24"/>
		<rect x="77.027" y="63.003" fill="#068E46" width="0.242" height="0.242"/>
		<rect x="77.984" y="63.003" fill="#068E46" width="0.242" height="0.242"/>
		<rect x="78.967" y="67.228" fill="#068E46" width="0.242" height="0.242"/>
		<rect x="78.49" y="66.862" fill="#068E46" width="0.24" height="0.242"/>
		<rect x="78.49" y="67.593" fill="#068E46" width="0.24" height="0.242"/>
		<rect x="79.441" y="66.862" fill="#068E46" width="0.24" height="0.242"/>
		<rect x="79.441" y="67.593" fill="#068E46" width="0.24" height="0.242"/>
		<rect x="79.924" y="67.228" fill="#068E46" width="0.242" height="0.242"/>
		<rect x="78.967" y="68.067" fill="#068E46" width="0.242" height="0.242"/>
		<rect x="78.49" y="68.433" fill="#068E46" width="0.24" height="0.242"/>
		<rect x="79.441" y="68.433" fill="#068E46" width="0.24" height="0.242"/>
		<rect x="79.924" y="68.067" fill="#068E46" width="0.242" height="0.242"/>
		<rect x="78.967" y="65.532" fill="#068E46" width="0.242" height="0.244"/>
		<rect x="78.49" y="65.899" fill="#068E46" width="0.24" height="0.242"/>
		<rect x="79.441" y="65.899" fill="#068E46" width="0.24" height="0.242"/>
		<rect x="79.924" y="65.532" fill="#068E46" width="0.242" height="0.244"/>
		<rect x="78.967" y="66.374" fill="#068E46" width="0.242" height="0.242"/>
		<rect x="79.924" y="66.374" fill="#068E46" width="0.242" height="0.242"/>
		<rect x="78.967" y="70.505" fill="#068E46" width="0.242" height="0.242"/>
		<rect x="78.49" y="70.14" fill="#068E46" width="0.24" height="0.242"/>
		<rect x="78.49" y="70.87" fill="#068E46" width="0.24" height="0.242"/>
		<rect x="79.441" y="70.14" fill="#068E46" width="0.24" height="0.242"/>
		<rect x="79.441" y="70.87" fill="#068E46" width="0.24" height="0.242"/>
		<rect x="79.924" y="70.505" fill="#068E46" width="0.242" height="0.242"/>
		<rect x="78.967" y="71.345" fill="#068E46" width="0.242" height="0.242"/>
		<rect x="79.924" y="71.345" fill="#068E46" width="0.242" height="0.242"/>
		<rect x="78.967" y="68.812" fill="#068E46" width="0.242" height="0.242"/>
		<rect x="78.49" y="69.177" fill="#068E46" width="0.24" height="0.242"/>
		<rect x="79.441" y="69.177" fill="#068E46" width="0.24" height="0.242"/>
		<rect x="79.924" y="68.812" fill="#068E46" width="0.242" height="0.242"/>
		<rect x="78.967" y="69.651" fill="#068E46" width="0.242" height="0.242"/>
		<rect x="79.924" y="69.651" fill="#068E46" width="0.242" height="0.242"/>
		<rect x="77.027" y="67.228" fill="#068E46" width="0.242" height="0.242"/>
		<rect x="77.502" y="66.862" fill="#068E46" width="0.24" height="0.242"/>
		<rect x="77.502" y="67.593" fill="#068E46" width="0.24" height="0.242"/>
		<rect x="77.984" y="67.228" fill="#068E46" width="0.242" height="0.242"/>
		<rect x="77.027" y="68.067" fill="#068E46" width="0.242" height="0.242"/>
		<rect x="77.502" y="68.433" fill="#068E46" width="0.24" height="0.242"/>
		<rect x="77.984" y="68.067" fill="#068E46" width="0.242" height="0.242"/>
		<rect x="77.027" y="65.532" fill="#068E46" width="0.242" height="0.244"/>
		<rect x="77.502" y="65.899" fill="#068E46" width="0.24" height="0.242"/>
		<rect x="77.984" y="65.532" fill="#068E46" width="0.242" height="0.244"/>
		<rect x="77.027" y="66.374" fill="#068E46" width="0.242" height="0.242"/>
		<rect x="77.984" y="66.374" fill="#068E46" width="0.242" height="0.242"/>
		<rect x="77.027" y="70.505" fill="#068E46" width="0.242" height="0.242"/>
		<rect x="77.502" y="70.14" fill="#068E46" width="0.24" height="0.242"/>
		<rect x="77.502" y="70.87" fill="#068E46" width="0.24" height="0.242"/>
		<rect x="77.984" y="70.505" fill="#068E46" width="0.242" height="0.242"/>
		<rect x="77.027" y="71.345" fill="#068E46" width="0.242" height="0.242"/>
		<rect x="77.984" y="71.345" fill="#068E46" width="0.242" height="0.242"/>
		<rect x="77.027" y="68.812" fill="#068E46" width="0.242" height="0.242"/>
		<rect x="77.502" y="69.177" fill="#068E46" width="0.24" height="0.242"/>
		<rect x="77.984" y="68.812" fill="#068E46" width="0.242" height="0.242"/>
		<rect x="77.027" y="69.651" fill="#068E46" width="0.242" height="0.242"/>
		<rect x="77.984" y="69.651" fill="#068E46" width="0.242" height="0.242"/>
		<rect x="77.021" y="57.284" fill="#068E46" width="0.242" height="0.244"/>
		<rect x="77.494" y="56.921" fill="#068E46" width="0.242" height="0.242"/>
		<rect x="77.494" y="57.651" fill="#068E46" width="0.242" height="0.241"/>
		<rect x="77.979" y="57.284" fill="#068E46" width="0.242" height="0.244"/>
		<rect x="78.451" y="56.921" fill="#068E46" width="0.242" height="0.242"/>
		<rect x="78.451" y="57.651" fill="#068E46" width="0.242" height="0.241"/>
		<rect x="78.945" y="57.284" fill="#068E46" width="0.24" height="0.244"/>
		<rect x="79.416" y="56.921" fill="#068E46" width="0.242" height="0.242"/>
		<rect x="79.416" y="57.651" fill="#068E46" width="0.242" height="0.241"/>
		<rect x="79.9" y="57.284" fill="#068E46" width="0.242" height="0.244"/>
		<rect x="77.021" y="58.126" fill="#068E46" width="0.242" height="0.242"/>
		<rect x="77.979" y="58.126" fill="#068E46" width="0.242" height="0.242"/>
		<rect x="78.945" y="58.126" fill="#068E46" width="0.24" height="0.242"/>
		<rect x="79.9" y="58.126" fill="#068E46" width="0.242" height="0.242"/>
		<rect x="77.494" y="55.958" fill="#068E46" width="0.242" height="0.241"/>
		<rect x="78.451" y="55.958" fill="#068E46" width="0.242" height="0.241"/>
		<rect x="79.416" y="55.958" fill="#068E46" width="0.242" height="0.241"/>
		<rect x="77.021" y="56.433" fill="#068E46" width="0.242" height="0.242"/>
		<rect x="77.979" y="56.433" fill="#068E46" width="0.242" height="0.242"/>
		<rect x="78.945" y="56.433" fill="#068E46" width="0.24" height="0.242"/>
		<rect x="79.9" y="56.433" fill="#068E46" width="0.242" height="0.242"/>
		<rect x="78.967" y="48.577" fill="#068E46" width="0.242" height="0.242"/>
		<rect x="78.49" y="48.213" fill="#068E46" width="0.24" height="0.241"/>
		<rect x="78.49" y="48.942" fill="#068E46" width="0.24" height="0.242"/>
		<rect x="79.441" y="48.213" fill="#068E46" width="0.24" height="0.241"/>
		<rect x="79.441" y="48.942" fill="#068E46" width="0.24" height="0.242"/>
		<rect x="79.924" y="48.577" fill="#068E46" width="0.242" height="0.242"/>
		<rect x="78.967" y="49.418" fill="#068E46" width="0.242" height="0.241"/>
		<rect x="78.49" y="49.782" fill="#068E46" width="0.24" height="0.242"/>
		<rect x="79.441" y="49.782" fill="#068E46" width="0.24" height="0.242"/>
		<rect x="79.924" y="49.418" fill="#068E46" width="0.242" height="0.241"/>
		<rect x="78.967" y="46.883" fill="#068E46" width="0.242" height="0.243"/>
		<rect x="78.49" y="46.52" fill="#068E46" width="0.24" height="0.241"/>
		<rect x="78.49" y="47.248" fill="#068E46" width="0.24" height="0.243"/>
		<rect x="79.441" y="46.52" fill="#068E46" width="0.24" height="0.241"/>
		<rect x="79.441" y="47.248" fill="#068E46" width="0.24" height="0.243"/>
		<rect x="79.924" y="46.883" fill="#068E46" width="0.242" height="0.243"/>
		<rect x="78.967" y="47.725" fill="#068E46" width="0.242" height="0.242"/>
		<rect x="79.924" y="47.725" fill="#068E46" width="0.242" height="0.242"/>
		<rect x="78.967" y="51.854" fill="#068E46" width="0.242" height="0.242"/>
		<rect x="78.49" y="51.489" fill="#068E46" width="0.24" height="0.242"/>
		<rect x="78.49" y="52.22" fill="#068E46" width="0.24" height="0.242"/>
		<rect x="79.441" y="51.489" fill="#068E46" width="0.24" height="0.242"/>
		<rect x="79.441" y="52.22" fill="#068E46" width="0.24" height="0.242"/>
		<rect x="79.924" y="51.854" fill="#068E46" width="0.242" height="0.242"/>
		<rect x="80.396" y="52.22" fill="#068E46" width="0.242" height="0.242"/>
		<rect x="78.967" y="52.696" fill="#068E46" width="0.242" height="0.242"/>
		<rect x="78.49" y="53.062" fill="#068E46" width="0.24" height="0.24"/>
		<rect x="79.441" y="53.062" fill="#068E46" width="0.24" height="0.24"/>
		<rect x="79.924" y="52.696" fill="#068E46" width="0.242" height="0.242"/>
		<rect x="78.967" y="50.163" fill="#068E46" width="0.242" height="0.24"/>
		<rect x="78.49" y="50.526" fill="#068E46" width="0.24" height="0.242"/>
		<rect x="79.441" y="50.526" fill="#068E46" width="0.24" height="0.242"/>
		<rect x="79.924" y="50.163" fill="#068E46" width="0.242" height="0.24"/>
		<rect x="78.967" y="51.003" fill="#068E46" width="0.242" height="0.242"/>
		<rect x="79.924" y="51.003" fill="#068E46" width="0.242" height="0.242"/>
		<rect x="77.027" y="48.577" fill="#068E46" width="0.242" height="0.242"/>
		<rect x="77.502" y="48.213" fill="#068E46" width="0.24" height="0.241"/>
		<rect x="77.502" y="48.942" fill="#068E46" width="0.24" height="0.242"/>
		<rect x="77.984" y="48.577" fill="#068E46" width="0.242" height="0.242"/>
		<rect x="77.027" y="49.418" fill="#068E46" width="0.242" height="0.241"/>
		<rect x="77.502" y="49.782" fill="#068E46" width="0.24" height="0.242"/>
		<rect x="77.984" y="49.418" fill="#068E46" width="0.242" height="0.241"/>
		<rect x="77.027" y="46.883" fill="#068E46" width="0.242" height="0.243"/>
		<rect x="77.502" y="46.52" fill="#068E46" width="0.24" height="0.241"/>
		<rect x="77.502" y="47.248" fill="#068E46" width="0.24" height="0.243"/>
		<rect x="77.984" y="46.883" fill="#068E46" width="0.242" height="0.243"/>
		<rect x="77.027" y="47.725" fill="#068E46" width="0.242" height="0.242"/>
		<rect x="77.984" y="47.725" fill="#068E46" width="0.242" height="0.242"/>
		<rect x="77.027" y="51.854" fill="#068E46" width="0.242" height="0.242"/>
		<rect x="77.502" y="51.489" fill="#068E46" width="0.24" height="0.242"/>
		<rect x="77.502" y="52.22" fill="#068E46" width="0.24" height="0.242"/>
		<rect x="77.984" y="51.854" fill="#068E46" width="0.242" height="0.242"/>
		<rect x="77.027" y="52.696" fill="#068E46" width="0.242" height="0.242"/>
		<rect x="77.502" y="53.062" fill="#068E46" width="0.24" height="0.24"/>
		<rect x="77.984" y="52.696" fill="#068E46" width="0.242" height="0.242"/>
		<rect x="77.027" y="50.163" fill="#068E46" width="0.242" height="0.24"/>
		<rect x="77.502" y="50.526" fill="#068E46" width="0.24" height="0.242"/>
		<rect x="77.984" y="50.163" fill="#068E46" width="0.242" height="0.24"/>
		<rect x="77.027" y="51.003" fill="#068E46" width="0.242" height="0.242"/>
		<rect x="77.984" y="51.003" fill="#068E46" width="0.242" height="0.242"/>
		<rect x="78.967" y="55.228" fill="#068E46" width="0.242" height="0.242"/>
		<rect x="78.49" y="54.862" fill="#068E46" width="0.24" height="0.242"/>
		<rect x="78.49" y="55.593" fill="#068E46" width="0.24" height="0.242"/>
		<rect x="79.441" y="54.862" fill="#068E46" width="0.24" height="0.242"/>
		<rect x="79.441" y="55.593" fill="#068E46" width="0.24" height="0.242"/>
		<rect x="79.924" y="55.228" fill="#068E46" width="0.242" height="0.242"/>
		<rect x="78.967" y="56.067" fill="#068E46" width="0.242" height="0.242"/>
		<rect x="79.924" y="56.067" fill="#068E46" width="0.242" height="0.242"/>
		<rect x="78.967" y="53.532" fill="#068E46" width="0.242" height="0.244"/>
		<rect x="78.49" y="53.899" fill="#068E46" width="0.24" height="0.242"/>
		<rect x="79.441" y="53.899" fill="#068E46" width="0.24" height="0.242"/>
		<rect x="79.924" y="53.532" fill="#068E46" width="0.242" height="0.244"/>
		<rect x="78.967" y="54.374" fill="#068E46" width="0.242" height="0.242"/>
		<rect x="79.924" y="54.374" fill="#068E46" width="0.242" height="0.242"/>
		<rect x="77.027" y="55.228" fill="#068E46" width="0.242" height="0.242"/>
		<rect x="77.502" y="54.862" fill="#068E46" width="0.24" height="0.242"/>
		<rect x="77.502" y="55.593" fill="#068E46" width="0.24" height="0.242"/>
		<rect x="77.984" y="55.228" fill="#068E46" width="0.242" height="0.242"/>
		<rect x="77.027" y="56.067" fill="#068E46" width="0.242" height="0.242"/>
		<rect x="77.984" y="56.067" fill="#068E46" width="0.242" height="0.242"/>
		<rect x="77.027" y="53.532" fill="#068E46" width="0.242" height="0.244"/>
		<rect x="77.502" y="53.899" fill="#068E46" width="0.24" height="0.242"/>
		<rect x="77.984" y="53.532" fill="#068E46" width="0.242" height="0.244"/>
		<rect x="77.027" y="54.374" fill="#068E46" width="0.242" height="0.242"/>
		<rect x="77.984" y="54.374" fill="#068E46" width="0.242" height="0.242"/>
		<rect x="77.021" y="45.284" fill="#068E46" width="0.242" height="0.244"/>
		<rect x="77.494" y="44.921" fill="#068E46" width="0.242" height="0.242"/>
		<rect x="77.494" y="45.651" fill="#068E46" width="0.242" height="0.241"/>
		<rect x="77.979" y="45.284" fill="#068E46" width="0.242" height="0.244"/>
		<rect x="78.451" y="44.921" fill="#068E46" width="0.242" height="0.242"/>
		<rect x="78.451" y="45.651" fill="#068E46" width="0.242" height="0.241"/>
		<rect x="78.945" y="45.284" fill="#068E46" width="0.24" height="0.244"/>
		<rect x="79.416" y="44.921" fill="#068E46" width="0.242" height="0.242"/>
		<rect x="79.416" y="45.651" fill="#068E46" width="0.242" height="0.241"/>
		<rect x="79.9" y="45.284" fill="#068E46" width="0.242" height="0.244"/>
		<rect x="77.021" y="46.126" fill="#068E46" width="0.242" height="0.242"/>
		<rect x="77.979" y="46.126" fill="#068E46" width="0.242" height="0.242"/>
		<rect x="78.945" y="46.126" fill="#068E46" width="0.24" height="0.242"/>
		<rect x="79.9" y="46.126" fill="#068E46" width="0.242" height="0.242"/>
		<rect x="77.494" y="43.958" fill="#068E46" width="0.242" height="0.241"/>
		<rect x="78.451" y="43.958" fill="#068E46" width="0.242" height="0.241"/>
		<rect x="79.416" y="43.958" fill="#068E46" width="0.242" height="0.241"/>
		<rect x="77.021" y="44.433" fill="#068E46" width="0.242" height="0.242"/>
		<rect x="77.979" y="44.433" fill="#068E46" width="0.242" height="0.242"/>
		<rect x="78.945" y="44.433" fill="#068E46" width="0.24" height="0.242"/>
		<rect x="79.9" y="44.433" fill="#068E46" width="0.242" height="0.242"/>
		<rect x="78.967" y="43.577" fill="#068E46" width="0.242" height="0.242"/>
		<rect x="78.49" y="43.213" fill="#068E46" width="0.24" height="0.241"/>
		<rect x="78.49" y="43.942" fill="#068E46" width="0.24" height="0.242"/>
		<rect x="79.441" y="43.213" fill="#068E46" width="0.24" height="0.241"/>
		<rect x="79.441" y="43.942" fill="#068E46" width="0.24" height="0.242"/>
		<rect x="79.924" y="43.577" fill="#068E46" width="0.242" height="0.242"/>
		<rect x="78.967" y="44.418" fill="#068E46" width="0.242" height="0.241"/>
		<rect x="79.924" y="44.418" fill="#068E46" width="0.242" height="0.241"/>
		<rect x="78.967" y="41.883" fill="#068E46" width="0.242" height="0.243"/>
		<rect x="78.49" y="41.52" fill="#068E46" width="0.24" height="0.241"/>
		<rect x="78.49" y="42.248" fill="#068E46" width="0.24" height="0.243"/>
		<rect x="79.441" y="41.52" fill="#068E46" width="0.24" height="0.241"/>
		<rect x="79.441" y="42.248" fill="#068E46" width="0.24" height="0.243"/>
		<rect x="79.924" y="41.883" fill="#068E46" width="0.242" height="0.243"/>
		<rect x="78.967" y="42.725" fill="#068E46" width="0.242" height="0.242"/>
		<rect x="79.924" y="42.725" fill="#068E46" width="0.242" height="0.242"/>
		<rect x="77.027" y="43.577" fill="#068E46" width="0.242" height="0.242"/>
		<rect x="77.502" y="43.213" fill="#068E46" width="0.24" height="0.241"/>
		<rect x="77.502" y="43.942" fill="#068E46" width="0.24" height="0.242"/>
		<rect x="77.984" y="43.577" fill="#068E46" width="0.242" height="0.242"/>
		<rect x="77.027" y="44.418" fill="#068E46" width="0.242" height="0.241"/>
		<rect x="77.984" y="44.418" fill="#068E46" width="0.242" height="0.241"/>
		<rect x="77.027" y="41.883" fill="#068E46" width="0.242" height="0.243"/>
		<rect x="77.502" y="41.52" fill="#068E46" width="0.24" height="0.241"/>
		<rect x="77.502" y="42.248" fill="#068E46" width="0.24" height="0.243"/>
		<rect x="77.984" y="41.883" fill="#068E46" width="0.242" height="0.243"/>
		<rect x="77.027" y="42.725" fill="#068E46" width="0.242" height="0.242"/>
		<rect x="77.984" y="42.725" fill="#068E46" width="0.242" height="0.242"/>
		<rect x="77.021" y="40.284" fill="#068E46" width="0.242" height="0.244"/>
		<rect x="77.494" y="39.921" fill="#068E46" width="0.242" height="0.242"/>
		<rect x="77.494" y="40.651" fill="#068E46" width="0.242" height="0.241"/>
		<rect x="77.979" y="40.284" fill="#068E46" width="0.242" height="0.244"/>
		<rect x="78.451" y="39.921" fill="#068E46" width="0.242" height="0.242"/>
		<rect x="78.451" y="40.651" fill="#068E46" width="0.242" height="0.241"/>
		<rect x="78.945" y="40.284" fill="#068E46" width="0.24" height="0.244"/>
		<rect x="79.416" y="39.921" fill="#068E46" width="0.242" height="0.242"/>
		<rect x="79.416" y="40.651" fill="#068E46" width="0.242" height="0.241"/>
		<rect x="79.9" y="40.284" fill="#068E46" width="0.242" height="0.244"/>
		<rect x="77.021" y="41.126" fill="#068E46" width="0.242" height="0.242"/>
		<rect x="77.979" y="41.126" fill="#068E46" width="0.242" height="0.242"/>
		<rect x="78.945" y="41.126" fill="#068E46" width="0.24" height="0.242"/>
		<rect x="79.9" y="41.126" fill="#068E46" width="0.242" height="0.242"/>
		<rect x="77.494" y="38.958" fill="#068E46" width="0.242" height="0.241"/>
		<rect x="78.451" y="38.958" fill="#068E46" width="0.242" height="0.241"/>
		<rect x="79.416" y="38.958" fill="#068E46" width="0.242" height="0.241"/>
		<rect x="77.021" y="39.433" fill="#068E46" width="0.242" height="0.242"/>
		<rect x="77.979" y="39.433" fill="#068E46" width="0.242" height="0.242"/>
		<rect x="78.945" y="39.433" fill="#068E46" width="0.24" height="0.242"/>
		<rect x="79.9" y="39.433" fill="#068E46" width="0.242" height="0.242"/>
		<rect x="78.967" y="31.577" fill="#068E46" width="0.242" height="0.242"/>
		<rect x="78.49" y="31.213" fill="#068E46" width="0.24" height="0.241"/>
		<rect x="78.49" y="31.942" fill="#068E46" width="0.24" height="0.242"/>
		<rect x="79.441" y="31.213" fill="#068E46" width="0.24" height="0.241"/>
		<rect x="79.441" y="31.942" fill="#068E46" width="0.24" height="0.242"/>
		<rect x="79.924" y="31.577" fill="#068E46" width="0.242" height="0.242"/>
		<rect x="78.967" y="32.418" fill="#068E46" width="0.242" height="0.241"/>
		<rect x="78.49" y="32.782" fill="#068E46" width="0.24" height="0.242"/>
		<rect x="79.441" y="32.782" fill="#068E46" width="0.24" height="0.242"/>
		<rect x="79.924" y="32.418" fill="#068E46" width="0.242" height="0.241"/>
		<rect x="78.967" y="29.883" fill="#068E46" width="0.242" height="0.243"/>
		<rect x="78.49" y="29.52" fill="#068E46" width="0.24" height="0.241"/>
		<rect x="78.49" y="30.248" fill="#068E46" width="0.24" height="0.243"/>
		<rect x="79.441" y="29.52" fill="#068E46" width="0.24" height="0.241"/>
		<rect x="79.441" y="30.248" fill="#068E46" width="0.24" height="0.243"/>
		<rect x="79.924" y="29.883" fill="#068E46" width="0.242" height="0.243"/>
		<rect x="78.967" y="30.725" fill="#068E46" width="0.242" height="0.242"/>
		<rect x="79.924" y="30.725" fill="#068E46" width="0.242" height="0.242"/>
		<rect x="78.967" y="34.854" fill="#068E46" width="0.242" height="0.242"/>
		<rect x="78.49" y="34.489" fill="#068E46" width="0.24" height="0.242"/>
		<rect x="78.49" y="35.22" fill="#068E46" width="0.24" height="0.242"/>
		<rect x="79.441" y="34.489" fill="#068E46" width="0.24" height="0.242"/>
		<rect x="79.441" y="35.22" fill="#068E46" width="0.24" height="0.242"/>
		<rect x="79.924" y="34.854" fill="#068E46" width="0.242" height="0.242"/>
		<rect x="80.396" y="35.22" fill="#068E46" width="0.242" height="0.242"/>
		<rect x="78.967" y="35.696" fill="#068E46" width="0.242" height="0.242"/>
		<rect x="78.49" y="36.062" fill="#068E46" width="0.24" height="0.24"/>
		<rect x="79.441" y="36.062" fill="#068E46" width="0.24" height="0.24"/>
		<rect x="79.924" y="35.696" fill="#068E46" width="0.242" height="0.242"/>
		<rect x="78.967" y="33.163" fill="#068E46" width="0.242" height="0.24"/>
		<rect x="78.49" y="33.526" fill="#068E46" width="0.24" height="0.242"/>
		<rect x="79.441" y="33.526" fill="#068E46" width="0.24" height="0.242"/>
		<rect x="79.924" y="33.163" fill="#068E46" width="0.242" height="0.24"/>
		<rect x="78.967" y="34.003" fill="#068E46" width="0.242" height="0.242"/>
		<rect x="79.924" y="34.003" fill="#068E46" width="0.242" height="0.242"/>
		<rect x="77.027" y="31.577" fill="#068E46" width="0.242" height="0.242"/>
		<rect x="77.502" y="31.213" fill="#068E46" width="0.24" height="0.241"/>
		<rect x="77.502" y="31.942" fill="#068E46" width="0.24" height="0.242"/>
		<rect x="77.984" y="31.577" fill="#068E46" width="0.242" height="0.242"/>
		<rect x="77.027" y="32.418" fill="#068E46" width="0.242" height="0.241"/>
		<rect x="77.502" y="32.782" fill="#068E46" width="0.24" height="0.242"/>
		<rect x="77.984" y="32.418" fill="#068E46" width="0.242" height="0.241"/>
		<rect x="77.027" y="29.883" fill="#068E46" width="0.242" height="0.243"/>
		<rect x="77.502" y="29.52" fill="#068E46" width="0.24" height="0.241"/>
		<rect x="77.502" y="30.248" fill="#068E46" width="0.24" height="0.243"/>
		<rect x="77.984" y="29.883" fill="#068E46" width="0.242" height="0.243"/>
		<rect x="77.027" y="30.725" fill="#068E46" width="0.242" height="0.242"/>
		<rect x="77.984" y="30.725" fill="#068E46" width="0.242" height="0.242"/>
		<rect x="77.027" y="34.854" fill="#068E46" width="0.242" height="0.242"/>
		<rect x="77.502" y="34.489" fill="#068E46" width="0.24" height="0.242"/>
		<rect x="77.502" y="35.22" fill="#068E46" width="0.24" height="0.242"/>
		<rect x="77.984" y="34.854" fill="#068E46" width="0.242" height="0.242"/>
		<rect x="77.027" y="35.696" fill="#068E46" width="0.242" height="0.242"/>
		<rect x="77.502" y="36.062" fill="#068E46" width="0.24" height="0.24"/>
		<rect x="77.984" y="35.696" fill="#068E46" width="0.242" height="0.242"/>
		<rect x="77.027" y="33.163" fill="#068E46" width="0.242" height="0.24"/>
		<rect x="77.502" y="33.526" fill="#068E46" width="0.24" height="0.242"/>
		<rect x="77.984" y="33.163" fill="#068E46" width="0.242" height="0.24"/>
		<rect x="77.027" y="34.003" fill="#068E46" width="0.242" height="0.242"/>
		<rect x="77.984" y="34.003" fill="#068E46" width="0.242" height="0.242"/>
		<rect x="78.967" y="38.228" fill="#068E46" width="0.242" height="0.242"/>
		<rect x="78.49" y="37.862" fill="#068E46" width="0.24" height="0.242"/>
		<rect x="78.49" y="38.593" fill="#068E46" width="0.24" height="0.242"/>
		<rect x="79.441" y="37.862" fill="#068E46" width="0.24" height="0.242"/>
		<rect x="79.441" y="38.593" fill="#068E46" width="0.24" height="0.242"/>
		<rect x="79.924" y="38.228" fill="#068E46" width="0.242" height="0.242"/>
		<rect x="78.967" y="39.067" fill="#068E46" width="0.242" height="0.242"/>
		<rect x="79.924" y="39.067" fill="#068E46" width="0.242" height="0.242"/>
		<rect x="78.967" y="36.532" fill="#068E46" width="0.242" height="0.244"/>
		<rect x="78.49" y="36.899" fill="#068E46" width="0.24" height="0.242"/>
		<rect x="79.441" y="36.899" fill="#068E46" width="0.24" height="0.242"/>
		<rect x="79.924" y="36.532" fill="#068E46" width="0.242" height="0.244"/>
		<rect x="78.967" y="37.374" fill="#068E46" width="0.242" height="0.242"/>
		<rect x="79.924" y="37.374" fill="#068E46" width="0.242" height="0.242"/>
		<rect x="77.027" y="38.228" fill="#068E46" width="0.242" height="0.242"/>
		<rect x="77.502" y="37.862" fill="#068E46" width="0.24" height="0.242"/>
		<rect x="77.502" y="38.593" fill="#068E46" width="0.24" height="0.242"/>
		<rect x="77.984" y="38.228" fill="#068E46" width="0.242" height="0.242"/>
		<rect x="77.027" y="39.067" fill="#068E46" width="0.242" height="0.242"/>
		<rect x="77.984" y="39.067" fill="#068E46" width="0.242" height="0.242"/>
		<rect x="77.027" y="36.532" fill="#068E46" width="0.242" height="0.244"/>
		<rect x="77.502" y="36.899" fill="#068E46" width="0.24" height="0.242"/>
		<rect x="77.984" y="36.532" fill="#068E46" width="0.242" height="0.244"/>
		<rect x="77.027" y="37.374" fill="#068E46" width="0.242" height="0.242"/>
		<rect x="77.984" y="37.374" fill="#068E46" width="0.242" height="0.242"/>
		<rect x="77.021" y="28.284" fill="#068E46" width="0.242" height="0.244"/>
		<rect x="77.494" y="27.921" fill="#068E46" width="0.242" height="0.242"/>
		<rect x="77.494" y="28.651" fill="#068E46" width="0.242" height="0.241"/>
		<rect x="77.979" y="28.284" fill="#068E46" width="0.242" height="0.244"/>
		<rect x="78.451" y="27.921" fill="#068E46" width="0.242" height="0.242"/>
		<rect x="78.451" y="28.651" fill="#068E46" width="0.242" height="0.241"/>
		<rect x="78.945" y="28.284" fill="#068E46" width="0.24" height="0.244"/>
		<rect x="79.416" y="27.921" fill="#068E46" width="0.242" height="0.242"/>
		<rect x="79.416" y="28.651" fill="#068E46" width="0.242" height="0.241"/>
		<rect x="79.9" y="28.284" fill="#068E46" width="0.242" height="0.244"/>
		<rect x="77.021" y="29.126" fill="#068E46" width="0.242" height="0.242"/>
		<rect x="77.979" y="29.126" fill="#068E46" width="0.242" height="0.242"/>
		<rect x="78.945" y="29.126" fill="#068E46" width="0.24" height="0.242"/>
		<rect x="79.9" y="29.126" fill="#068E46" width="0.242" height="0.242"/>
		<rect x="77.494" y="26.958" fill="#068E46" width="0.242" height="0.241"/>
		<rect x="78.451" y="26.958" fill="#068E46" width="0.242" height="0.241"/>
		<rect x="79.416" y="26.958" fill="#068E46" width="0.242" height="0.241"/>
		<rect x="77.021" y="27.433" fill="#068E46" width="0.242" height="0.242"/>
		<rect x="77.979" y="27.433" fill="#068E46" width="0.242" height="0.242"/>
		<rect x="78.945" y="27.433" fill="#068E46" width="0.24" height="0.242"/>
		<rect x="79.9" y="27.433" fill="#068E46" width="0.242" height="0.242"/>
		<rect x="80.529" y="80.808" fill="#068E46" width="0.242" height="0.242"/>
		<rect x="81.002" y="80.442" fill="#068E46" width="0.242" height="0.242"/>
		<rect x="81.002" y="81.173" fill="#068E46" width="0.242" height="0.242"/>
		<rect x="81.484" y="80.808" fill="#068E46" width="0.242" height="0.242"/>
		<rect x="81.484" y="81.647" fill="#068E46" width="0.242" height="0.244"/>
		<rect x="81.002" y="79.479" fill="#068E46" width="0.242" height="0.242"/>
		<rect x="80.529" y="79.954" fill="#068E46" width="0.242" height="0.244"/>
		<rect x="81.484" y="79.954" fill="#068E46" width="0.242" height="0.244"/>
		<g>
			<path fill="none" stroke="#068E46" stroke-width="1.725" stroke-linecap="round" stroke-linejoin="round" d="M74.777,92.034
				h-29.4V67.499h29.4V92.034z"/>
			
				<rect x="76.992" y="26.472" fill="none" stroke="#068E46" stroke-width="1.15" stroke-linecap="round" stroke-linejoin="round" stroke-dasharray="2.3,2.3" width="3.082" height="58.162"/>
			<path fill="none" stroke="#068E46" stroke-width="0.575" stroke-linecap="round" stroke-linejoin="round" d="M80.076,84.573
				h-3.025v-8.572h3.025V84.573z M80.16,39.519h-3.193V26.997h3.193V39.519z"/>
			
				<rect x="50.822" y="74.339" fill="none" stroke="#068E46" stroke-width="1.15" stroke-linejoin="round" width="18.77" height="12.867"/>
			<path fill="none" stroke="#068E46" stroke-width="1.15" d="M50.777,86.062l-1.162-1.354v-8.01l1.207-1.217 M74.307,79.058
				l-2.91-0.018c0,0,0.01-1.576,0.01-2.049c-0.338-0.713-2.014-1.248-2.014-1.248 M74.373,82.487l-2.91,0.016
				c0,0,0.012,1.576,0.012,2.051c-0.336,0.713-2.014,1.246-2.014,1.246"/>
			
				<rect x="74.824" y="79.196" fill="none" stroke="#068E46" stroke-width="1.15" stroke-linejoin="round" width="7.148" height="3.139"/>
			<polyline fill="none" stroke="#068E46" stroke-width="1.725" stroke-linecap="round" stroke-linejoin="round" points="
				59.059,85.325 62.182,79.72 58.746,81.321 61.869,76.118 			"/>
		</g>
	</g>
</g>
</svg>
