<?xml version="1.0" encoding="utf-8"?>
<!-- Generator: Adobe Illustrator 16.0.0, SVG Export Plug-In . SVG Version: 6.00 Build 0)  -->
<!DOCTYPE svg PUBLIC "-//W3C//DTD SVG 1.1//EN" "http://www.w3.org/Graphics/SVG/1.1/DTD/svg11.dtd">
<svg version="1.1" id="Layer_1" xmlns="http://www.w3.org/2000/svg" xmlns:xlink="http://www.w3.org/1999/xlink" x="0px" y="0px"
	 width="100px" height="100px" viewBox="0 0 100 100" enable-background="new 0 0 100 100" xml:space="preserve">
<g>
	<g>
		<path fill="none" stroke="#2175BB" stroke-width="1.755" d="M54.488,28.878l0.773,0.51h1.348l0.58,0.546v33.23L54.5,63.803v13.41
			l-37.969,0.168l-0.615,1.533h-2.89l3.378-0.012L16.38,64.045c0,0-0.581,0.012-0.813,0.012c-1.033-0.068-1.625-0.43-1.625-0.592
			s0.015-32.417,0.015-32.417s0.109-1.272,0.752-1.272c0.644,0,1.229-0.016,1.229-0.016v-8.658l38.549-0.015V28.878z"/>
		<rect x="57.104" y="42.736" fill="#2175BB" width="5.971" height="8.531"/>
		<rect x="73.104" y="42.736" fill="#2175BB" width="5.971" height="8.531"/>
		<rect x="8.24" y="43.007" fill="#2175BB" width="5.653" height="8.499"/>
		
			<rect x="5.066" y="45.493" fill="none" stroke="#2175BB" stroke-width="1.17" stroke-linecap="round" stroke-linejoin="round" width="3.93" height="3.554"/>
		
			<rect x="58.383" y="45.087" fill="none" stroke="#2175BB" stroke-width="1.462" stroke-linecap="round" stroke-linejoin="round" width="36.098" height="3.631"/>
		<path fill="none" stroke="#2175BB" stroke-width="1.17" d="M54.678,49.153H16.537 M54.854,29.493v34.414 M16.227,29.952v33.955"/>
		
			<rect x="19.511" y="51.971" fill="none" stroke="#2175BB" stroke-width="1.755" stroke-linecap="round" stroke-linejoin="round" width="31.391" height="22.779"/>
		
			<rect x="23.206" y="54" fill="none" stroke="#2175BB" stroke-width="1.17" stroke-linecap="round" stroke-linejoin="round" width="23.54" height="10.625"/>
		<path fill="none" stroke="#2175BB" stroke-width="0.877" stroke-linecap="round" stroke-linejoin="round" d="M46.642,63.348
			H23.198 M46.642,61.631H23.198 M46.642,58.902H23.198 M46.642,56.479H23.198"/>
		<path fill="none" stroke="#2175BB" stroke-width="1.17" stroke-linecap="round" stroke-linejoin="round" d="M21.131,62.18
			l2.115-1.598 M46.746,54.68v-1.051 M23.206,54.68v-0.928"/>
		<line fill="none" stroke="#2175BB" stroke-width="1.17" x1="15.339" y1="63.965" x2="16.308" y2="65.004"/>
		<polyline fill="none" stroke="#2175BB" stroke-width="1.755" points="54.826,70.039 54.859,78.508 58.039,78.52 		"/>
		
			<line fill="none" stroke="#2175BB" stroke-width="1.17" stroke-linecap="round" stroke-linejoin="round" x1="49.359" y1="61.779" x2="46.927" y2="59.777"/>
		
			<line fill="none" stroke="#2175BB" stroke-width="0.877" stroke-linecap="round" stroke-linejoin="round" x1="34.81" y1="64.561" x2="34.81" y2="53.746"/>
	</g>
	<g>
		<rect x="91.451" y="58.383" fill="#068E46" width="0.24" height="0.24"/>
		<rect x="91.451" y="59.111" fill="#068E46" width="0.24" height="0.242"/>
		<rect x="92.402" y="58.383" fill="#068E46" width="0.24" height="0.24"/>
		<rect x="92.402" y="59.111" fill="#068E46" width="0.24" height="0.242"/>
		<rect x="92.885" y="58.746" fill="#068E46" width="0.242" height="0.244"/>
		<rect x="91.928" y="59.588" fill="#068E46" width="0.242" height="0.242"/>
		<rect x="91.451" y="59.951" fill="#068E46" width="0.24" height="0.244"/>
		<rect x="92.402" y="59.951" fill="#068E46" width="0.24" height="0.244"/>
		<rect x="92.885" y="59.588" fill="#068E46" width="0.242" height="0.242"/>
		<rect x="91.928" y="57.053" fill="#068E46" width="0.242" height="0.244"/>
		<rect x="91.451" y="56.689" fill="#068E46" width="0.24" height="0.242"/>
		<rect x="91.451" y="57.418" fill="#068E46" width="0.24" height="0.244"/>
		<rect x="92.402" y="56.689" fill="#068E46" width="0.24" height="0.242"/>
		<rect x="92.402" y="57.418" fill="#068E46" width="0.24" height="0.244"/>
		<rect x="91.928" y="58.746" fill="#068E46" width="0.242" height="0.244"/>
		<rect x="92.885" y="57.053" fill="#068E46" width="0.242" height="0.244"/>
		<rect x="91.928" y="57.895" fill="#068E46" width="0.242" height="0.242"/>
		<rect x="92.885" y="57.895" fill="#068E46" width="0.242" height="0.242"/>
		<rect x="91.928" y="62.025" fill="#068E46" width="0.242" height="0.242"/>
		<rect x="91.451" y="61.66" fill="#068E46" width="0.24" height="0.242"/>
		<rect x="91.451" y="62.389" fill="#068E46" width="0.24" height="0.244"/>
		<rect x="92.402" y="61.66" fill="#068E46" width="0.24" height="0.242"/>
		<rect x="92.402" y="62.389" fill="#068E46" width="0.24" height="0.244"/>
		<rect x="92.885" y="62.025" fill="#068E46" width="0.242" height="0.242"/>
		<rect x="91.928" y="62.867" fill="#068E46" width="0.242" height="0.24"/>
		<rect x="91.451" y="63.23" fill="#068E46" width="0.24" height="0.242"/>
		<rect x="92.402" y="63.23" fill="#068E46" width="0.24" height="0.242"/>
		<rect x="92.885" y="62.867" fill="#068E46" width="0.242" height="0.24"/>
		<rect x="91.928" y="60.332" fill="#068E46" width="0.242" height="0.242"/>
		<rect x="91.451" y="60.695" fill="#068E46" width="0.24" height="0.242"/>
		<rect x="92.402" y="60.695" fill="#068E46" width="0.24" height="0.242"/>
		<rect x="92.885" y="60.332" fill="#068E46" width="0.242" height="0.242"/>
		<rect x="91.928" y="61.172" fill="#068E46" width="0.242" height="0.242"/>
		<rect x="92.885" y="61.172" fill="#068E46" width="0.242" height="0.242"/>
		<rect x="89.988" y="58.746" fill="#068E46" width="0.242" height="0.244"/>
		<rect x="90.463" y="58.383" fill="#068E46" width="0.24" height="0.24"/>
		<rect x="90.463" y="59.111" fill="#068E46" width="0.24" height="0.242"/>
		<rect x="90.945" y="58.746" fill="#068E46" width="0.242" height="0.244"/>
		<rect x="89.988" y="59.588" fill="#068E46" width="0.242" height="0.242"/>
		<rect x="90.463" y="59.951" fill="#068E46" width="0.24" height="0.244"/>
		<rect x="90.945" y="59.588" fill="#068E46" width="0.242" height="0.242"/>
		<rect x="89.988" y="57.053" fill="#068E46" width="0.242" height="0.244"/>
		<rect x="90.463" y="56.689" fill="#068E46" width="0.24" height="0.242"/>
		<rect x="90.463" y="57.418" fill="#068E46" width="0.24" height="0.244"/>
		<rect x="90.945" y="57.053" fill="#068E46" width="0.242" height="0.244"/>
		<rect x="89.988" y="57.895" fill="#068E46" width="0.242" height="0.242"/>
		<rect x="90.945" y="57.895" fill="#068E46" width="0.242" height="0.242"/>
		<rect x="89.988" y="62.025" fill="#068E46" width="0.242" height="0.242"/>
		<rect x="90.463" y="61.66" fill="#068E46" width="0.24" height="0.242"/>
		<rect x="90.463" y="62.389" fill="#068E46" width="0.24" height="0.244"/>
		<rect x="90.945" y="62.025" fill="#068E46" width="0.242" height="0.242"/>
		<rect x="87.588" y="63.23" fill="#068E46" width="0.242" height="0.242"/>
		<rect x="89.988" y="62.867" fill="#068E46" width="0.242" height="0.24"/>
		<rect x="90.463" y="63.23" fill="#068E46" width="0.24" height="0.242"/>
		<rect x="90.945" y="62.867" fill="#068E46" width="0.242" height="0.24"/>
		<rect x="89.988" y="60.332" fill="#068E46" width="0.242" height="0.242"/>
		<rect x="90.463" y="60.695" fill="#068E46" width="0.24" height="0.242"/>
		<rect x="90.945" y="60.332" fill="#068E46" width="0.242" height="0.242"/>
		<rect x="89.988" y="61.172" fill="#068E46" width="0.242" height="0.242"/>
		<rect x="90.945" y="61.172" fill="#068E46" width="0.242" height="0.242"/>
		<rect x="91.928" y="65.396" fill="#068E46" width="0.242" height="0.242"/>
		<rect x="91.451" y="65.031" fill="#068E46" width="0.24" height="0.242"/>
		<rect x="91.451" y="65.762" fill="#068E46" width="0.24" height="0.242"/>
		<rect x="92.402" y="65.031" fill="#068E46" width="0.24" height="0.242"/>
		<rect x="92.402" y="65.762" fill="#068E46" width="0.24" height="0.242"/>
		<rect x="92.885" y="65.396" fill="#068E46" width="0.242" height="0.242"/>
		<rect x="91.928" y="66.238" fill="#068E46" width="0.242" height="0.242"/>
		<rect x="91.451" y="66.602" fill="#068E46" width="0.24" height="0.244"/>
		<rect x="92.402" y="66.602" fill="#068E46" width="0.24" height="0.244"/>
		<rect x="92.885" y="66.238" fill="#068E46" width="0.242" height="0.242"/>
		<rect x="91.928" y="63.703" fill="#068E46" width="0.242" height="0.244"/>
		<rect x="91.451" y="64.068" fill="#068E46" width="0.24" height="0.244"/>
		<rect x="92.402" y="64.068" fill="#068E46" width="0.24" height="0.244"/>
		<rect x="92.885" y="63.703" fill="#068E46" width="0.242" height="0.244"/>
		<rect x="91.928" y="64.545" fill="#068E46" width="0.242" height="0.24"/>
		<rect x="92.885" y="64.545" fill="#068E46" width="0.242" height="0.24"/>
		<rect x="91.928" y="68.674" fill="#068E46" width="0.242" height="0.242"/>
		<rect x="91.451" y="68.311" fill="#068E46" width="0.24" height="0.24"/>
		<rect x="91.451" y="69.039" fill="#068E46" width="0.24" height="0.244"/>
		<rect x="92.402" y="68.311" fill="#068E46" width="0.24" height="0.24"/>
		<rect x="92.402" y="69.039" fill="#068E46" width="0.24" height="0.244"/>
		<rect x="92.885" y="68.674" fill="#068E46" width="0.242" height="0.242"/>
		<rect x="91.928" y="69.516" fill="#068E46" width="0.242" height="0.242"/>
		<rect x="92.885" y="69.516" fill="#068E46" width="0.242" height="0.242"/>
		<rect x="91.928" y="66.982" fill="#068E46" width="0.242" height="0.24"/>
		<rect x="91.451" y="67.346" fill="#068E46" width="0.24" height="0.242"/>
		<rect x="92.402" y="67.346" fill="#068E46" width="0.24" height="0.242"/>
		<rect x="92.885" y="66.982" fill="#068E46" width="0.242" height="0.24"/>
		<rect x="91.928" y="67.822" fill="#068E46" width="0.242" height="0.242"/>
		<rect x="92.885" y="67.822" fill="#068E46" width="0.242" height="0.242"/>
		<rect x="88.066" y="65.396" fill="#068E46" width="0.242" height="0.242"/>
		<rect x="87.588" y="65.031" fill="#068E46" width="0.242" height="0.242"/>
		<rect x="87.588" y="65.762" fill="#068E46" width="0.242" height="0.242"/>
		<rect x="88.539" y="65.031" fill="#068E46" width="0.242" height="0.242"/>
		<rect x="88.539" y="65.762" fill="#068E46" width="0.242" height="0.242"/>
		<rect x="89.021" y="65.396" fill="#068E46" width="0.242" height="0.242"/>
		<rect x="89.494" y="65.031" fill="#068E46" width="0.242" height="0.242"/>
		<rect x="89.494" y="65.762" fill="#068E46" width="0.242" height="0.242"/>
		<rect x="89.988" y="65.396" fill="#068E46" width="0.242" height="0.242"/>
		<rect x="90.463" y="65.031" fill="#068E46" width="0.24" height="0.242"/>
		<rect x="90.463" y="65.762" fill="#068E46" width="0.24" height="0.242"/>
		<rect x="90.945" y="65.396" fill="#068E46" width="0.242" height="0.242"/>
		<rect x="88.066" y="66.238" fill="#068E46" width="0.242" height="0.242"/>
		<rect x="87.588" y="66.602" fill="#068E46" width="0.242" height="0.244"/>
		<rect x="88.539" y="66.602" fill="#068E46" width="0.242" height="0.244"/>
		<rect x="89.021" y="66.238" fill="#068E46" width="0.242" height="0.242"/>
		<rect x="89.494" y="66.602" fill="#068E46" width="0.242" height="0.244"/>
		<rect x="89.988" y="66.238" fill="#068E46" width="0.242" height="0.242"/>
		<rect x="90.463" y="66.602" fill="#068E46" width="0.24" height="0.244"/>
		<rect x="90.945" y="66.238" fill="#068E46" width="0.242" height="0.242"/>
		<rect x="87.588" y="64.068" fill="#068E46" width="0.242" height="0.244"/>
		<rect x="88.539" y="64.068" fill="#068E46" width="0.242" height="0.244"/>
		<rect x="89.494" y="64.068" fill="#068E46" width="0.242" height="0.244"/>
		<rect x="89.988" y="63.703" fill="#068E46" width="0.242" height="0.244"/>
		<rect x="90.463" y="64.068" fill="#068E46" width="0.24" height="0.244"/>
		<rect x="90.945" y="63.703" fill="#068E46" width="0.242" height="0.244"/>
		<rect x="88.066" y="64.545" fill="#068E46" width="0.242" height="0.24"/>
		<rect x="89.021" y="64.545" fill="#068E46" width="0.242" height="0.24"/>
		<rect x="89.988" y="64.545" fill="#068E46" width="0.242" height="0.24"/>
		<rect x="90.945" y="64.545" fill="#068E46" width="0.242" height="0.24"/>
		<rect x="87.588" y="68.311" fill="#068E46" width="0.242" height="0.24"/>
		<rect x="87.588" y="69.039" fill="#068E46" width="0.242" height="0.244"/>
		<rect x="89.988" y="68.674" fill="#068E46" width="0.242" height="0.242"/>
		<rect x="90.463" y="68.311" fill="#068E46" width="0.24" height="0.24"/>
		<rect x="90.463" y="69.039" fill="#068E46" width="0.24" height="0.244"/>
		<rect x="90.945" y="68.674" fill="#068E46" width="0.242" height="0.242"/>
		<rect x="88.066" y="66.982" fill="#068E46" width="0.242" height="0.24"/>
		<rect x="87.588" y="67.346" fill="#068E46" width="0.242" height="0.242"/>
		<rect x="89.021" y="66.982" fill="#068E46" width="0.242" height="0.24"/>
		<rect x="89.988" y="66.982" fill="#068E46" width="0.242" height="0.24"/>
		<rect x="90.463" y="67.346" fill="#068E46" width="0.24" height="0.242"/>
		<rect x="90.945" y="66.982" fill="#068E46" width="0.242" height="0.24"/>
		<rect x="89.988" y="67.822" fill="#068E46" width="0.242" height="0.242"/>
		<rect x="90.945" y="67.822" fill="#068E46" width="0.242" height="0.242"/>
		<rect x="91.928" y="45.448" fill="#068E46" width="0.242" height="0.242"/>
		<rect x="91.451" y="45.083" fill="#068E46" width="0.24" height="0.242"/>
		<rect x="91.451" y="45.813" fill="#068E46" width="0.24" height="0.242"/>
		<rect x="92.402" y="45.083" fill="#068E46" width="0.24" height="0.242"/>
		<rect x="92.402" y="45.813" fill="#068E46" width="0.24" height="0.242"/>
		<rect x="92.885" y="45.448" fill="#068E46" width="0.242" height="0.242"/>
		<rect x="91.928" y="46.288" fill="#068E46" width="0.242" height="0.242"/>
		<rect x="91.451" y="46.653" fill="#068E46" width="0.24" height="0.242"/>
		<rect x="92.402" y="46.653" fill="#068E46" width="0.24" height="0.242"/>
		<rect x="92.885" y="46.288" fill="#068E46" width="0.242" height="0.242"/>
		<rect x="91.928" y="43.753" fill="#068E46" width="0.242" height="0.244"/>
		<rect x="91.451" y="43.39" fill="#068E46" width="0.24" height="0.242"/>
		<rect x="91.451" y="44.118" fill="#068E46" width="0.24" height="0.243"/>
		<rect x="92.402" y="43.39" fill="#068E46" width="0.24" height="0.242"/>
		<rect x="92.402" y="44.118" fill="#068E46" width="0.24" height="0.243"/>
		<rect x="92.885" y="43.753" fill="#068E46" width="0.242" height="0.244"/>
		<rect x="91.928" y="44.595" fill="#068E46" width="0.242" height="0.242"/>
		<rect x="92.885" y="44.595" fill="#068E46" width="0.242" height="0.242"/>
		<rect x="91.928" y="48.725" fill="#068E46" width="0.242" height="0.242"/>
		<rect x="91.451" y="48.359" fill="#068E46" width="0.24" height="0.243"/>
		<rect x="91.451" y="49.09" fill="#068E46" width="0.24" height="0.242"/>
		<rect x="92.402" y="48.359" fill="#068E46" width="0.24" height="0.243"/>
		<rect x="92.402" y="49.09" fill="#068E46" width="0.24" height="0.242"/>
		<rect x="92.885" y="48.725" fill="#068E46" width="0.242" height="0.242"/>
		<rect x="93.357" y="49.09" fill="#068E46" width="0.242" height="0.242"/>
		<rect x="91.928" y="49.566" fill="#068E46" width="0.242" height="0.242"/>
		<rect x="91.451" y="49.931" fill="#068E46" width="0.24" height="0.241"/>
		<rect x="92.402" y="49.931" fill="#068E46" width="0.24" height="0.241"/>
		<rect x="92.885" y="49.566" fill="#068E46" width="0.242" height="0.242"/>
		<rect x="91.928" y="47.033" fill="#068E46" width="0.242" height="0.241"/>
		<rect x="91.451" y="47.397" fill="#068E46" width="0.24" height="0.242"/>
		<rect x="92.402" y="47.397" fill="#068E46" width="0.24" height="0.242"/>
		<rect x="92.885" y="47.033" fill="#068E46" width="0.242" height="0.241"/>
		<rect x="91.928" y="47.873" fill="#068E46" width="0.242" height="0.242"/>
		<rect x="92.885" y="47.873" fill="#068E46" width="0.242" height="0.242"/>
		<rect x="89.988" y="45.448" fill="#068E46" width="0.242" height="0.242"/>
		<rect x="90.463" y="45.083" fill="#068E46" width="0.24" height="0.242"/>
		<rect x="90.463" y="45.813" fill="#068E46" width="0.24" height="0.242"/>
		<rect x="90.945" y="45.448" fill="#068E46" width="0.242" height="0.242"/>
		<rect x="89.988" y="46.288" fill="#068E46" width="0.242" height="0.242"/>
		<rect x="90.463" y="46.653" fill="#068E46" width="0.24" height="0.242"/>
		<rect x="90.945" y="46.288" fill="#068E46" width="0.242" height="0.242"/>
		<rect x="89.988" y="43.753" fill="#068E46" width="0.242" height="0.244"/>
		<rect x="90.463" y="43.39" fill="#068E46" width="0.24" height="0.242"/>
		<rect x="90.463" y="44.118" fill="#068E46" width="0.24" height="0.243"/>
		<rect x="90.945" y="43.753" fill="#068E46" width="0.242" height="0.244"/>
		<rect x="89.988" y="44.595" fill="#068E46" width="0.242" height="0.242"/>
		<rect x="90.945" y="44.595" fill="#068E46" width="0.242" height="0.242"/>
		<rect x="89.988" y="48.725" fill="#068E46" width="0.242" height="0.242"/>
		<rect x="90.463" y="48.359" fill="#068E46" width="0.24" height="0.243"/>
		<rect x="90.463" y="49.09" fill="#068E46" width="0.24" height="0.242"/>
		<rect x="90.945" y="48.725" fill="#068E46" width="0.242" height="0.242"/>
		<rect x="89.988" y="49.566" fill="#068E46" width="0.242" height="0.242"/>
		<rect x="90.463" y="49.931" fill="#068E46" width="0.24" height="0.241"/>
		<rect x="90.945" y="49.566" fill="#068E46" width="0.242" height="0.242"/>
		<rect x="89.988" y="47.033" fill="#068E46" width="0.242" height="0.241"/>
		<rect x="90.463" y="47.397" fill="#068E46" width="0.24" height="0.242"/>
		<rect x="90.945" y="47.033" fill="#068E46" width="0.242" height="0.241"/>
		<rect x="89.988" y="47.873" fill="#068E46" width="0.242" height="0.242"/>
		<rect x="90.945" y="47.873" fill="#068E46" width="0.242" height="0.242"/>
		<rect x="91.928" y="52.098" fill="#068E46" width="0.242" height="0.242"/>
		<rect x="91.451" y="51.732" fill="#068E46" width="0.24" height="0.242"/>
		<rect x="91.451" y="52.463" fill="#068E46" width="0.24" height="0.242"/>
		<rect x="92.402" y="51.732" fill="#068E46" width="0.24" height="0.242"/>
		<rect x="92.402" y="52.463" fill="#068E46" width="0.24" height="0.242"/>
		<rect x="92.885" y="52.098" fill="#068E46" width="0.242" height="0.242"/>
		<rect x="91.928" y="52.938" fill="#068E46" width="0.242" height="0.242"/>
		<rect x="91.451" y="53.303" fill="#068E46" width="0.24" height="0.242"/>
		<rect x="92.402" y="53.303" fill="#068E46" width="0.24" height="0.242"/>
		<rect x="92.885" y="52.938" fill="#068E46" width="0.242" height="0.242"/>
		<rect x="91.928" y="50.403" fill="#068E46" width="0.242" height="0.244"/>
		<rect x="91.451" y="50.77" fill="#068E46" width="0.24" height="0.242"/>
		<rect x="92.402" y="50.77" fill="#068E46" width="0.24" height="0.242"/>
		<rect x="92.885" y="50.403" fill="#068E46" width="0.242" height="0.244"/>
		<rect x="91.928" y="51.244" fill="#068E46" width="0.242" height="0.242"/>
		<rect x="92.885" y="51.244" fill="#068E46" width="0.242" height="0.242"/>
		<rect x="91.928" y="55.375" fill="#068E46" width="0.242" height="0.242"/>
		<rect x="91.451" y="55.01" fill="#068E46" width="0.24" height="0.242"/>
		<rect x="91.451" y="55.74" fill="#068E46" width="0.24" height="0.242"/>
		<rect x="92.402" y="55.01" fill="#068E46" width="0.24" height="0.242"/>
		<rect x="92.402" y="55.74" fill="#068E46" width="0.24" height="0.242"/>
		<rect x="92.885" y="55.375" fill="#068E46" width="0.242" height="0.242"/>
		<rect x="91.928" y="56.215" fill="#068E46" width="0.242" height="0.242"/>
		<rect x="92.885" y="56.215" fill="#068E46" width="0.242" height="0.242"/>
		<rect x="91.928" y="53.682" fill="#068E46" width="0.242" height="0.242"/>
		<rect x="91.451" y="54.047" fill="#068E46" width="0.24" height="0.242"/>
		<rect x="92.402" y="54.047" fill="#068E46" width="0.24" height="0.242"/>
		<rect x="92.885" y="53.682" fill="#068E46" width="0.242" height="0.242"/>
		<rect x="91.928" y="54.521" fill="#068E46" width="0.242" height="0.242"/>
		<rect x="92.885" y="54.521" fill="#068E46" width="0.242" height="0.242"/>
		<rect x="89.988" y="52.098" fill="#068E46" width="0.242" height="0.242"/>
		<rect x="90.463" y="51.732" fill="#068E46" width="0.24" height="0.242"/>
		<rect x="90.463" y="52.463" fill="#068E46" width="0.24" height="0.242"/>
		<rect x="90.945" y="52.098" fill="#068E46" width="0.242" height="0.242"/>
		<rect x="89.988" y="52.938" fill="#068E46" width="0.242" height="0.242"/>
		<rect x="90.463" y="53.303" fill="#068E46" width="0.24" height="0.242"/>
		<rect x="90.945" y="52.938" fill="#068E46" width="0.242" height="0.242"/>
		<rect x="89.988" y="50.403" fill="#068E46" width="0.242" height="0.244"/>
		<rect x="90.463" y="50.77" fill="#068E46" width="0.24" height="0.242"/>
		<rect x="90.945" y="50.403" fill="#068E46" width="0.242" height="0.244"/>
		<rect x="89.988" y="51.244" fill="#068E46" width="0.242" height="0.242"/>
		<rect x="90.945" y="51.244" fill="#068E46" width="0.242" height="0.242"/>
		<rect x="89.988" y="55.375" fill="#068E46" width="0.242" height="0.242"/>
		<rect x="90.463" y="55.01" fill="#068E46" width="0.24" height="0.242"/>
		<rect x="90.463" y="55.74" fill="#068E46" width="0.24" height="0.242"/>
		<rect x="90.945" y="55.375" fill="#068E46" width="0.242" height="0.242"/>
		<rect x="89.988" y="56.215" fill="#068E46" width="0.242" height="0.242"/>
		<rect x="90.945" y="56.215" fill="#068E46" width="0.242" height="0.242"/>
		<rect x="89.988" y="53.682" fill="#068E46" width="0.242" height="0.242"/>
		<rect x="90.463" y="54.047" fill="#068E46" width="0.24" height="0.242"/>
		<rect x="90.945" y="53.682" fill="#068E46" width="0.242" height="0.242"/>
		<rect x="89.988" y="54.521" fill="#068E46" width="0.242" height="0.242"/>
		<rect x="90.945" y="54.521" fill="#068E46" width="0.242" height="0.242"/>
		<rect x="89.982" y="42.155" fill="#068E46" width="0.242" height="0.243"/>
		<rect x="90.455" y="41.791" fill="#068E46" width="0.242" height="0.242"/>
		<rect x="90.455" y="42.521" fill="#068E46" width="0.242" height="0.242"/>
		<rect x="90.939" y="42.155" fill="#068E46" width="0.242" height="0.243"/>
		<rect x="91.412" y="41.791" fill="#068E46" width="0.242" height="0.242"/>
		<rect x="91.412" y="42.521" fill="#068E46" width="0.242" height="0.242"/>
		<rect x="91.906" y="42.155" fill="#068E46" width="0.24" height="0.243"/>
		<rect x="92.377" y="41.791" fill="#068E46" width="0.242" height="0.242"/>
		<rect x="92.377" y="42.521" fill="#068E46" width="0.242" height="0.242"/>
		<rect x="92.861" y="42.155" fill="#068E46" width="0.242" height="0.243"/>
		<rect x="89.982" y="42.996" fill="#068E46" width="0.242" height="0.242"/>
		<rect x="90.939" y="42.996" fill="#068E46" width="0.242" height="0.242"/>
		<rect x="91.906" y="42.996" fill="#068E46" width="0.24" height="0.242"/>
		<rect x="92.861" y="42.996" fill="#068E46" width="0.242" height="0.242"/>
		<rect x="90.455" y="40.828" fill="#068E46" width="0.242" height="0.242"/>
		<rect x="91.412" y="40.828" fill="#068E46" width="0.242" height="0.242"/>
		<rect x="92.377" y="40.828" fill="#068E46" width="0.242" height="0.242"/>
		<rect x="89.982" y="41.303" fill="#068E46" width="0.242" height="0.242"/>
		<rect x="90.939" y="41.303" fill="#068E46" width="0.242" height="0.242"/>
		<rect x="91.906" y="41.303" fill="#068E46" width="0.24" height="0.242"/>
		<rect x="92.861" y="41.303" fill="#068E46" width="0.242" height="0.242"/>
		<rect x="93.49" y="65.678" fill="#068E46" width="0.242" height="0.242"/>
		<rect x="93.963" y="65.313" fill="#068E46" width="0.242" height="0.242"/>
		<rect x="93.963" y="66.043" fill="#068E46" width="0.242" height="0.242"/>
		<rect x="94.445" y="65.678" fill="#068E46" width="0.242" height="0.242"/>
		<rect x="94.445" y="66.518" fill="#068E46" width="0.242" height="0.244"/>
		<rect x="93.963" y="64.35" fill="#068E46" width="0.242" height="0.242"/>
		<rect x="93.49" y="64.824" fill="#068E46" width="0.242" height="0.244"/>
		<rect x="94.445" y="64.824" fill="#068E46" width="0.242" height="0.244"/>
		<g>
			<path fill="none" stroke="#068E46" stroke-width="1.725" stroke-linecap="round" stroke-linejoin="round" d="M87.738,76.904
				h-29.4V52.369h29.4V76.904z"/>
			
				<rect x="89.953" y="40.966" fill="none" stroke="#068E46" stroke-width="1.15" stroke-linecap="round" stroke-linejoin="round" stroke-dasharray="2.3,2.3" width="3.082" height="28.538"/>
			<path fill="none" stroke="#068E46" stroke-width="0.575" stroke-linecap="round" stroke-linejoin="round" d="M93.037,69.443
				h-3.025v-8.572h3.025V69.443z M93.121,53.389h-3.193V40.867h3.193V53.389z"/>
			
				<rect x="63.783" y="59.209" fill="none" stroke="#068E46" stroke-width="1.15" stroke-linejoin="round" width="18.77" height="12.867"/>
			<path fill="none" stroke="#068E46" stroke-width="1.15" d="M63.738,70.932l-1.162-1.354v-8.01l1.207-1.217 M87.268,63.928
				l-2.91-0.018c0,0,0.01-1.576,0.01-2.049c-0.338-0.713-2.014-1.248-2.014-1.248 M87.334,67.357l-2.91,0.016
				c0,0,0.012,1.576,0.012,2.051c-0.336,0.713-2.014,1.246-2.014,1.246"/>
			
				<rect x="87.785" y="64.066" fill="none" stroke="#068E46" stroke-width="1.15" stroke-linejoin="round" width="7.148" height="3.139"/>
			<polyline fill="none" stroke="#068E46" stroke-width="1.725" stroke-linecap="round" stroke-linejoin="round" points="
				72.02,70.195 75.143,64.59 71.707,66.191 74.83,60.988 			"/>
		</g>
	</g>
</g>
</svg>
