<?xml version="1.0" encoding="utf-8"?>
<!-- Generator: Adobe Illustrator 16.0.0, SVG Export Plug-In . SVG Version: 6.00 Build 0)  -->
<!DOCTYPE svg PUBLIC "-//W3C//DTD SVG 1.1//EN" "http://www.w3.org/Graphics/SVG/1.1/DTD/svg11.dtd">
<svg version="1.1" id="Layer_1" xmlns="http://www.w3.org/2000/svg" xmlns:xlink="http://www.w3.org/1999/xlink" x="0px" y="0px"
	 width="100px" height="100px" viewBox="0 0 100 100" enable-background="new 0 0 100 100" xml:space="preserve">
<g>
	<g>
		<path fill="none" stroke="#2175BB" stroke-width="1.755" d="M51.955,28.878l0.773,0.51h1.348l0.58,0.546v33.23l-2.689,0.639v13.41
			l-37.969,0.168l-0.615,1.533h-2.891l3.378-0.012l-0.022-14.857c0,0-0.581,0.012-0.813,0.012c-1.032-0.068-1.624-0.43-1.624-0.592
			s0.015-32.417,0.015-32.417s0.109-1.272,0.752-1.272c0.644,0,1.229-0.017,1.229-0.017v-8.658l38.549-0.015V28.878z"/>
		<rect x="54.57" y="42.736" fill="#2175BB" width="5.971" height="8.531"/>
		<rect x="5.707" y="43.007" fill="#2175BB" width="5.653" height="8.499"/>
		
			<rect x="2.533" y="45.493" fill="none" stroke="#2175BB" stroke-width="1.17" stroke-linecap="round" stroke-linejoin="round" width="3.93" height="3.554"/>
		
			<rect x="55.85" y="45.087" fill="none" stroke="#2175BB" stroke-width="1.462" stroke-linecap="round" stroke-linejoin="round" width="13.181" height="3.631"/>
		<path fill="none" stroke="#2175BB" stroke-width="1.17" d="M52.145,49.152H14.004 M52.32,29.492v34.414 M13.694,29.951v33.955"/>
		
			<rect x="16.978" y="51.971" fill="none" stroke="#2175BB" stroke-width="1.755" stroke-linecap="round" stroke-linejoin="round" width="31.392" height="22.779"/>
		
			<rect x="20.673" y="54" fill="none" stroke="#2175BB" stroke-width="1.17" stroke-linecap="round" stroke-linejoin="round" width="23.54" height="10.625"/>
		<path fill="none" stroke="#2175BB" stroke-width="0.877" stroke-linecap="round" stroke-linejoin="round" d="M44.109,63.348
			H20.665 M44.109,61.631H20.665 M44.109,58.902H20.665 M44.109,56.479H20.665"/>
		<path fill="none" stroke="#2175BB" stroke-width="1.17" stroke-linecap="round" stroke-linejoin="round" d="M18.598,62.18
			l2.115-1.598 M44.213,54.68v-1.051 M20.673,54.68v-0.928"/>
		<line fill="none" stroke="#2175BB" stroke-width="1.17" x1="12.806" y1="63.965" x2="13.774" y2="65.004"/>
		<polyline fill="none" stroke="#2175BB" stroke-width="1.755" points="52.293,70.039 52.326,78.508 55.506,78.52 		"/>
		
			<line fill="none" stroke="#2175BB" stroke-width="1.17" stroke-linecap="round" stroke-linejoin="round" x1="46.826" y1="61.779" x2="44.395" y2="59.777"/>
		
			<line fill="none" stroke="#2175BB" stroke-width="0.877" stroke-linecap="round" stroke-linejoin="round" x1="32.277" y1="64.561" x2="32.277" y2="53.746"/>
	</g>
	<g>
		<rect x="64.113" y="57.965" fill="#068E46" width="0.24" height="0.24"/>
		<rect x="64.113" y="58.693" fill="#068E46" width="0.24" height="0.242"/>
		<rect x="63.162" y="57.965" fill="#068E46" width="0.24" height="0.24"/>
		<rect x="63.162" y="58.693" fill="#068E46" width="0.24" height="0.242"/>
		<rect x="62.678" y="58.328" fill="#068E46" width="0.242" height="0.244"/>
		<rect x="63.635" y="59.17" fill="#068E46" width="0.242" height="0.242"/>
		<rect x="64.113" y="59.533" fill="#068E46" width="0.24" height="0.244"/>
		<rect x="63.162" y="59.533" fill="#068E46" width="0.24" height="0.244"/>
		<rect x="62.678" y="59.17" fill="#068E46" width="0.242" height="0.242"/>
		<rect x="63.635" y="56.635" fill="#068E46" width="0.242" height="0.244"/>
		<rect x="64.113" y="56.271" fill="#068E46" width="0.24" height="0.242"/>
		<rect x="64.113" y="57" fill="#068E46" width="0.24" height="0.244"/>
		<rect x="63.162" y="56.271" fill="#068E46" width="0.24" height="0.242"/>
		<rect x="63.162" y="57" fill="#068E46" width="0.24" height="0.244"/>
		<rect x="63.635" y="58.328" fill="#068E46" width="0.242" height="0.244"/>
		<rect x="62.678" y="56.635" fill="#068E46" width="0.242" height="0.244"/>
		<rect x="63.635" y="57.477" fill="#068E46" width="0.242" height="0.242"/>
		<rect x="62.678" y="57.477" fill="#068E46" width="0.242" height="0.242"/>
		<rect x="63.635" y="61.607" fill="#068E46" width="0.242" height="0.242"/>
		<rect x="64.113" y="61.242" fill="#068E46" width="0.24" height="0.242"/>
		<rect x="64.113" y="61.971" fill="#068E46" width="0.24" height="0.244"/>
		<rect x="63.162" y="61.242" fill="#068E46" width="0.24" height="0.242"/>
		<rect x="63.162" y="61.971" fill="#068E46" width="0.24" height="0.244"/>
		<rect x="62.678" y="61.607" fill="#068E46" width="0.242" height="0.242"/>
		<rect x="63.635" y="62.449" fill="#068E46" width="0.242" height="0.24"/>
		<rect x="64.113" y="62.813" fill="#068E46" width="0.24" height="0.242"/>
		<rect x="63.162" y="62.813" fill="#068E46" width="0.24" height="0.242"/>
		<rect x="62.678" y="62.449" fill="#068E46" width="0.242" height="0.24"/>
		<rect x="63.635" y="59.914" fill="#068E46" width="0.242" height="0.242"/>
		<rect x="64.113" y="60.277" fill="#068E46" width="0.24" height="0.242"/>
		<rect x="63.162" y="60.277" fill="#068E46" width="0.24" height="0.242"/>
		<rect x="62.678" y="59.914" fill="#068E46" width="0.242" height="0.242"/>
		<rect x="63.635" y="60.754" fill="#068E46" width="0.242" height="0.242"/>
		<rect x="62.678" y="60.754" fill="#068E46" width="0.242" height="0.242"/>
		<rect x="65.574" y="58.328" fill="#068E46" width="0.242" height="0.244"/>
		<rect x="65.102" y="57.965" fill="#068E46" width="0.24" height="0.24"/>
		<rect x="65.102" y="58.693" fill="#068E46" width="0.24" height="0.242"/>
		<rect x="64.617" y="58.328" fill="#068E46" width="0.242" height="0.244"/>
		<rect x="65.574" y="59.17" fill="#068E46" width="0.242" height="0.242"/>
		<rect x="65.102" y="59.533" fill="#068E46" width="0.24" height="0.244"/>
		<rect x="64.617" y="59.17" fill="#068E46" width="0.242" height="0.242"/>
		<rect x="65.574" y="56.635" fill="#068E46" width="0.242" height="0.244"/>
		<rect x="65.102" y="56.271" fill="#068E46" width="0.24" height="0.242"/>
		<rect x="65.102" y="57" fill="#068E46" width="0.24" height="0.244"/>
		<rect x="64.617" y="56.635" fill="#068E46" width="0.242" height="0.244"/>
		<rect x="65.574" y="57.477" fill="#068E46" width="0.242" height="0.242"/>
		<rect x="64.617" y="57.477" fill="#068E46" width="0.242" height="0.242"/>
		<rect x="65.574" y="61.607" fill="#068E46" width="0.242" height="0.242"/>
		<rect x="65.102" y="61.242" fill="#068E46" width="0.24" height="0.242"/>
		<rect x="65.102" y="61.971" fill="#068E46" width="0.24" height="0.244"/>
		<rect x="64.617" y="61.607" fill="#068E46" width="0.242" height="0.242"/>
		<rect x="67.975" y="62.813" fill="#068E46" width="0.242" height="0.242"/>
		<rect x="65.574" y="62.449" fill="#068E46" width="0.242" height="0.24"/>
		<rect x="65.102" y="62.813" fill="#068E46" width="0.24" height="0.242"/>
		<rect x="64.617" y="62.449" fill="#068E46" width="0.242" height="0.24"/>
		<rect x="65.574" y="59.914" fill="#068E46" width="0.242" height="0.242"/>
		<rect x="65.102" y="60.277" fill="#068E46" width="0.24" height="0.242"/>
		<rect x="64.617" y="59.914" fill="#068E46" width="0.242" height="0.242"/>
		<rect x="65.574" y="60.754" fill="#068E46" width="0.242" height="0.242"/>
		<rect x="64.617" y="60.754" fill="#068E46" width="0.242" height="0.242"/>
		<rect x="63.635" y="64.979" fill="#068E46" width="0.242" height="0.242"/>
		<rect x="64.113" y="64.613" fill="#068E46" width="0.24" height="0.242"/>
		<rect x="64.113" y="65.344" fill="#068E46" width="0.24" height="0.242"/>
		<rect x="63.162" y="64.613" fill="#068E46" width="0.24" height="0.242"/>
		<rect x="63.162" y="65.344" fill="#068E46" width="0.24" height="0.242"/>
		<rect x="62.678" y="64.979" fill="#068E46" width="0.242" height="0.242"/>
		<rect x="63.635" y="65.82" fill="#068E46" width="0.242" height="0.242"/>
		<rect x="64.113" y="66.184" fill="#068E46" width="0.24" height="0.244"/>
		<rect x="63.162" y="66.184" fill="#068E46" width="0.24" height="0.244"/>
		<rect x="62.678" y="65.82" fill="#068E46" width="0.242" height="0.242"/>
		<rect x="63.635" y="63.285" fill="#068E46" width="0.242" height="0.244"/>
		<rect x="64.113" y="63.65" fill="#068E46" width="0.24" height="0.244"/>
		<rect x="63.162" y="63.65" fill="#068E46" width="0.24" height="0.244"/>
		<rect x="62.678" y="63.285" fill="#068E46" width="0.242" height="0.244"/>
		<rect x="63.635" y="64.127" fill="#068E46" width="0.242" height="0.24"/>
		<rect x="62.678" y="64.127" fill="#068E46" width="0.242" height="0.24"/>
		<rect x="63.635" y="68.256" fill="#068E46" width="0.242" height="0.242"/>
		<rect x="64.113" y="67.893" fill="#068E46" width="0.24" height="0.24"/>
		<rect x="64.113" y="68.621" fill="#068E46" width="0.24" height="0.244"/>
		<rect x="63.162" y="67.893" fill="#068E46" width="0.24" height="0.24"/>
		<rect x="63.162" y="68.621" fill="#068E46" width="0.24" height="0.244"/>
		<rect x="62.678" y="68.256" fill="#068E46" width="0.242" height="0.242"/>
		<rect x="63.635" y="69.098" fill="#068E46" width="0.242" height="0.242"/>
		<rect x="62.678" y="69.098" fill="#068E46" width="0.242" height="0.242"/>
		<rect x="63.635" y="66.564" fill="#068E46" width="0.242" height="0.24"/>
		<rect x="64.113" y="66.928" fill="#068E46" width="0.24" height="0.242"/>
		<rect x="63.162" y="66.928" fill="#068E46" width="0.24" height="0.242"/>
		<rect x="62.678" y="66.564" fill="#068E46" width="0.242" height="0.24"/>
		<rect x="63.635" y="67.404" fill="#068E46" width="0.242" height="0.242"/>
		<rect x="62.678" y="67.404" fill="#068E46" width="0.242" height="0.242"/>
		<rect x="67.496" y="64.979" fill="#068E46" width="0.242" height="0.242"/>
		<rect x="67.975" y="64.613" fill="#068E46" width="0.242" height="0.242"/>
		<rect x="67.975" y="65.344" fill="#068E46" width="0.242" height="0.242"/>
		<rect x="67.023" y="64.613" fill="#068E46" width="0.242" height="0.242"/>
		<rect x="67.023" y="65.344" fill="#068E46" width="0.242" height="0.242"/>
		<rect x="66.541" y="64.979" fill="#068E46" width="0.242" height="0.242"/>
		<rect x="66.068" y="64.613" fill="#068E46" width="0.242" height="0.242"/>
		<rect x="66.068" y="65.344" fill="#068E46" width="0.242" height="0.242"/>
		<rect x="65.574" y="64.979" fill="#068E46" width="0.242" height="0.242"/>
		<rect x="65.102" y="64.613" fill="#068E46" width="0.24" height="0.242"/>
		<rect x="65.102" y="65.344" fill="#068E46" width="0.24" height="0.242"/>
		<rect x="64.617" y="64.979" fill="#068E46" width="0.242" height="0.242"/>
		<rect x="67.496" y="65.82" fill="#068E46" width="0.242" height="0.242"/>
		<rect x="67.975" y="66.184" fill="#068E46" width="0.242" height="0.244"/>
		<rect x="67.023" y="66.184" fill="#068E46" width="0.242" height="0.244"/>
		<rect x="66.541" y="65.82" fill="#068E46" width="0.242" height="0.242"/>
		<rect x="66.068" y="66.184" fill="#068E46" width="0.242" height="0.244"/>
		<rect x="65.574" y="65.82" fill="#068E46" width="0.242" height="0.242"/>
		<rect x="65.102" y="66.184" fill="#068E46" width="0.24" height="0.244"/>
		<rect x="64.617" y="65.82" fill="#068E46" width="0.242" height="0.242"/>
		<rect x="67.975" y="63.65" fill="#068E46" width="0.242" height="0.244"/>
		<rect x="67.023" y="63.65" fill="#068E46" width="0.242" height="0.244"/>
		<rect x="66.068" y="63.65" fill="#068E46" width="0.242" height="0.244"/>
		<rect x="65.574" y="63.285" fill="#068E46" width="0.242" height="0.244"/>
		<rect x="65.102" y="63.65" fill="#068E46" width="0.24" height="0.244"/>
		<rect x="64.617" y="63.285" fill="#068E46" width="0.242" height="0.244"/>
		<rect x="67.496" y="64.127" fill="#068E46" width="0.242" height="0.24"/>
		<rect x="66.541" y="64.127" fill="#068E46" width="0.242" height="0.24"/>
		<rect x="65.574" y="64.127" fill="#068E46" width="0.242" height="0.24"/>
		<rect x="64.617" y="64.127" fill="#068E46" width="0.242" height="0.24"/>
		<rect x="67.975" y="67.893" fill="#068E46" width="0.242" height="0.24"/>
		<rect x="67.975" y="68.621" fill="#068E46" width="0.242" height="0.244"/>
		<rect x="65.574" y="68.256" fill="#068E46" width="0.242" height="0.242"/>
		<rect x="65.102" y="67.893" fill="#068E46" width="0.24" height="0.24"/>
		<rect x="65.102" y="68.621" fill="#068E46" width="0.24" height="0.244"/>
		<rect x="64.617" y="68.256" fill="#068E46" width="0.242" height="0.242"/>
		<rect x="67.496" y="66.564" fill="#068E46" width="0.242" height="0.24"/>
		<rect x="67.975" y="66.928" fill="#068E46" width="0.242" height="0.242"/>
		<rect x="66.541" y="66.564" fill="#068E46" width="0.242" height="0.24"/>
		<rect x="65.574" y="66.564" fill="#068E46" width="0.242" height="0.24"/>
		<rect x="65.102" y="66.928" fill="#068E46" width="0.24" height="0.242"/>
		<rect x="64.617" y="66.564" fill="#068E46" width="0.242" height="0.24"/>
		<rect x="65.574" y="67.404" fill="#068E46" width="0.242" height="0.242"/>
		<rect x="64.617" y="67.404" fill="#068E46" width="0.242" height="0.242"/>
		<rect x="63.635" y="45.03" fill="#068E46" width="0.242" height="0.242"/>
		<rect x="64.113" y="44.666" fill="#068E46" width="0.24" height="0.241"/>
		<rect x="64.113" y="45.396" fill="#068E46" width="0.24" height="0.242"/>
		<rect x="63.162" y="44.666" fill="#068E46" width="0.24" height="0.241"/>
		<rect x="63.162" y="45.396" fill="#068E46" width="0.24" height="0.242"/>
		<rect x="62.678" y="45.03" fill="#068E46" width="0.242" height="0.242"/>
		<rect x="63.635" y="45.871" fill="#068E46" width="0.242" height="0.241"/>
		<rect x="64.113" y="46.235" fill="#068E46" width="0.24" height="0.242"/>
		<rect x="63.162" y="46.235" fill="#068E46" width="0.24" height="0.242"/>
		<rect x="62.678" y="45.871" fill="#068E46" width="0.242" height="0.241"/>
		<rect x="63.635" y="43.336" fill="#068E46" width="0.242" height="0.243"/>
		<rect x="64.113" y="42.973" fill="#068E46" width="0.24" height="0.241"/>
		<rect x="64.113" y="43.701" fill="#068E46" width="0.24" height="0.243"/>
		<rect x="63.162" y="42.973" fill="#068E46" width="0.24" height="0.241"/>
		<rect x="63.162" y="43.701" fill="#068E46" width="0.24" height="0.243"/>
		<rect x="62.678" y="43.336" fill="#068E46" width="0.242" height="0.243"/>
		<rect x="63.635" y="44.178" fill="#068E46" width="0.242" height="0.242"/>
		<rect x="62.678" y="44.178" fill="#068E46" width="0.242" height="0.242"/>
		<rect x="63.635" y="48.308" fill="#068E46" width="0.242" height="0.242"/>
		<rect x="64.113" y="47.942" fill="#068E46" width="0.24" height="0.242"/>
		<rect x="64.113" y="48.673" fill="#068E46" width="0.24" height="0.242"/>
		<rect x="63.162" y="47.942" fill="#068E46" width="0.24" height="0.242"/>
		<rect x="63.162" y="48.673" fill="#068E46" width="0.24" height="0.242"/>
		<rect x="62.678" y="48.308" fill="#068E46" width="0.242" height="0.242"/>
		<rect x="62.205" y="48.673" fill="#068E46" width="0.242" height="0.242"/>
		<rect x="63.635" y="49.149" fill="#068E46" width="0.242" height="0.242"/>
		<rect x="64.113" y="49.515" fill="#068E46" width="0.24" height="0.24"/>
		<rect x="63.162" y="49.515" fill="#068E46" width="0.24" height="0.24"/>
		<rect x="62.678" y="49.149" fill="#068E46" width="0.242" height="0.242"/>
		<rect x="63.635" y="46.616" fill="#068E46" width="0.242" height="0.24"/>
		<rect x="64.113" y="46.979" fill="#068E46" width="0.24" height="0.242"/>
		<rect x="63.162" y="46.979" fill="#068E46" width="0.24" height="0.242"/>
		<rect x="62.678" y="46.616" fill="#068E46" width="0.242" height="0.24"/>
		<rect x="63.635" y="47.456" fill="#068E46" width="0.242" height="0.242"/>
		<rect x="62.678" y="47.456" fill="#068E46" width="0.242" height="0.242"/>
		<rect x="65.574" y="45.03" fill="#068E46" width="0.242" height="0.242"/>
		<rect x="65.102" y="44.666" fill="#068E46" width="0.24" height="0.241"/>
		<rect x="65.102" y="45.396" fill="#068E46" width="0.24" height="0.242"/>
		<rect x="64.617" y="45.03" fill="#068E46" width="0.242" height="0.242"/>
		<rect x="65.574" y="45.871" fill="#068E46" width="0.242" height="0.241"/>
		<rect x="65.102" y="46.235" fill="#068E46" width="0.24" height="0.242"/>
		<rect x="64.617" y="45.871" fill="#068E46" width="0.242" height="0.241"/>
		<rect x="65.574" y="43.336" fill="#068E46" width="0.242" height="0.243"/>
		<rect x="65.102" y="42.973" fill="#068E46" width="0.24" height="0.241"/>
		<rect x="65.102" y="43.701" fill="#068E46" width="0.24" height="0.243"/>
		<rect x="64.617" y="43.336" fill="#068E46" width="0.242" height="0.243"/>
		<rect x="65.574" y="44.178" fill="#068E46" width="0.242" height="0.242"/>
		<rect x="64.617" y="44.178" fill="#068E46" width="0.242" height="0.242"/>
		<rect x="65.574" y="48.308" fill="#068E46" width="0.242" height="0.242"/>
		<rect x="65.102" y="47.942" fill="#068E46" width="0.24" height="0.242"/>
		<rect x="65.102" y="48.673" fill="#068E46" width="0.24" height="0.242"/>
		<rect x="64.617" y="48.308" fill="#068E46" width="0.242" height="0.242"/>
		<rect x="65.574" y="49.149" fill="#068E46" width="0.242" height="0.242"/>
		<rect x="65.102" y="49.515" fill="#068E46" width="0.24" height="0.24"/>
		<rect x="64.617" y="49.149" fill="#068E46" width="0.242" height="0.242"/>
		<rect x="65.574" y="46.616" fill="#068E46" width="0.242" height="0.24"/>
		<rect x="65.102" y="46.979" fill="#068E46" width="0.24" height="0.242"/>
		<rect x="64.617" y="46.616" fill="#068E46" width="0.242" height="0.24"/>
		<rect x="65.574" y="47.456" fill="#068E46" width="0.242" height="0.242"/>
		<rect x="64.617" y="47.456" fill="#068E46" width="0.242" height="0.242"/>
		<rect x="63.635" y="51.681" fill="#068E46" width="0.242" height="0.242"/>
		<rect x="64.113" y="51.315" fill="#068E46" width="0.24" height="0.242"/>
		<rect x="64.113" y="52.046" fill="#068E46" width="0.24" height="0.241"/>
		<rect x="63.162" y="51.315" fill="#068E46" width="0.24" height="0.242"/>
		<rect x="63.162" y="52.046" fill="#068E46" width="0.24" height="0.241"/>
		<rect x="62.678" y="51.681" fill="#068E46" width="0.242" height="0.242"/>
		<rect x="63.635" y="52.52" fill="#068E46" width="0.242" height="0.242"/>
		<rect x="64.113" y="52.885" fill="#068E46" width="0.24" height="0.242"/>
		<rect x="63.162" y="52.885" fill="#068E46" width="0.24" height="0.242"/>
		<rect x="62.678" y="52.52" fill="#068E46" width="0.242" height="0.242"/>
		<rect x="63.635" y="49.985" fill="#068E46" width="0.242" height="0.244"/>
		<rect x="64.113" y="50.353" fill="#068E46" width="0.24" height="0.242"/>
		<rect x="63.162" y="50.353" fill="#068E46" width="0.24" height="0.242"/>
		<rect x="62.678" y="49.985" fill="#068E46" width="0.242" height="0.244"/>
		<rect x="63.635" y="50.827" fill="#068E46" width="0.242" height="0.242"/>
		<rect x="62.678" y="50.827" fill="#068E46" width="0.242" height="0.242"/>
		<rect x="63.635" y="54.957" fill="#068E46" width="0.242" height="0.242"/>
		<rect x="64.113" y="54.592" fill="#068E46" width="0.24" height="0.242"/>
		<rect x="64.113" y="55.322" fill="#068E46" width="0.24" height="0.242"/>
		<rect x="63.162" y="54.592" fill="#068E46" width="0.24" height="0.242"/>
		<rect x="63.162" y="55.322" fill="#068E46" width="0.24" height="0.242"/>
		<rect x="62.678" y="54.957" fill="#068E46" width="0.242" height="0.242"/>
		<rect x="63.635" y="55.797" fill="#068E46" width="0.242" height="0.242"/>
		<rect x="62.678" y="55.797" fill="#068E46" width="0.242" height="0.242"/>
		<rect x="63.635" y="53.264" fill="#068E46" width="0.242" height="0.242"/>
		<rect x="64.113" y="53.629" fill="#068E46" width="0.24" height="0.242"/>
		<rect x="63.162" y="53.629" fill="#068E46" width="0.24" height="0.242"/>
		<rect x="62.678" y="53.264" fill="#068E46" width="0.242" height="0.242"/>
		<rect x="63.635" y="54.104" fill="#068E46" width="0.242" height="0.242"/>
		<rect x="62.678" y="54.104" fill="#068E46" width="0.242" height="0.242"/>
		<rect x="65.574" y="51.681" fill="#068E46" width="0.242" height="0.242"/>
		<rect x="65.102" y="51.315" fill="#068E46" width="0.24" height="0.242"/>
		<rect x="65.102" y="52.046" fill="#068E46" width="0.24" height="0.241"/>
		<rect x="64.617" y="51.681" fill="#068E46" width="0.242" height="0.242"/>
		<rect x="65.574" y="52.52" fill="#068E46" width="0.242" height="0.242"/>
		<rect x="65.102" y="52.885" fill="#068E46" width="0.24" height="0.242"/>
		<rect x="64.617" y="52.52" fill="#068E46" width="0.242" height="0.242"/>
		<rect x="65.574" y="49.985" fill="#068E46" width="0.242" height="0.244"/>
		<rect x="65.102" y="50.353" fill="#068E46" width="0.24" height="0.242"/>
		<rect x="64.617" y="49.985" fill="#068E46" width="0.242" height="0.244"/>
		<rect x="65.574" y="50.827" fill="#068E46" width="0.242" height="0.242"/>
		<rect x="64.617" y="50.827" fill="#068E46" width="0.242" height="0.242"/>
		<rect x="65.574" y="54.957" fill="#068E46" width="0.242" height="0.242"/>
		<rect x="65.102" y="54.592" fill="#068E46" width="0.24" height="0.242"/>
		<rect x="65.102" y="55.322" fill="#068E46" width="0.24" height="0.242"/>
		<rect x="64.617" y="54.957" fill="#068E46" width="0.242" height="0.242"/>
		<rect x="65.574" y="55.797" fill="#068E46" width="0.242" height="0.242"/>
		<rect x="64.617" y="55.797" fill="#068E46" width="0.242" height="0.242"/>
		<rect x="65.574" y="53.264" fill="#068E46" width="0.242" height="0.242"/>
		<rect x="65.102" y="53.629" fill="#068E46" width="0.24" height="0.242"/>
		<rect x="64.617" y="53.264" fill="#068E46" width="0.242" height="0.242"/>
		<rect x="65.574" y="54.104" fill="#068E46" width="0.242" height="0.242"/>
		<rect x="64.617" y="54.104" fill="#068E46" width="0.242" height="0.242"/>
		<rect x="65.58" y="41.737" fill="#068E46" width="0.242" height="0.244"/>
		<rect x="65.107" y="41.374" fill="#068E46" width="0.242" height="0.242"/>
		<rect x="65.107" y="42.104" fill="#068E46" width="0.242" height="0.241"/>
		<rect x="64.623" y="41.737" fill="#068E46" width="0.242" height="0.244"/>
		<rect x="64.15" y="41.374" fill="#068E46" width="0.242" height="0.242"/>
		<rect x="64.15" y="42.104" fill="#068E46" width="0.242" height="0.241"/>
		<rect x="63.658" y="41.737" fill="#068E46" width="0.24" height="0.244"/>
		<rect x="63.186" y="41.374" fill="#068E46" width="0.242" height="0.242"/>
		<rect x="63.186" y="42.104" fill="#068E46" width="0.242" height="0.241"/>
		<rect x="62.701" y="41.737" fill="#068E46" width="0.242" height="0.244"/>
		<rect x="65.58" y="42.579" fill="#068E46" width="0.242" height="0.242"/>
		<rect x="64.623" y="42.579" fill="#068E46" width="0.242" height="0.242"/>
		<rect x="63.658" y="42.579" fill="#068E46" width="0.24" height="0.242"/>
		<rect x="62.701" y="42.579" fill="#068E46" width="0.242" height="0.242"/>
		<rect x="65.107" y="40.411" fill="#068E46" width="0.242" height="0.241"/>
		<rect x="64.15" y="40.411" fill="#068E46" width="0.242" height="0.241"/>
		<rect x="63.186" y="40.411" fill="#068E46" width="0.242" height="0.241"/>
		<rect x="65.58" y="40.886" fill="#068E46" width="0.242" height="0.242"/>
		<rect x="64.623" y="40.886" fill="#068E46" width="0.242" height="0.242"/>
		<rect x="63.658" y="40.886" fill="#068E46" width="0.24" height="0.242"/>
		<rect x="62.701" y="40.886" fill="#068E46" width="0.242" height="0.242"/>
		<rect x="62.072" y="65.26" fill="#068E46" width="0.242" height="0.242"/>
		<rect x="61.6" y="64.895" fill="#068E46" width="0.242" height="0.242"/>
		<rect x="61.6" y="65.625" fill="#068E46" width="0.242" height="0.242"/>
		<rect x="61.117" y="65.26" fill="#068E46" width="0.242" height="0.242"/>
		<rect x="61.117" y="66.1" fill="#068E46" width="0.242" height="0.244"/>
		<rect x="61.6" y="63.932" fill="#068E46" width="0.242" height="0.242"/>
		<rect x="62.072" y="64.406" fill="#068E46" width="0.242" height="0.244"/>
		<rect x="61.117" y="64.406" fill="#068E46" width="0.242" height="0.244"/>
		<g>
			<path fill="none" stroke="#068E46" stroke-width="1.725" stroke-linecap="round" stroke-linejoin="round" d="M68.066,51.952h29.4
				v24.534h-29.4V51.952z"/>
			
				<rect x="62.77" y="40.55" fill="none" stroke="#068E46" stroke-width="1.15" stroke-linecap="round" stroke-linejoin="round" stroke-dasharray="2.3,2.3" width="3.082" height="28.536"/>
			<path fill="none" stroke="#068E46" stroke-width="0.575" stroke-linecap="round" stroke-linejoin="round" d="M62.768,60.453
				h3.025v8.572h-3.025V60.453z M62.684,40.45h3.193v12.521h-3.193V40.45z"/>
			
				<rect x="73.252" y="58.791" fill="none" stroke="#068E46" stroke-width="1.15" stroke-linejoin="round" width="18.77" height="12.867"/>
			<path fill="none" stroke="#068E46" stroke-width="1.15" d="M92.021,59.934l1.207,1.217v8.01l-1.162,1.354 M73.451,60.195
				c0,0-1.676,0.535-2.014,1.248c0,0.473,0.01,2.049,0.01,2.049l-2.91,0.018 M73.383,70.252c0,0-1.678-0.533-2.014-1.246
				c0-0.475,0.012-2.051,0.012-2.051l-2.91-0.016"/>
			
				<rect x="60.871" y="63.648" fill="none" stroke="#068E46" stroke-width="1.15" stroke-linejoin="round" width="7.148" height="3.139"/>
			<polyline fill="none" stroke="#068E46" stroke-width="1.725" stroke-linecap="round" stroke-linejoin="round" points="
				83.785,69.777 80.662,64.172 84.098,65.773 80.975,60.57 			"/>
		</g>
	</g>
</g>
</svg>
